<svg width="300" height="274" viewBox="0 0 300 274" fill="none" xmlns="http://www.w3.org/2000/svg">
<g clip-path="url(#clip0_9130_68500)">
<mask id="mask0_9130_68500" style="mask-type:luminance" maskUnits="userSpaceOnUse" x="0" y="0" width="300" height="274">
<path d="M300 0H0V274H300V0Z" fill="white"/>
</mask>
<g mask="url(#mask0_9130_68500)">
<path d="M272.374 69.5302L244.004 59.601C241.826 58.8442 240.678 56.4565 241.448 54.2906L251.374 25.912C252.13 23.7331 254.517 22.5849 256.683 23.3547L285.052 33.2839C287.23 34.0407 288.378 36.4284 287.609 38.5943L277.683 66.9729C276.926 69.1388 274.539 70.287 272.374 69.5302Z" fill="#E1E6EB"/>
<path d="M263.87 66.5556L235.5 56.6264C233.322 55.8696 232.174 53.4819 232.943 51.316L242.87 22.9374C243.626 20.7585 246.013 19.6103 248.178 20.3801L276.548 30.3093C278.726 31.0661 279.874 33.4538 279.104 35.6197L269.178 63.9983C268.422 66.1772 266.048 67.3124 263.87 66.5556Z" fill="#F0F2F5"/>
<path d="M248.543 51.9816L242.661 39.7821L246.391 37.9815L250.474 46.4494L269.791 37.1465L271.591 40.8781L248.543 51.9816Z" fill="#E1E6EB"/>
<path d="M68.7133 55.7527L39.6786 62.4983C37.4481 63.0202 35.2307 61.6241 34.722 59.406L27.9786 30.362C27.4568 28.1308 28.8525 25.9128 31.0699 25.4039L60.1046 18.6583C62.3351 18.1364 64.5525 19.5325 65.0612 21.7506L71.8046 50.7946C72.3133 53.0127 70.9307 55.2438 68.7133 55.7527Z" fill="#E1E6EB"/>
<path d="M60.0131 57.7751L30.9784 64.5207C28.7479 65.0426 26.5305 63.6465 26.0218 61.4284L19.2784 32.3844C18.7566 30.1533 20.1523 27.9352 22.3697 27.4264L51.4044 20.6807C53.6349 20.1588 55.8523 21.5549 56.361 23.773L63.1044 52.817C63.6262 55.0351 62.2436 57.2663 60.0131 57.7751Z" fill="#F0F2F5"/>
<path d="M39.4435 53.7046L28.0435 46.6067L30.2087 43.123L38.1261 48.055L49.3695 29.9971L52.8522 32.176L39.4435 53.7046Z" fill="#E1E6EB"/>
<path d="M276.052 188.134C276.052 188.134 271.004 190.026 266.178 194.801C261.6 199.329 259.083 203.647 259.083 203.647C262.774 202.538 266.283 200.594 269.322 197.815C272.361 195.036 274.604 191.722 276.052 188.134Z" fill="#F0F2F5"/>
<path d="M263.713 204.678C260.922 204.809 258.313 205.566 256.004 206.818C258.417 207.836 261.091 208.345 263.883 208.214C266.674 208.084 269.283 207.327 271.591 206.074C269.178 205.057 266.504 204.548 263.713 204.678Z" fill="#F0F2F5"/>
<path d="M253.565 190.273C253.017 192.831 253.017 195.558 253.67 198.272C254.322 200.986 255.561 203.412 257.217 205.448C257.765 202.89 257.765 200.164 257.113 197.45C256.461 194.736 255.222 192.309 253.565 190.273Z" fill="#F0F2F5"/>
<path d="M263.257 227.251C266.479 225.463 267.066 223.454 265.526 221.118C263.987 218.783 262.005 216.917 259.761 215.573C259.761 215.573 259.996 219.448 262.566 223.063C263.857 224.863 264.066 226.194 263.257 227.251Z" fill="#F0F2F5"/>
<path d="M261.639 212.35C261.561 212.324 261.496 212.311 261.418 212.285L261.039 212.181C260.909 212.155 260.778 212.115 260.661 212.089L260.465 212.05L260.27 212.011L259.878 211.933C259.357 211.828 258.848 211.75 258.326 211.672C257.283 211.541 256.226 211.463 255.183 211.45C254.139 211.437 253.096 211.476 252.065 211.607C252.091 211.581 252.118 211.541 252.131 211.515C252.835 210.589 253.565 209.676 254.309 208.775C255.052 207.875 255.835 207.001 256.618 206.153C257.009 205.722 257.413 205.305 257.818 204.887C258.222 204.47 258.639 204.065 259.07 203.661C258.639 204.052 258.222 204.47 257.818 204.874C257.413 205.292 256.996 205.709 256.604 206.14C255.809 206.988 255.039 207.862 254.283 208.762C253.526 209.649 252.809 210.563 252.091 211.502C251.896 211.763 251.7 212.024 251.504 212.285C251.465 211.933 251.4 211.581 251.322 211.241C251.244 210.889 251.139 210.537 251.022 210.197C250.904 209.858 250.774 209.519 250.644 209.18C250.5 208.841 250.357 208.514 250.187 208.201C250.265 208.371 250.344 208.527 250.409 208.697C250.474 208.867 250.552 209.036 250.618 209.193C250.748 209.532 250.878 209.871 250.983 210.211C251.1 210.55 251.204 210.902 251.296 211.254L251.361 211.515C251.387 211.607 251.4 211.698 251.413 211.776C251.452 211.946 251.478 212.115 251.504 212.285C251.009 212.964 250.513 213.642 250.044 214.347C249.874 214.581 249.718 214.829 249.561 215.077C249.404 215.325 249.235 215.56 249.091 215.808L248.622 216.552L248.165 217.295C248.087 217.426 248.009 217.543 247.944 217.674L247.722 218.052L247.5 218.431C247.422 218.561 247.357 218.678 247.291 218.809L246.874 219.579L246.77 219.774L246.665 219.97L246.47 220.362C246.196 220.883 245.948 221.405 245.7 221.927C245.57 222.188 245.465 222.462 245.335 222.723L245.152 223.128C245.087 223.258 245.035 223.402 244.983 223.532L244.644 224.341L244.331 225.163L244.174 225.568L244.031 225.985L243.848 226.507H243.809C243.835 225.789 243.848 225.072 243.887 224.354C243.965 222.514 244.057 220.675 244.161 218.835C244.278 216.995 244.409 215.156 244.565 213.316C244.657 212.22 244.761 211.124 244.878 210.041C245.231 210.263 245.596 210.458 245.961 210.589C248.387 211.424 251.009 210.432 251.009 210.432C249.887 209.336 248.518 208.475 246.939 207.94C246.352 207.745 245.752 207.588 245.152 207.497L245.27 206.44L245.439 205.07C245.452 204.965 245.465 204.861 245.478 204.757C247.735 207.157 250.148 208.188 250.148 208.188C249.639 205.618 248.557 203.113 246.887 200.881C246.652 200.555 246.404 200.281 246.144 200.046L246.209 199.59L246.313 198.911L246.431 198.233L246.548 197.554C246.587 197.333 246.626 197.098 246.665 196.876L246.913 195.519C246.952 195.297 247.004 195.062 247.044 194.84L247.174 194.162L247.304 193.483C247.344 193.262 247.396 193.027 247.448 192.805L247.474 192.688C247.618 192.648 251.296 191.657 254.296 188.525C255.835 186.921 257.1 186.464 258.287 187.064C255.926 184.233 253.839 184.037 251.831 185.981C249.835 187.925 248.387 190.209 247.474 192.648L247.735 191.461C247.983 190.365 248.244 189.269 248.518 188.186C248.518 188.186 248.531 188.186 248.531 188.199C248.531 188.199 248.531 188.186 248.518 188.173C248.7 187.482 248.87 186.79 249.065 186.099C249.065 186.099 252.287 182.289 255.013 176.456C257.896 170.311 257.987 164.909 257.987 164.909C255.104 167.467 252.718 170.702 251.126 174.486C249.522 178.283 248.87 182.236 249.065 186.099C248.87 186.777 248.687 187.469 248.518 188.16C248.4 187.756 247.474 184.742 245.426 181.297C243.104 177.396 240.157 175.321 240.157 175.321C240.496 177.879 241.383 180.41 242.883 182.706C244.383 185.003 246.313 186.842 248.504 188.186C248.218 189.269 247.957 190.365 247.709 191.461L247.422 192.818C247.37 193.04 247.318 193.275 247.278 193.497L247.148 194.175L247.018 194.853C246.978 195.075 246.926 195.31 246.887 195.532L246.639 196.889C246.457 197.946 246.274 199.003 246.118 200.059C244.578 198.703 242.713 198.911 240.352 200.973C241.618 200.568 242.791 201.221 244.057 203.034C244.5 203.661 244.97 204.235 245.439 204.744C245.322 205.67 245.204 206.596 245.1 207.523C244.122 207.366 243.144 207.366 242.178 207.484C242.126 207.457 243.339 209.075 244.826 210.054C244.722 211.15 244.618 212.259 244.513 213.355C244.357 215.195 244.226 217.034 244.109 218.874C243.952 221.431 243.835 223.989 243.77 226.559H243.704L243.665 225.907L243.652 225.672L243.639 225.555L243.626 225.437L243.587 224.967L243.548 224.498L243.522 224.263L243.496 224.028L243.378 223.075L243.365 222.958L243.352 222.841L243.313 222.606L243.235 222.136L243.157 221.666L243.065 221.197C243 220.883 242.948 220.57 242.883 220.257L242.687 219.318C242.139 216.839 241.422 214.386 240.587 211.985C240.17 210.785 239.713 209.597 239.244 208.41C238.761 207.236 238.265 206.061 237.731 204.913C237.026 203.387 236.296 201.86 235.5 200.373C237.639 198.872 239.478 196.876 240.848 194.449C242.218 192.009 242.961 189.387 243.118 186.777C240.978 188.277 239.126 190.287 237.757 192.714C236.4 195.141 235.657 197.75 235.487 200.347C235.083 199.603 234.678 198.859 234.248 198.128C234.574 198.676 234.874 199.237 235.174 199.799C235.278 199.994 235.383 200.19 235.487 200.386V200.399C235.683 200.764 235.865 201.129 236.048 201.495C236.622 202.63 237.17 203.778 237.691 204.939C238.096 205.813 238.474 206.701 238.839 207.601C237.874 207.21 236.87 206.896 235.865 206.649C234.848 206.388 233.818 206.192 232.774 206.048C232.252 205.983 231.731 205.931 231.209 205.892L230.818 205.866L230.622 205.853L230.426 205.84C230.296 205.84 230.165 205.827 230.035 205.827H229.644C229.513 205.827 229.383 205.827 229.252 205.827C229.122 205.827 228.991 205.827 228.861 205.827C228.6 205.84 228.339 205.84 228.078 205.866C227.557 205.892 227.035 205.957 226.513 206.022C224.048 205.135 221.348 204.77 218.57 205.057C215.791 205.344 213.222 206.244 210.991 207.614C210.874 207.614 215.504 210.106 218.922 209.78C223.213 209.362 226.513 206.035 226.513 206.035C227.035 205.97 227.557 205.918 228.078 205.905C228.339 205.892 228.6 205.879 228.861 205.879C228.991 205.879 229.122 205.879 229.252 205.879C229.383 205.879 229.513 205.879 229.644 205.879L230.035 205.892C230.165 205.892 230.296 205.905 230.426 205.905L230.622 205.918L230.818 205.931L231.209 205.957C231.731 205.996 232.252 206.061 232.774 206.127C233.818 206.27 234.848 206.466 235.865 206.714C236.374 206.844 236.883 206.975 237.378 207.131C237.874 207.288 238.357 207.444 238.839 207.64C238.957 207.927 239.074 208.201 239.191 208.488C239.661 209.663 240.118 210.863 240.535 212.063C241.37 214.464 242.1 216.904 242.648 219.383L242.844 220.309C242.909 220.623 242.961 220.936 243.026 221.249L243.118 221.719L243.196 222.188L243.274 222.658L243.313 222.893L243.326 223.01L243.339 223.128L243.457 224.067L243.483 224.302L243.509 224.537L243.561 225.007L243.613 225.476L243.626 225.594L243.639 225.711L243.652 225.946L243.691 226.598H234.013V229.899V230.043V246H253.409V226.598H243.809L243.991 226.076L244.135 225.659L244.291 225.254L244.604 224.432L244.944 223.623C244.996 223.493 245.048 223.349 245.113 223.219L245.296 222.815C245.413 222.554 245.531 222.28 245.661 222.019C245.922 221.497 246.157 220.962 246.431 220.453L246.626 220.061L246.731 219.866L246.835 219.67L247.252 218.9C247.318 218.77 247.396 218.652 247.461 218.522L247.683 218.143L247.904 217.765C247.983 217.635 248.048 217.517 248.126 217.387L248.583 216.643L249.052 215.899C249.209 215.651 249.365 215.417 249.535 215.169C249.691 214.921 249.848 214.686 250.018 214.438C250.644 213.499 251.309 212.585 251.987 211.685C252.496 211.62 253.018 211.594 253.526 211.581C254.048 211.554 254.583 211.554 255.104 211.567C255.652 211.581 256.2 211.607 256.748 211.646C257.048 211.92 257.335 212.207 257.596 212.52C257.791 212.755 258 212.99 258.183 213.225C257.087 213.929 256.122 214.882 255.391 216.056C254.648 217.243 254.231 218.535 254.087 219.84C255.196 219.135 256.161 218.183 256.891 216.995C257.622 215.821 258.052 214.542 258.196 213.251C258.261 213.329 258.326 213.42 258.391 213.499C258.457 213.577 258.522 213.668 258.574 213.759C258.639 213.851 258.691 213.929 258.757 214.02L258.926 214.281C258.952 214.321 258.978 214.373 259.004 214.412L259.083 214.542C259.305 214.895 259.5 215.273 259.683 215.651L259.552 215.364C259.513 215.273 259.461 215.169 259.409 215.077L259.265 214.803C259.213 214.712 259.161 214.621 259.109 214.529C258.9 214.164 258.665 213.812 258.418 213.472C258.17 213.133 257.896 212.807 257.609 212.494C257.465 212.337 257.322 212.194 257.165 212.037C257.022 211.907 256.878 211.776 256.735 211.646C257.231 211.685 257.739 211.737 258.235 211.802C258.757 211.868 259.278 211.959 259.787 212.05L260.178 212.129L260.374 212.168L260.57 212.207C260.7 212.233 260.831 212.259 260.948 212.298L261.326 212.403C261.391 212.416 261.47 212.442 261.535 212.455C262.513 213.316 263.687 213.981 265.018 214.36C266.361 214.751 267.718 214.803 269.009 214.581C268.031 213.707 266.844 213.042 265.5 212.65C264.261 212.207 262.918 212.142 261.639 212.35Z" fill="#F0F2F5"/>
<path d="M222.209 178.505C222.626 182.341 223.879 186.151 226.057 189.648C228.222 193.144 231.079 195.976 234.326 198.05C234.326 198.05 233.074 193.223 229.905 187.612C226.552 181.702 222.209 178.505 222.209 178.505Z" fill="#F0F2F5"/>
<path d="M236.361 201.925C234.483 200.098 232.174 198.663 229.526 197.776C226.879 196.889 224.165 196.654 221.57 196.98C223.448 198.807 225.757 200.242 228.405 201.129C231.052 202.003 233.765 202.238 236.361 201.925Z" fill="#F0F2F5"/>
<path d="M234.443 210.876C234.065 209.545 233.4 208.358 232.526 207.392C232.774 207.21 233.022 207.04 233.283 206.87C233.635 206.649 234 206.427 234.378 206.244C234.183 206.322 234 206.427 233.804 206.518C233.622 206.623 233.439 206.727 233.256 206.831C232.891 207.053 232.552 207.288 232.213 207.549C231.887 207.81 231.561 208.084 231.261 208.384C231.183 208.462 231.104 208.527 231.039 208.606L230.817 208.841C230.739 208.919 230.674 208.997 230.609 209.075L230.4 209.31C230.687 208.997 230.974 208.697 231.287 208.41L231.404 208.306C231.443 208.267 231.483 208.227 231.522 208.201L231.756 207.993C231.835 207.927 231.913 207.862 232.004 207.797C232.083 207.732 232.161 207.666 232.252 207.601C232.33 207.536 232.422 207.471 232.5 207.405C232.291 208.684 232.356 210.028 232.735 211.359C233.126 212.703 233.791 213.89 234.665 214.869C234.9 213.577 234.835 212.22 234.443 210.876Z" fill="#F0F2F5"/>
<path d="M223.878 219.618C223.383 218.391 223.944 217.165 225.678 215.769C229.135 212.99 230.426 209.323 230.426 209.323C227.896 210.015 225.483 211.267 223.37 213.094C221.244 214.921 221.27 217.021 223.878 219.618Z" fill="#F0F2F5"/>
<path d="M255.378 244.108H232.2V245.883H255.378V244.108Z" fill="#E1E6EB"/>
<path d="M253.487 230.043H234.091V230.434H253.487V230.043Z" fill="#E1E6EB"/>
<path d="M257.426 84.4049C254.674 85.9184 252.665 88.4105 251.791 91.4376C250.918 94.4646 251.257 97.6352 252.77 100.401C255.691 105.725 262.148 107.904 267.626 105.594L271.135 112.001C270.965 112.483 270.848 112.757 271.109 113.24L271.552 114.062L275.7 121.63C276.196 122.53 277.331 122.869 278.231 122.373C278.687 122.126 278.987 121.721 279.131 121.264C279.274 120.808 279.222 120.299 278.974 119.842L274.578 111.831L274.37 111.453C274.109 110.97 273.835 110.97 273.339 110.852L269.791 104.394C271.996 102.867 273.613 100.636 274.37 98.0266C275.257 95.0126 274.904 91.829 273.391 89.0629C271.878 86.3099 269.387 84.3005 266.361 83.4263C263.361 82.5521 260.178 82.8914 257.426 84.4049ZM265.683 85.8141C268.07 86.5056 270.039 88.0843 271.226 90.2633C272.413 92.4422 272.7 94.9474 271.996 97.3351C271.304 99.7228 269.726 101.693 267.548 102.88C263.061 105.346 257.4 103.689 254.948 99.2009C253.761 97.022 253.474 94.5168 254.178 92.1291C254.87 89.7414 256.448 87.7842 258.626 86.5839C260.791 85.3965 263.309 85.1225 265.683 85.8141Z" fill="#F0F2F5"/>
<g opacity="0.25">
<path d="M265.683 85.8143C268.07 86.5058 270.026 88.0846 271.226 90.2636C272.413 92.4425 272.7 94.9477 271.996 97.3354C271.304 99.7231 269.726 101.68 267.548 102.881C263.061 105.347 257.4 103.69 254.948 99.2012C253.761 97.0222 253.474 94.5171 254.178 92.1294C254.87 89.7417 256.448 87.7845 258.626 86.5841C260.791 85.3968 263.309 85.1228 265.683 85.8143Z" fill="white"/>
</g>
<path d="M272.478 110.917C273.144 110.552 274.005 110.774 274.383 111.439C274.383 111.439 274.383 111.452 274.396 111.452L274.605 111.831L279 119.842C279.248 120.299 279.287 120.807 279.157 121.264C279.026 121.721 278.713 122.125 278.257 122.373C277.357 122.869 276.222 122.543 275.726 121.629L271.578 114.062L271.135 113.24C271.135 113.24 271.135 113.227 271.122 113.227C270.757 112.548 271.031 111.713 271.709 111.348L272.478 110.917Z" fill="#E1E6EB"/>
<path d="M277.474 155.632V153.714C277.474 152.566 276.809 151.522 275.765 151.039L273.561 150.008C272.739 149.63 272.218 148.808 272.218 147.908L272.765 147.36C273.144 146.981 273.352 146.473 273.352 145.938V143.785C273.352 143.25 273.144 142.741 272.765 142.363C272.387 141.984 271.878 141.775 271.344 141.775H270.744H271.096H270.496C269.961 141.775 269.452 141.984 269.074 142.363C268.696 142.741 268.487 143.25 268.487 143.785V145.938C268.487 146.473 268.696 146.981 269.074 147.36L269.635 147.908C269.635 148.808 269.113 149.63 268.291 150.008L266.087 151.039C265.044 151.522 264.378 152.566 264.378 153.714V155.632H277.474Z" fill="#F0F2F5"/>
<path d="M51.8611 91.2682V88.7631C51.8611 87.2626 51.0002 85.9056 49.6437 85.2663L46.7741 83.9224C45.7046 83.4266 45.0263 82.3567 45.0263 81.1824L45.7437 80.4648C46.2394 79.969 46.5133 79.3036 46.5133 78.612V75.8198C46.5133 75.1283 46.2394 74.4629 45.7437 73.9671C45.2481 73.4713 44.5828 73.1973 43.8915 73.1973H43.122H43.5785H42.8089C42.1176 73.1973 41.4524 73.4713 40.9567 73.9671C40.4611 74.4629 40.1872 75.1283 40.1872 75.8198V78.612C40.1872 79.3036 40.4611 79.969 40.9567 80.4648L41.6741 81.1824C41.6741 82.3567 40.9959 83.4266 39.9263 83.9224L37.0567 85.2663C35.7002 85.9056 34.8394 87.2626 34.8394 88.7631V91.2682H51.8611Z" fill="#F0F2F5"/>
</g>
<path d="M220.004 32.293H64.7869C61.7086 32.293 59.2173 34.7851 59.2173 37.8643V240.311C59.2173 243.39 61.7086 245.882 64.7869 245.882H220.004C223.082 245.882 225.574 243.39 225.574 240.311V37.8643C225.574 34.7851 223.082 32.293 220.004 32.293Z" fill="#6F99C4"/>
<path d="M219.561 35.4502H65.2435C63.2739 35.4502 61.6826 37.042 61.6826 39.0122V239.189C61.6826 241.159 63.2739 242.751 65.2435 242.751H219.574C221.543 242.751 223.135 241.159 223.135 239.189V38.9991C223.122 37.042 221.53 35.4502 219.561 35.4502Z" fill="#89A2C3"/>
<path d="M204.096 36.2297L61.6777 49.6191L79.4263 238.523L221.845 225.133L204.096 36.2297Z" fill="#E1E6EB"/>
<path d="M215.922 39.1289H72.874V228.867H215.922V39.1289Z" fill="white"/>
<path d="M108.195 110.565H92.3737C91.0302 110.565 89.9346 109.469 89.9346 108.125V92.2856C89.9346 90.9417 91.0302 89.8457 92.3737 89.8457H108.195C109.539 89.8457 110.635 90.9417 110.635 92.2856V108.112C110.648 109.456 109.552 110.565 108.195 110.565ZM92.3737 90.3415C91.3041 90.3415 90.4302 91.2157 90.4302 92.2856V108.112C90.4302 109.182 91.3041 110.056 92.3737 110.056H108.195C109.265 110.056 110.139 109.182 110.139 108.112V92.2856C110.139 91.2157 109.265 90.3415 108.195 90.3415H92.3737Z" fill="#89A2C3"/>
<path d="M98.0478 105.738L93 100.688L94.5522 99.1485L98.0478 102.645L106.03 94.6602L107.57 96.1998L98.0478 105.738Z" fill="#F9A21B"/>
<path d="M194.204 93.9951H115.734V98.4444H194.204V93.9951Z" fill="#F0F2F5"/>
<path d="M171.117 101.954H115.734V106.403H171.117V101.954Z" fill="#F0F2F5"/>
<path d="M108.195 143.759H92.3737C91.0302 143.759 89.9346 142.663 89.9346 141.319V125.479C89.9346 124.135 91.0302 123.039 92.3737 123.039H108.195C109.539 123.039 110.635 124.135 110.635 125.479V141.306C110.648 142.663 109.552 143.759 108.195 143.759ZM92.3737 123.535C91.3041 123.535 90.4302 124.409 90.4302 125.479V141.306C90.4302 142.376 91.3041 143.25 92.3737 143.25H108.195C109.265 143.25 110.139 142.376 110.139 141.306V125.479C110.139 124.409 109.265 123.535 108.195 123.535H92.3737Z" fill="#89A2C3"/>
<path d="M98.0478 138.931L93 133.894L94.5522 132.342L98.0478 135.851L106.03 127.866L107.57 129.406L98.0478 138.931Z" fill="#F9A21B"/>
<path d="M194.204 127.201H115.734V131.65H194.204V127.201Z" fill="#F0F2F5"/>
<path d="M171.117 135.16H115.734V139.609H171.117V135.16Z" fill="#F0F2F5"/>
<path d="M108.195 176.964H92.3737C91.0302 176.964 89.9346 175.868 89.9346 174.524V158.698C89.9346 157.354 91.0302 156.258 92.3737 156.258H108.195C109.539 156.258 110.635 157.354 110.635 158.698V174.524C110.648 175.868 109.552 176.964 108.195 176.964ZM92.3737 156.741C91.3041 156.741 90.4302 157.615 90.4302 158.685V174.511C90.4302 175.581 91.3041 176.456 92.3737 176.456H108.195C109.265 176.456 110.139 175.581 110.139 174.511V158.685C110.139 157.615 109.265 156.741 108.195 156.741H92.3737Z" fill="#89A2C3"/>
<path d="M98.0478 172.137L93 167.088L94.5522 165.548L98.0478 169.045L106.03 161.06L107.57 162.612L98.0478 172.137Z" fill="#F9A21B"/>
<path d="M194.204 160.395H115.734V164.844H194.204V160.395Z" fill="#F0F2F5"/>
<path d="M171.117 168.354H115.734V172.803H171.117V168.354Z" fill="#F0F2F5"/>
<path d="M108.195 210.158H92.3737C91.0302 210.158 89.9346 209.062 89.9346 207.718V191.891C89.9346 190.547 91.0302 189.451 92.3737 189.451H108.195C109.539 189.451 110.635 190.547 110.635 191.891V207.718C110.648 209.062 109.552 210.158 108.195 210.158ZM92.3737 189.934C91.3041 189.934 90.4302 190.808 90.4302 191.878V207.718C90.4302 208.788 91.3041 209.662 92.3737 209.662H108.195C109.265 209.662 110.139 208.788 110.139 207.718V191.891C110.139 190.821 109.265 189.947 108.195 189.947H92.3737V189.934Z" fill="#89A2C3"/>
<path d="M98.0478 205.33L93 200.294L94.5522 198.754L98.0478 202.251L106.03 194.266L107.57 195.805L98.0478 205.33Z" fill="#F9A21B"/>
<path d="M194.204 193.601H115.734V198.05H194.204V193.601Z" fill="#F0F2F5"/>
<path d="M171.117 201.56H115.734V206.009H171.117V201.56Z" fill="#F0F2F5"/>
<path d="M78.522 228.867H165.705L78.9002 232.938L78.522 228.867Z" fill="#D2D9E1"/>
<path d="M72.8737 138.408V48.5625L68.9346 48.9409L72.8737 138.408Z" fill="#D2D9E1"/>
<path d="M97.8716 70.5636H95.9995V57.1424H97.8716V70.5636ZM101.996 64.9315H97.4001V62.9588H101.996V64.9315ZM102.566 59.1242H97.4001V57.1424H102.566V59.1242Z" fill="#3AC2C2"/>
<path d="M111.25 70.5636H105.838V68.591H111.25V70.5636ZM106.373 70.5636H104.501V57.1424H106.373V70.5636ZM110.547 64.6181H105.838V62.6823H110.547V64.6181ZM111.222 59.1242H105.838V57.1424H111.222V59.1242Z" fill="#3AC2C2"/>
<path d="M114.283 70.5636H112.306L116.155 57.1424H117.401L117.274 59.1426L114.283 70.5636ZM116.754 59.1426L116.613 57.1424H117.866L121.73 70.5636H119.752L116.754 59.1426ZM119.639 67.5586H114.079V65.5675H119.639V67.5586Z" fill="#3AC2C2"/>
<path d="M126.839 70.5636H124.974V57.1424H126.839V70.5636ZM130.02 59.1242H121.82V57.1424H130.02V59.1242Z" fill="#3AC2C2"/>
<path d="M139.485 57.1424V66.0653C139.485 67.0915 139.314 67.9519 138.972 68.6463C138.634 69.3407 138.174 69.8661 137.592 70.2225C137.01 70.5728 136.356 70.7479 135.629 70.7479C134.887 70.7479 134.223 70.5728 133.637 70.2225C133.055 69.8661 132.598 69.3407 132.264 68.6463C131.936 67.9519 131.772 67.0915 131.772 66.0653V57.1424H133.644V66.0653C133.644 66.6921 133.724 67.2052 133.883 67.6046C134.043 67.9979 134.27 68.2929 134.566 68.4896C134.866 68.6801 135.22 68.7753 135.629 68.7753C136.041 68.7753 136.393 68.6801 136.684 68.4896C136.98 68.2929 137.207 67.9979 137.367 67.6046C137.527 67.2052 137.606 66.6921 137.606 66.0653V57.1424H139.485Z" fill="#3AC2C2"/>
<path d="M145.601 57.1424C146.385 57.1424 147.053 57.296 147.607 57.6033C148.165 57.9105 148.59 58.3653 148.881 58.9675C149.176 59.5697 149.324 60.3102 149.324 61.189C149.324 61.8773 149.23 62.4764 149.043 62.9865C148.86 63.4966 148.597 63.9236 148.254 64.2678C147.912 64.6119 147.506 64.8823 147.037 65.079L146.467 65.4753H143.215V63.4935H145.608C146.021 63.4935 146.363 63.4013 146.636 63.2169C146.908 63.0326 147.109 62.7776 147.241 62.4519C147.377 62.1262 147.445 61.7544 147.445 61.3365C147.445 60.6605 147.297 60.1228 147.002 59.7234C146.706 59.3239 146.239 59.1242 145.601 59.1242H143.799V70.5636H141.927V57.1424H145.601ZM145.341 64.5351H147.318L149.732 70.4345V70.5636H147.719L145.341 64.5351Z" fill="#3AC2C2"/>
<path d="M158.346 70.5636H152.934V68.591H158.346V70.5636ZM153.469 70.5636H151.597V57.1424H153.469V70.5636ZM157.643 64.6181H152.934V62.6823H157.643V64.6181ZM158.318 59.1242H152.934V57.1424H158.318V59.1242Z" fill="#3AC2C2"/>
<path d="M170.95 70.5636H165.813V68.591H170.95V70.5636ZM166.347 70.5636H164.475V57.1424H166.347V70.5636Z" fill="#3AC2C2"/>
<path d="M174.842 70.5636H172.97V57.1424H174.842V70.5636Z" fill="#3AC2C2"/>
<path d="M181.112 70.7479C180.615 70.7479 180.127 70.6619 179.648 70.4898C179.17 70.3116 178.733 70.0443 178.339 69.6879C177.95 69.3315 177.638 68.8859 177.403 68.3513C177.173 67.8105 177.058 67.1745 177.058 66.4432H178.937C178.937 66.8672 178.991 67.2298 179.099 67.5309C179.212 67.8259 179.367 68.0686 179.564 68.2591C179.761 68.4496 179.991 68.5879 180.254 68.6739C180.516 68.76 180.803 68.803 181.112 68.803C181.516 68.803 181.849 68.7292 182.112 68.5817C182.374 68.4343 182.571 68.2315 182.703 67.9734C182.839 67.7153 182.907 67.4172 182.907 67.0792C182.907 66.729 182.851 66.4309 182.738 66.1851C182.625 65.9331 182.414 65.6996 182.105 65.4845C181.8 65.2633 181.354 65.0359 180.767 64.8024C180.289 64.6119 179.843 64.3938 179.43 64.1479C179.022 63.9021 178.663 63.6164 178.353 63.2907C178.044 62.965 177.802 62.5901 177.628 62.1661C177.459 61.7359 177.375 61.2382 177.375 60.6728C177.375 59.9415 177.53 59.2963 177.84 58.7371C178.154 58.1778 178.588 57.7415 179.142 57.4281C179.695 57.1147 180.333 56.958 181.056 56.958C181.825 56.958 182.487 57.1424 183.041 57.5111C183.599 57.8736 184.028 58.3653 184.329 58.9859C184.629 59.6066 184.779 60.301 184.779 61.0692H182.9C182.9 60.6513 182.832 60.2795 182.696 59.9538C182.564 59.6281 182.36 59.3762 182.083 59.198C181.811 59.0136 181.462 58.9214 181.035 58.9214C180.636 58.9214 180.303 58.9982 180.035 59.1519C179.773 59.3055 179.576 59.5144 179.444 59.7787C179.318 60.0429 179.254 60.341 179.254 60.6728C179.254 60.9985 179.332 61.2843 179.486 61.5301C179.646 61.7759 179.885 62.0002 180.204 62.203C180.523 62.3996 180.92 62.5932 181.394 62.7837C182.154 63.0725 182.785 63.4136 183.287 63.8069C183.789 64.194 184.164 64.6549 184.413 65.1896C184.662 65.7181 184.786 66.3418 184.786 67.0608C184.786 67.8228 184.634 68.4803 184.329 69.0334C184.028 69.5865 183.604 70.0105 183.055 70.3055C182.506 70.6005 181.858 70.7479 181.112 70.7479Z" fill="#3AC2C2"/>
<path d="M191.218 70.5636H189.353V57.1424H191.218V70.5636ZM194.4 59.1242H186.2V57.1424H194.4V59.1242Z" fill="#3AC2C2"/>
<path d="M180.117 37.1725V42.5482H104.687V37.1725C104.687 33.454 107.152 30.179 110.739 29.1613L134.452 22.4157L138.352 21.3066C138.861 23.0681 140.478 24.3598 142.396 24.3598C144.313 24.3598 145.944 23.0681 146.439 21.3066L150.339 22.4157L174.052 29.1613C177.639 30.179 180.117 33.454 180.117 37.1725Z" fill="#F9A21B"/>
<path d="M142.409 11.8857C137.844 11.8857 134.139 15.5913 134.139 20.1579C134.139 20.9408 134.244 21.6976 134.452 22.4282C135.43 25.8989 138.626 28.4301 142.409 28.4301C146.191 28.4301 149.374 25.8858 150.365 22.4282C150.574 21.7106 150.678 20.9538 150.678 20.1579C150.665 15.5782 146.974 11.8857 142.409 11.8857ZM142.409 24.3593C140.491 24.3593 138.861 23.0676 138.365 21.3061C138.261 20.9408 138.209 20.5494 138.209 20.1579C138.209 17.8355 140.1 15.9436 142.422 15.9436C144.744 15.9436 146.635 17.8355 146.635 20.1579C146.635 20.5624 146.583 20.9408 146.478 21.3061C145.944 23.0676 144.326 24.3593 142.409 24.3593Z" fill="#F9A21B"/>
<g opacity="0.4">
<path d="M138.196 20.1452C138.196 20.5497 138.248 20.9281 138.352 21.2934C138.861 23.0549 140.478 24.3466 142.396 24.3466V42.548H104.687V37.1724C104.687 33.4538 107.152 30.1789 110.739 29.1611L134.452 22.4155C134.244 21.6979 134.139 20.9411 134.139 20.1452C134.139 15.5786 137.844 11.873 142.409 11.873V15.9309C140.087 15.9439 138.196 17.8358 138.196 20.1452Z" fill="#A65B3C"/>
</g>
<path d="M66.8086 104.172L72.8738 168.823V218.404L66.8086 104.172Z" fill="#6F99C4"/>
<path d="M214.317 228.868L146.4 232.234L182.191 228.868H214.317Z" fill="#6F99C4"/>
<path d="M50.5955 245.883C50.2172 245.909 49.8911 245.635 49.8651 245.257L49.552 241.355C49.5259 240.977 49.7998 240.651 50.1781 240.625C50.5564 240.599 50.8824 240.873 50.9085 241.251L51.2216 245.152C51.2477 245.531 50.9607 245.857 50.5955 245.883Z" fill="#373737"/>
<path d="M53.9607 212.441C54.052 222.07 53.2563 231.699 51.5607 241.185L48.8868 241.394C47.5433 237.558 46.3563 233.67 45.3259 229.742C42.9911 220.883 41.452 211.828 40.7216 202.694L33.7824 116.045C33.6911 114.858 34.565 113.827 35.752 113.736L44.2433 113.057C45.4303 112.966 46.4607 113.84 46.552 115.028L51.8085 180.761V180.814L52.2781 186.659L53.4781 201.677C53.765 205.265 53.9216 208.853 53.9607 212.441Z" fill="#89A2C3"/>
<path d="M42.8742 113.175L37.122 113.632L36.509 105.921C36.4437 105.151 37.0177 104.485 37.7742 104.433L40.7611 104.198C41.5307 104.133 42.1959 104.707 42.2481 105.464L42.8742 113.175Z" fill="#F9A21B"/>
<path d="M35.674 173.09C35.687 173.26 35.5696 173.403 35.4 173.416C34.4087 173.495 33.5348 172.764 33.4435 171.772L28.6696 123.196C28.3566 120.038 30.7044 117.246 33.8609 116.985L34.3566 123.209C33.874 123.274 33.4435 123.457 33.0783 123.718C32.3218 124.253 31.8392 125.14 31.8522 126.119C31.8522 126.184 31.8522 126.262 31.8653 126.327L35.674 173.09Z" fill="#F9A21B"/>
<path d="M53.8566 220.087L43.2784 220.935L43.2393 220.791L53.8566 219.943V220.087Z" fill="white"/>
<path d="M51.7946 180.588L39.0269 181.609L39.0373 181.739L51.805 180.718L51.7946 180.588Z" fill="white"/>
<path d="M51.587 177.926L38.8193 178.947L38.8297 179.077L51.5974 178.056L51.587 177.926Z" fill="white"/>
<g opacity="0.4">
<path d="M53.961 212.442C54.0523 222.071 53.2566 231.7 51.561 241.186L48.887 241.394C47.5436 237.558 46.3566 233.67 45.3262 229.743C52.9044 217.439 52.8523 196.771 52.2783 186.646L53.4783 201.664C53.7653 205.265 53.9218 208.854 53.961 212.442Z" fill="#89A2C3"/>
</g>
<g opacity="0.4">
<path d="M50.2695 172.75V172.685C50.2695 172.685 50.2695 172.685 50.2695 172.698C50.2956 172.946 50.4521 174.459 50.5956 176.847L50.2695 172.75Z" fill="#89A2C3"/>
</g>
<path d="M254.622 244.238V244.799C254.622 245.334 254.191 245.764 253.656 245.764L241.865 245.882C241.409 245.882 241.004 245.556 240.913 245.112C240.743 244.173 241.422 243.755 241.422 243.755C240.887 242.685 241.109 241.028 241.304 240.441C241.5 239.841 241.617 239.215 241.617 238.575V238.275C241.617 237.845 241.565 237.414 241.487 236.983C241.109 235.079 241.852 234.074 241.878 234.022C241.878 234.022 241.187 230.434 246.156 230.564C251.635 230.708 250.474 234.283 250.474 234.283C250.487 234.309 250.487 234.322 250.5 234.348C250.956 235.705 250.891 237.218 250.891 237.218C251.726 239.188 252.926 239.737 254.009 240.963C254.439 241.446 254.569 242.007 254.569 242.503C254.569 243.259 254.269 243.86 254.269 243.86C254.465 243.873 254.622 244.029 254.622 244.238Z" fill="#F9A21B"/>
<path d="M254.622 244.238V244.799C254.622 245.334 254.191 245.765 253.656 245.765L241.865 245.882C241.409 245.882 241.004 245.556 240.913 245.113C240.743 244.173 241.422 243.756 241.422 243.756C242.622 243.756 243.769 243.325 244.669 242.529L245.752 241.577C246.535 240.885 247.722 240.95 248.426 241.72L249.052 242.399C249.965 243.377 251.23 243.951 252.561 243.977C253.122 243.991 253.709 243.964 254.243 243.873C254.465 243.873 254.622 244.03 254.622 244.238Z" fill="#F0F2F5"/>
<path d="M244.656 241.837C243.065 241.837 241.891 241.054 241.343 239.566C241.304 239.449 241.356 239.319 241.474 239.279C241.591 239.24 241.722 239.293 241.761 239.41C242.622 241.732 244.852 241.524 246.117 241.184C246.743 241.015 247.396 240.989 248.061 241.106C251.661 241.759 253.383 240.323 253.396 240.31C253.487 240.232 253.63 240.245 253.709 240.336C253.787 240.428 253.787 240.571 253.683 240.649C253.604 240.715 251.804 242.241 247.969 241.55C247.369 241.445 246.783 241.458 246.222 241.615C245.661 241.759 245.139 241.837 244.656 241.837Z" fill="#F0F2F5"/>
<path d="M250.735 239.24C247.513 238.027 244.004 238.836 243.13 239.071C243.039 239.097 242.948 239.018 242.961 238.914C243.091 238.001 242.909 236.774 242.765 236.004C242.7 235.678 242.296 235.561 242.074 235.809C241.5 236.448 241.487 236.97 241.487 236.97C241.109 235.065 241.852 234.06 241.878 234.008C241.891 233.995 241.904 233.995 241.917 233.982C242.909 233.421 244.174 233.982 244.409 235.091C244.578 235.887 244.604 236.644 244.591 236.957C244.591 237.035 244.67 237.1 244.748 237.087C246.809 236.787 248.648 237.087 249.235 237.205C249.326 237.218 249.417 237.14 249.391 237.048C249.287 236.409 249.143 235.9 249.013 235.496C248.726 234.634 249.652 233.865 250.435 234.295C250.448 234.295 250.448 234.308 250.461 234.308C250.917 235.665 250.852 237.179 250.852 237.179C250.643 237.936 250.787 238.666 250.878 239.045C250.943 239.188 250.839 239.279 250.735 239.24Z" fill="#F0F2F5"/>
<path d="M243.952 234.687C243.874 234.687 243.808 234.635 243.782 234.609C243.704 234.518 243.717 234.374 243.808 234.296C243.821 234.283 243.835 234.27 243.848 234.27L243.861 234.257C244.395 233.93 246.313 232.913 248.543 233.617C248.661 233.656 248.726 233.787 248.687 233.904C248.648 234.022 248.517 234.087 248.4 234.048C246.352 233.395 244.591 234.335 244.095 234.635C244.043 234.674 244.004 234.687 243.952 234.687Z" fill="#F0F2F5"/>
<path d="M245.034 235.34C244.93 235.34 244.865 235.261 244.852 235.248C244.787 235.144 244.8 235.001 244.904 234.935C244.917 234.922 244.93 234.922 244.943 234.909H244.956C245.4 234.7 246.952 234.048 248.634 234.766C248.752 234.818 248.804 234.948 248.752 235.066C248.7 235.183 248.569 235.235 248.452 235.183C246.939 234.544 245.543 235.131 245.139 235.327C245.113 235.327 245.074 235.34 245.034 235.34Z" fill="#89A2C3"/>
<path d="M245.034 236.123C244.93 236.123 244.865 236.045 244.852 236.032C244.787 235.927 244.8 235.784 244.904 235.718C244.917 235.705 244.93 235.705 244.943 235.692H244.956C245.4 235.484 246.952 234.831 248.634 235.549C248.752 235.601 248.804 235.732 248.752 235.849C248.7 235.966 248.569 236.019 248.452 235.966C246.939 235.327 245.543 235.914 245.139 236.11C245.113 236.11 245.074 236.123 245.034 236.123Z" fill="#89A2C3"/>
<path d="M245.034 236.905C244.93 236.905 244.865 236.827 244.852 236.814C244.786 236.709 244.813 236.566 244.904 236.501C244.917 236.488 244.93 236.488 244.943 236.475H244.956C245.399 236.266 246.952 235.613 248.634 236.331C248.752 236.383 248.804 236.514 248.752 236.631C248.699 236.749 248.569 236.801 248.452 236.749C246.939 236.109 245.543 236.696 245.139 236.892C245.113 236.905 245.073 236.905 245.034 236.905Z" fill="#89A2C3"/>
<path d="M226.552 236.866C227.1 237.297 227.178 238.888 227.152 240.128C227.139 240.611 227.074 241.08 226.944 241.55C226.813 242.007 226.631 242.463 226.396 242.881C226.657 243.246 226.774 243.664 226.813 244.068C226.904 244.916 226.122 245.582 225.313 245.373C224.987 245.282 224.596 245.203 224.152 245.112C223.318 244.942 222.744 245.19 222.404 245.451C222.026 245.725 221.583 245.895 221.113 245.895L218.322 245.882L211.526 245.843H210.822C210.378 245.843 210.013 245.477 210.026 245.021L210.039 244.12C210.039 244.12 209.244 242.946 209.739 241.602C210.222 240.258 212.583 239.41 212.583 239.41C212.531 239.384 211.826 238.993 212.987 237.923C214.187 236.814 216.391 233.565 217.109 233.213C217.748 232.9 218.191 233.369 218.283 233.474C218.283 233.474 218.283 233.474 218.283 233.487C217.944 232.391 218.557 230.773 219.274 230.42C221.661 229.233 226.644 231.686 226.996 233.069C227.348 234.452 226.226 234.596 226.226 234.596C227.335 235.235 226.578 236.801 226.552 236.866Z" fill="#F9A21B"/>
<path d="M222.104 244.095C223.461 244.069 224.452 242.973 224.713 241.929C224.961 240.885 224.53 239.972 223.578 239.515C222.509 239.006 221.217 239.698 219.835 240.415C218.204 241.276 216.522 242.164 215.022 241.276C214.917 241.211 214.774 241.25 214.709 241.355C214.643 241.459 214.683 241.603 214.787 241.668C216.509 242.686 218.374 241.694 220.043 240.82C221.309 240.154 222.509 239.515 223.383 239.933C224.139 240.298 224.478 241.002 224.27 241.838C224.048 242.751 223.174 243.69 221.987 243.664C221.87 243.664 221.765 243.756 221.752 243.886C221.752 244.016 221.843 244.108 221.974 244.121C222.013 244.095 222.065 244.095 222.104 244.095Z" fill="#F0F2F5"/>
<path d="M212.817 241.759C213.443 241.746 214.004 241.655 214.122 241.642C214.239 241.616 214.33 241.511 214.304 241.381C214.278 241.263 214.174 241.172 214.043 241.198C213.091 241.355 211.461 241.42 211.135 240.937C211.03 240.794 211.069 240.572 211.239 240.272C211.304 240.167 211.265 240.024 211.161 239.959C211.056 239.893 210.913 239.933 210.848 240.037C210.587 240.494 210.561 240.872 210.77 241.172C211.109 241.681 212.022 241.772 212.817 241.759Z" fill="#F0F2F5"/>
<path d="M226.553 236.866C226.553 236.866 225.287 234.517 223.292 236.018C221.296 237.505 220.722 239.619 218.635 239.097C216.196 238.484 213.744 238.719 212.544 239.41C212.492 239.384 211.787 238.993 212.948 237.923C214.148 236.814 216.353 233.565 217.07 233.213C217.709 232.899 218.153 233.369 218.244 233.473C218.244 233.473 218.244 233.473 218.244 233.487V233.5C217.161 234.152 214.579 237.662 214.579 237.662C217.07 236.853 219.731 237.701 219.731 237.701C219.731 237.701 221.713 234.909 223.266 233.826C224.818 232.743 226.174 234.596 226.174 234.596C227.335 235.235 226.579 236.801 226.553 236.866Z" fill="#F0F2F5"/>
<path d="M221.7 233.957C221.778 233.957 221.857 233.905 221.896 233.826C221.948 233.709 221.909 233.578 221.792 233.526C219.874 232.587 218.231 233.239 218.165 233.265C218.048 233.317 217.996 233.448 218.048 233.552C218.1 233.67 218.231 233.722 218.335 233.67C218.361 233.657 219.874 233.07 221.596 233.918C221.635 233.944 221.674 233.957 221.7 233.957Z" fill="#F0F2F5"/>
<path d="M219.809 237.335C219.939 237.335 220.07 237.257 220.135 237.126C220.226 236.944 220.148 236.722 219.965 236.631C217.696 235.522 215.739 236.304 215.661 236.331C215.465 236.409 215.374 236.631 215.452 236.826C215.531 237.022 215.752 237.113 215.935 237.035C215.961 237.022 217.683 236.357 219.626 237.309C219.691 237.322 219.757 237.335 219.809 237.335Z" fill="#89A2C3"/>
<path d="M220.279 236.553C220.396 236.553 220.526 236.488 220.592 236.37C220.696 236.188 220.644 235.966 220.474 235.848C218.322 234.518 216.3 235.105 216.222 235.131C216.026 235.196 215.909 235.405 215.974 235.6C216.039 235.796 216.248 235.914 216.444 235.848C216.47 235.835 218.244 235.34 220.083 236.488C220.135 236.54 220.2 236.553 220.279 236.553Z" fill="#89A2C3"/>
<path d="M221.152 235.522C221.283 235.522 221.4 235.457 221.465 235.339C221.57 235.157 221.504 234.935 221.335 234.831C219.157 233.565 217.148 234.204 217.07 234.23C216.874 234.296 216.77 234.504 216.835 234.7C216.9 234.896 217.109 235 217.304 234.935C217.33 234.922 219.091 234.374 220.97 235.47C221.022 235.509 221.087 235.535 221.152 235.522Z" fill="#89A2C3"/>
<path d="M225.3 245.373C224.974 245.281 224.583 245.203 224.139 245.112C223.304 244.942 222.73 245.19 222.391 245.451C222.013 245.725 221.57 245.895 221.1 245.895L218.896 245.882C218.517 245.882 218.165 245.738 217.891 245.477L215.178 242.907C214.787 242.541 214.174 242.58 213.835 242.998L211.97 245.294C211.683 245.647 211.265 245.842 210.809 245.842C210.365 245.842 210 245.477 210.013 245.02L210.026 244.12C210.17 244.185 210.313 244.224 210.47 244.238C211.213 244.342 211.943 244.003 212.374 243.402L213.717 241.563C214.043 241.119 214.67 241.054 215.074 241.419L217.213 243.337C217.578 243.663 218.035 243.846 218.53 243.859C223.213 243.964 226.396 242.881 226.396 242.881C226.657 243.246 226.774 243.663 226.813 244.068C226.891 244.903 226.109 245.581 225.3 245.373Z" fill="#F0F2F5"/>
<path d="M255.522 147.477L253.761 194.957L254.517 209.466C254.596 211.006 254.178 212.519 253.304 213.785V222.814C253.304 223.688 253.148 224.549 252.848 225.371L250.448 232.652C250.448 232.652 245.791 234.074 241.904 231.739L241.2 226.102C240.965 224.497 241.265 222.853 242.061 221.431L243.417 219.017C243.417 219.017 242.1 204.952 242.609 196.862L241.278 193.809C240.991 193.144 240.835 192.426 240.835 191.695V189.125L235.852 173.142L230.322 192.243L229.591 219.317C229.578 220.009 229.435 220.7 229.174 221.353L226.956 227.028C226.956 227.028 228.052 229.912 227.778 232.587C227.778 232.587 220.643 233.891 215.974 232.169L216.456 228.255L215.974 226.911C215.152 224.615 215.517 222.057 216.926 220.074L217.748 218.913L216.835 193.039C216.835 193.039 216.143 159.233 220.696 144.202L255.522 147.477Z" fill="#1B1A2E"/>
<path d="M244.918 87.8756L247.148 90.72L259.735 94.6865C260.752 95.0127 261.496 95.8868 261.652 96.9437L264.483 116.815C264.665 118.107 264.744 119.425 264.718 120.73L264.574 126.953C264.574 126.953 265.148 132.198 260.231 132.538L255.483 134.156L260.348 160.707C260.348 160.707 250.109 164.739 240.731 165.47C239.035 165.6 237.431 164.661 236.739 163.108C235.226 159.703 232.722 153.179 232.057 146.185L224.778 145.533C224.778 145.533 221.831 160.668 219.47 164.1L218.361 163.487C217.2 162.847 216.561 161.542 216.77 160.225C217.631 154.823 220.083 140.536 223.565 129.393L221.531 126.536L216.013 125.936C216.013 125.936 213.561 122.347 215.674 119.673L219.391 103.689C219.391 103.689 218.687 99.2923 220.996 98.1963C223.461 97.035 230.883 93.6166 230.883 93.6166L232.5 90.5373L243.913 87.5364C244.265 87.432 244.67 87.5625 244.918 87.8756Z" fill="#F9A21B"/>
<path d="M232.5 122.125C231.209 127.605 230.831 133.255 231.352 138.852L232.031 146.159L229.239 146.237C228.718 146.25 228.209 146.211 227.7 146.107L224.739 145.507L227.544 131.95C227.987 129.719 228.183 127.449 228.157 125.179V125.166C228.157 124.878 228.144 124.604 228.144 124.317C227.791 114.179 229.031 104.315 229.944 98.6006C230.439 95.4822 230.844 93.6033 230.844 93.6033L233.557 88.4234C236.648 86.9621 240.104 86.662 241.891 86.6098C242.648 86.5837 243.352 86.9229 243.822 87.5101L244.265 88.0711C239.087 96.4608 234.809 112.261 232.5 122.125Z" fill="#89A2C3"/>
<path d="M232.839 82.252V93.3424L232.252 94.5298L232.461 94.9473C232.931 95.8867 233.218 96.8914 233.322 97.9352L233.479 99.54L233.779 97.8178C233.922 97.0088 234.222 96.2259 234.665 95.5214C234.887 95.1691 235.187 94.856 235.539 94.6211C239.622 91.868 242.505 88.1234 242.505 88.1234V82.252H232.839Z" fill="#FFC89F"/>
<path d="M235.292 89.9374C239.335 89.9374 242.609 86.6624 242.609 82.6177V73.6801C242.609 69.6353 239.335 66.3604 235.292 66.3604C231.248 66.3604 227.974 69.6353 227.974 73.6801V82.6177C227.974 86.6624 231.248 89.9374 235.292 89.9374Z" fill="#FFC89F"/>
<path d="M235.004 89.5068C234.274 89.8983 233.504 90.1201 232.826 90.2375V89.5068C233.491 89.6895 234.209 89.6765 235.004 89.5068Z" fill="#FF9A6C"/>
<path d="M230.426 77.2417C230.426 77.607 230.726 77.894 231.078 77.894C231.444 77.894 231.731 77.5939 231.731 77.2417C231.731 76.8763 231.431 76.5893 231.078 76.5893C230.726 76.5762 230.426 76.8763 230.426 77.2417Z" fill="#C2C2FD"/>
<path d="M229.474 76.602C229.644 76.4324 229.865 76.3019 230.1 76.2106C230.335 76.1193 230.583 76.0671 230.831 76.0801C230.857 76.0801 230.896 76.0801 230.922 76.0801L231.013 76.0932L231.105 76.1062C231.131 76.1062 231.17 76.1193 231.196 76.1323C231.261 76.1454 231.313 76.1584 231.378 76.1714C231.431 76.1975 231.496 76.2106 231.548 76.2367L231.639 76.2758L231.718 76.315L231.887 76.4063C231.992 76.4715 232.096 76.5498 232.187 76.6151C232.083 76.5629 231.978 76.4846 231.861 76.4324L231.692 76.3541L231.613 76.315L231.522 76.2889C231.47 76.2758 231.405 76.2497 231.352 76.2367C231.287 76.2236 231.235 76.2106 231.17 76.1975C231.144 76.1975 231.118 76.1845 231.078 76.1845L230.987 76.1714C230.922 76.1714 230.87 76.1584 230.805 76.1584C230.57 76.1454 230.322 76.1975 230.1 76.2758C230.048 76.2889 229.983 76.315 229.931 76.3411C229.878 76.3672 229.826 76.3933 229.761 76.4194C229.67 76.4585 229.565 76.5237 229.474 76.602Z" fill="#C2C2FD"/>
<path d="M237.339 77.2417C237.339 77.607 237.639 77.894 237.992 77.894C238.357 77.894 238.644 77.5939 238.644 77.2417C238.644 76.8763 238.344 76.5893 237.992 76.5893C237.639 76.5762 237.339 76.8763 237.339 77.2417Z" fill="#C2C2FD"/>
<path d="M236.374 76.602C236.544 76.4324 236.765 76.3019 237 76.2106C237.235 76.1193 237.483 76.0671 237.731 76.0801C237.757 76.0801 237.796 76.0801 237.822 76.0801L237.913 76.0932L238.004 76.1062C238.031 76.1062 238.07 76.1193 238.096 76.1323C238.161 76.1454 238.213 76.1584 238.278 76.1714C238.331 76.1975 238.396 76.2106 238.448 76.2367L238.539 76.2758L238.618 76.315L238.787 76.4063C238.891 76.4715 238.996 76.5498 239.087 76.6151C238.983 76.5629 238.878 76.4846 238.761 76.4324L238.591 76.3541L238.513 76.315L238.422 76.2889C238.37 76.2758 238.304 76.2497 238.252 76.2367C238.187 76.2236 238.135 76.2106 238.07 76.1975C238.044 76.1975 238.018 76.1845 237.978 76.1845L237.887 76.1714C237.822 76.1714 237.77 76.1584 237.704 76.1584C237.47 76.1454 237.222 76.1975 237 76.2758C236.948 76.2889 236.883 76.315 236.831 76.3411C236.778 76.3672 236.726 76.3933 236.661 76.4194C236.583 76.4585 236.478 76.5237 236.374 76.602Z" fill="#C2C2FD"/>
<path d="M233.491 79.3555C233.465 79.6425 233.439 79.9165 233.4 80.2036C233.361 80.4906 233.335 80.7646 233.296 81.0517C233.27 81.1952 233.257 81.3257 233.27 81.4692C233.283 81.6127 233.309 81.7432 233.361 81.8737C233.413 82.0041 233.504 82.1216 233.609 82.1868C233.726 82.2651 233.844 82.3434 233.961 82.4217C233.831 82.3564 233.713 82.2912 233.583 82.2259C233.452 82.1477 233.361 82.0302 233.296 81.8998C233.231 81.7693 233.191 81.6258 233.178 81.4822C233.165 81.3387 233.191 81.1821 233.204 81.0517C233.244 80.7646 233.283 80.4906 233.335 80.2036C233.4 79.9165 233.439 79.6425 233.491 79.3555Z" fill="#C2C2FD"/>
<path d="M235.878 83.4137C235.839 83.5572 235.787 83.6877 235.709 83.8182C235.552 84.0791 235.291 84.3009 234.965 84.4053C234.809 84.4575 234.639 84.4836 234.47 84.4706C234.391 84.4706 234.313 84.4575 234.235 84.4314C234.157 84.4053 234.078 84.3923 234.013 84.3531C233.726 84.2227 233.504 84.0269 233.374 83.7529C233.557 83.7529 233.726 83.766 233.883 83.766C233.974 83.766 234.065 83.766 234.157 83.766C234.209 83.766 234.261 83.7529 234.313 83.7529C234.365 83.7399 234.418 83.7399 234.457 83.7268C234.548 83.7138 234.639 83.6877 234.731 83.6616C234.9 83.6094 235.07 83.5181 235.265 83.4007C235.37 83.3354 235.461 83.2702 235.578 83.1919C235.683 83.1136 235.787 83.0353 235.904 82.957C235.931 83.1136 235.904 83.2702 235.878 83.4137Z" fill="#E43F5A"/>
<path d="M235.565 83.2041C235.539 83.2824 235.513 83.3737 235.461 83.452C235.344 83.6738 235.122 83.8565 234.861 83.9478C234.6 84.0392 234.3 84.0131 234.065 83.8956C234 83.8565 233.935 83.8173 233.883 83.7782C233.974 83.7782 234.065 83.7782 234.157 83.7782C234.209 83.7782 234.261 83.7651 234.313 83.7651C234.365 83.7521 234.418 83.7521 234.457 83.7391C234.548 83.726 234.639 83.6999 234.731 83.6738C234.9 83.6216 235.07 83.5303 235.265 83.4129C235.357 83.3476 235.461 83.2824 235.565 83.2041Z" fill="white"/>
<path d="M229.474 74.7627C229.513 74.6191 229.592 74.5017 229.683 74.3843C229.735 74.3321 229.774 74.2799 229.839 74.2277C229.865 74.2016 229.891 74.1886 229.918 74.1625C229.944 74.1364 229.97 74.1233 230.009 74.0972C230.257 73.9407 230.544 73.8624 230.844 73.8754C230.922 73.8754 230.987 73.8885 231.065 73.8885L231.17 73.9015C231.209 73.9146 231.235 73.9146 231.274 73.9276C231.339 73.9537 231.418 73.9668 231.483 74.0059C231.548 74.032 231.613 74.0711 231.665 74.1103C231.692 74.1233 231.731 74.1494 231.757 74.1625C231.783 74.1886 231.809 74.2016 231.835 74.2277C231.887 74.2799 231.939 74.319 231.978 74.3712C232.031 74.4234 232.07 74.4887 232.096 74.5409C232.135 74.6061 232.161 74.6583 232.187 74.7366C232.031 74.7366 231.913 74.7235 231.783 74.7105C231.718 74.7105 231.665 74.6974 231.6 74.6974C231.574 74.6974 231.548 74.6844 231.522 74.6844C231.496 74.6844 231.47 74.6844 231.444 74.6844C231.392 74.6844 231.339 74.6713 231.287 74.6713C231.235 74.6713 231.183 74.6713 231.131 74.6583C231.105 74.6583 231.078 74.6452 231.052 74.6452C231.026 74.6452 231 74.6452 230.974 74.6452H230.896H230.857H230.818C230.622 74.6322 230.426 74.6452 230.205 74.6713C229.983 74.6974 229.761 74.7366 229.474 74.7627Z" fill="#C2C2FD"/>
<path d="M236.374 74.7627C236.413 74.6191 236.491 74.5017 236.583 74.3843C236.635 74.3321 236.674 74.2799 236.739 74.2277C236.765 74.2016 236.791 74.1886 236.818 74.1625C236.844 74.1364 236.87 74.1233 236.909 74.0972C237.157 73.9407 237.444 73.8624 237.744 73.8754C237.822 73.8754 237.887 73.8885 237.965 73.8885L238.07 73.9015C238.109 73.9146 238.135 73.9146 238.174 73.9276C238.239 73.9537 238.318 73.9668 238.383 74.0059C238.448 74.032 238.513 74.0711 238.565 74.1103C238.591 74.1233 238.631 74.1494 238.657 74.1625C238.683 74.1886 238.709 74.2016 238.735 74.2277C238.787 74.2799 238.839 74.319 238.878 74.3712C238.931 74.4234 238.97 74.4887 238.996 74.5409C239.035 74.6061 239.061 74.6583 239.087 74.7366C238.931 74.7366 238.813 74.7235 238.683 74.7105C238.618 74.7105 238.565 74.6974 238.5 74.6974C238.474 74.6974 238.448 74.6844 238.422 74.6844C238.396 74.6844 238.37 74.6844 238.344 74.6844C238.291 74.6844 238.239 74.6713 238.187 74.6713C238.135 74.6713 238.083 74.6713 238.031 74.6583C238.004 74.6583 237.978 74.6452 237.952 74.6452C237.926 74.6452 237.9 74.6452 237.874 74.6452H237.796H237.757H237.718C237.522 74.6322 237.326 74.6452 237.104 74.6713C236.896 74.6974 236.661 74.7366 236.374 74.7627Z" fill="#C2C2FD"/>
<path d="M241.017 73.8231L240.978 71.7877C235.278 69.0738 230.048 70.2742 230.048 70.2742C230.048 70.2742 228.952 71.8399 228.783 74.4233C228.783 74.4233 229.852 74.1885 229.904 73.249C229.904 73.249 230.413 73.4187 230.296 74.1363C230.296 74.1363 230.491 73.8231 230.348 73.0925L230.661 73.2882C230.922 73.4448 231.091 73.7318 231.091 74.045C231.091 76.0021 228.17 76.511 226.93 75.8064C224.074 75.702 222.913 73.6666 224.217 71.4485C222.639 68.4997 226.383 67.4037 226.383 67.4037C224.178 64.6376 226.2 61.0626 226.2 61.0626C226.096 62.1847 226.226 63.1763 226.226 63.1763C225.887 60.3841 228.639 58.4922 228.639 58.4922C229.083 66.5165 240 62.9284 240 62.9284C244.983 69.0608 248.661 68.4867 248.661 68.4867C248.204 68.9955 247.435 69.139 247.435 69.139L247.97 69.2695C250.957 75.2845 248.204 79.1857 248.204 79.1857C248.204 78.442 248.048 77.2677 248.048 77.2677C248.048 77.3199 248.048 77.3721 248.048 77.4243C248.061 79.3031 247.03 81.0254 245.413 81.9779C242.309 83.8176 242.491 86.3228 242.491 86.3228L242.426 76.5892L241.683 75.6498C241.265 75.1409 241.03 74.4886 241.017 73.8231Z" fill="#1B1A2E"/>
<path d="M243.313 82.3302H242.935C242.178 82.3302 241.578 81.717 241.578 80.9733V78.5464C241.578 77.7896 242.191 77.1895 242.935 77.1895H243.313C244.069 77.1895 244.669 77.8027 244.669 78.5464V80.9733C244.669 81.717 244.069 82.3302 243.313 82.3302Z" fill="#FFC89F"/>
<path d="M242.7 77.9856C242.83 77.9725 242.961 77.9856 243.091 78.0117C243.221 78.0508 243.352 78.103 243.469 78.1682C243.704 78.3118 243.887 78.5466 243.978 78.8076C244.017 78.9381 244.056 79.0816 244.056 79.2121C244.056 79.3425 244.056 79.473 244.043 79.6035C244.03 79.8644 244.017 80.1254 243.978 80.3863C243.952 80.1254 243.926 79.8644 243.913 79.6035C243.9 79.473 243.9 79.3425 243.9 79.2121C243.9 79.0946 243.874 78.9642 243.834 78.8467C243.795 78.7293 243.743 78.6249 243.665 78.5205C243.6 78.4162 243.508 78.3248 243.404 78.2596C243.3 78.1813 243.195 78.1161 243.078 78.0769C242.961 78.0378 242.83 77.9986 242.7 77.9856Z" fill="#FF9A6C"/>
<path d="M243.209 80.7774C243.13 80.7383 243.078 80.6861 243.026 80.6209C242.974 80.5556 242.935 80.4904 242.909 80.4121C242.883 80.3338 242.869 80.2555 242.856 80.1772C242.856 80.099 242.869 80.0207 242.896 79.9424C242.922 80.0207 242.948 80.0859 242.974 80.1511L243.039 80.3469L243.117 80.5426C243.156 80.6209 243.183 80.6991 243.209 80.7774Z" fill="#FF9A6C"/>
<path d="M228.783 74.4366C228.496 74.5149 228.183 74.5018 227.909 74.3975C227.765 74.3453 227.635 74.267 227.531 74.1626C227.413 74.0713 227.322 73.9538 227.244 73.8234C227.087 73.5624 227.009 73.2623 226.996 72.9622C226.983 72.6621 227.048 72.362 227.165 72.088C227.283 71.814 227.465 71.5661 227.674 71.3574C227.883 71.1486 228.118 70.9659 228.378 70.8224C228.9 70.5354 229.474 70.3657 230.061 70.2744C229.918 70.3136 229.774 70.3397 229.631 70.3788C229.487 70.4179 229.344 70.4571 229.213 70.5093L229.004 70.5876L228.809 70.6789C228.77 70.6919 228.744 70.705 228.704 70.718L228.613 70.7702C228.548 70.8094 228.483 70.8355 228.418 70.8746C228.17 71.0181 227.935 71.2008 227.726 71.4096C227.531 71.6183 227.361 71.8662 227.244 72.1272C227.126 72.3881 227.061 72.6752 227.074 72.9753C227.074 73.2623 227.152 73.5494 227.296 73.7973C227.374 73.9147 227.452 74.0321 227.57 74.1365C227.674 74.2409 227.804 74.3061 227.935 74.3714C228.196 74.4758 228.496 74.4888 228.783 74.4366Z" fill="#89A2C3"/>
<path d="M226.904 73.875C226.97 74.0577 227.074 74.2273 227.191 74.3839C227.309 74.5404 227.452 74.6839 227.596 74.8014C227.896 75.0493 228.248 75.232 228.626 75.3102C228.809 75.3494 229.004 75.3624 229.2 75.3363C229.396 75.3102 229.565 75.2319 229.722 75.1276C229.878 75.0101 229.996 74.8536 230.087 74.684C230.178 74.5143 230.243 74.3317 230.296 74.136C230.256 74.3317 230.204 74.5143 230.113 74.697C230.022 74.8797 229.904 75.0362 229.748 75.1667C229.591 75.2972 229.396 75.3755 229.2 75.4016C229.004 75.4277 228.796 75.4277 228.6 75.3755C228.209 75.2841 227.843 75.0884 227.543 74.8275C227.256 74.5926 226.996 74.2534 226.904 73.875Z" fill="#89A2C3"/>
<path d="M224.217 71.4613C224.478 71.0568 224.817 70.6915 225.183 70.3653C225.548 70.0391 225.952 69.7781 226.396 69.5433C226.826 69.3215 227.296 69.1649 227.765 69.0475C227.882 69.0214 228 68.9953 228.13 68.9822L228.313 68.9561L228.496 68.9431C228.743 68.917 228.978 68.917 229.226 68.917C228.743 68.93 228.261 68.9953 227.791 69.1127C227.322 69.2301 226.865 69.3867 226.435 69.6085C226.226 69.7129 226.004 69.8303 225.809 69.9738C225.613 70.1043 225.417 70.2478 225.235 70.4044C225.052 70.561 224.869 70.7176 224.7 70.9002C224.517 71.0699 224.361 71.2656 224.217 71.4613Z" fill="#89A2C3"/>
<path d="M224.596 70.0528C224.648 69.9092 224.739 69.7788 224.844 69.6613C224.896 69.5961 224.961 69.5569 225.013 69.4917C225.078 69.4395 225.144 69.4004 225.209 69.3482C225.483 69.1786 225.783 69.0742 226.096 69.009L226.213 68.9829C226.252 68.9698 226.291 68.9698 226.33 68.9698L226.565 68.9437C226.644 68.9437 226.722 68.9437 226.8 68.9307C226.878 68.9307 226.957 68.9307 227.035 68.9307C227.191 68.9437 227.348 68.9437 227.504 68.9698C227.661 68.9959 227.817 69.022 227.974 69.0481C227.817 69.035 227.661 69.022 227.504 69.009C227.348 68.9959 227.191 68.9959 227.035 68.9959C226.878 68.9959 226.722 69.009 226.565 69.022L226.33 69.0481C226.291 69.0481 226.252 69.0611 226.213 69.0611L226.096 69.0872C226.017 69.1003 225.939 69.1133 225.874 69.1394L225.652 69.2047C225.574 69.2308 225.509 69.2699 225.444 69.296C225.378 69.3221 225.313 69.3612 225.235 69.4004C225.17 69.4395 225.104 69.4787 225.039 69.5309C224.987 69.583 224.922 69.6222 224.87 69.6874C224.765 69.7788 224.661 69.9092 224.596 70.0528Z" fill="#89A2C3"/>
<path d="M226.37 67.4172C226.683 67.339 227.009 67.2998 227.322 67.2998C227.648 67.2998 227.961 67.3389 228.287 67.4042C228.444 67.4433 228.6 67.4955 228.757 67.5477L228.978 67.639C229.017 67.6521 229.057 67.6651 229.083 67.6912L229.187 67.7565C229.252 67.7956 229.33 67.8348 229.396 67.8739L229.591 68.0044C229.657 68.0435 229.722 68.1088 229.774 68.161C229.839 68.2131 229.891 68.2653 229.957 68.3175C229.891 68.2653 229.826 68.2262 229.761 68.174C229.696 68.1218 229.63 68.0827 229.565 68.0435L229.357 67.913C229.291 67.8739 229.213 67.8348 229.148 67.8087C229.004 67.7304 228.861 67.6782 228.717 67.613C228.561 67.5608 228.417 67.5086 228.261 67.4825C227.948 67.4042 227.635 67.365 227.322 67.352H227.087C227.009 67.352 226.93 67.352 226.852 67.365C226.696 67.365 226.539 67.3911 226.37 67.4172Z" fill="#89A2C3"/>
<path d="M226.226 63.2021C226.278 63.5544 226.422 63.8806 226.63 64.1677C226.826 64.4547 227.1 64.6896 227.387 64.8722C227.687 65.0549 228.013 65.1854 228.339 65.2767C228.678 65.3681 229.017 65.4202 229.37 65.4463C230.061 65.4985 230.765 65.4463 231.47 65.342L231.73 65.3028L231.991 65.2506L232.252 65.1984C232.343 65.1854 232.422 65.1593 232.513 65.1462C232.683 65.1071 232.852 65.081 233.022 65.0288L233.53 64.8983C232.852 65.0941 232.174 65.2637 231.483 65.3811L231.222 65.4202C231.13 65.4333 231.052 65.4463 230.961 65.4463L230.7 65.4724L230.439 65.4855C230.087 65.5116 229.735 65.5116 229.383 65.4855C229.03 65.4594 228.678 65.4072 228.339 65.3028C228 65.2115 227.661 65.068 227.374 64.8722C227.074 64.6765 226.813 64.4286 226.617 64.1416C226.513 63.9981 226.435 63.8415 226.37 63.6719C226.291 63.5414 226.239 63.3718 226.226 63.2021Z" fill="#89A2C3"/>
<path d="M242.596 68.8389C242.961 69.0346 243.352 69.1781 243.757 69.2955C243.861 69.3216 243.952 69.3477 244.057 69.3738C244.161 69.3999 244.265 69.413 244.357 69.4391L244.67 69.4782C244.774 69.4913 244.878 69.4913 244.983 69.5043C245.4 69.5304 245.804 69.5173 246.222 69.4521C246.43 69.426 246.626 69.3738 246.835 69.3347C246.939 69.3216 247.03 69.2825 247.135 69.2564L247.435 69.1651L247.148 69.2694C247.044 69.3086 246.952 69.3477 246.848 69.3738C246.652 69.426 246.444 69.4912 246.235 69.5173C245.817 69.5956 245.4 69.6087 244.983 69.5826C244.565 69.5565 244.148 69.4782 243.744 69.3608C243.639 69.3347 243.548 69.2955 243.444 69.2564C243.339 69.2172 243.248 69.1781 243.157 69.139C242.961 69.0346 242.778 68.9432 242.596 68.8389Z" fill="#89A2C3"/>
<path d="M241.043 66.8037C241.096 67.0255 241.148 67.2343 241.213 67.443C241.278 67.6518 241.343 67.8606 241.435 68.0693C241.604 68.4738 241.8 68.8783 242.074 69.2175C242.335 69.5698 242.687 69.8569 243.117 69.9743C243.535 70.1048 243.991 70.0395 244.409 69.896L244.252 69.9482C244.2 69.9743 244.148 69.9873 244.096 70.0004L243.939 70.0395L243.77 70.0656C243.548 70.0917 243.326 70.0787 243.104 70.0265C242.661 69.909 242.296 69.6089 242.022 69.2567C241.748 68.9044 241.539 68.4999 241.396 68.0824C241.226 67.6779 241.109 67.2473 241.043 66.8037Z" fill="#89A2C3"/>
<path d="M248.048 77.4375C248.035 77.2157 248.022 76.9939 247.995 76.772C247.969 76.5502 247.943 76.3284 247.917 76.1066C247.852 75.663 247.774 75.2324 247.669 74.8019C247.565 74.3713 247.435 73.9407 247.265 73.5362C247.095 73.1318 246.887 72.7403 246.613 72.375C246.756 72.5446 246.887 72.7273 247.004 72.9099C247.121 73.1057 247.226 73.3014 247.317 73.5101C247.5 73.9146 247.63 74.3452 247.735 74.7758C247.839 75.2063 247.917 75.65 247.969 76.0936C248.021 76.5372 248.048 76.9939 248.048 77.4375Z" fill="#89A2C3"/>
<g opacity="0.4">
<path d="M255.456 134.155L255.978 137C255.978 137 247.852 137.913 240.065 136.908C240.065 136.908 242.661 137.065 243.926 136.921C243.926 136.921 246.117 136.726 247.421 136.386L255.456 134.155Z" fill="#A65B3C"/>
</g>
<g opacity="0.4">
<path d="M252.209 124.278C252.209 124.278 251.791 123.469 252.417 123.287L251.765 121.865C251.765 121.865 251.556 121.382 251.87 120.847L252.274 120.299C252.274 120.299 250.761 115.615 250.93 110.278L250.63 124.083C250.917 124.017 251.243 123.835 252.209 124.278Z" fill="#A65B3C"/>
</g>
<g opacity="0.4">
<path d="M224.752 145.52L227.387 132.838C227.387 132.838 226.565 139.362 226.552 145.886L224.752 145.52Z" fill="#89A2C3"/>
</g>
<g opacity="0.4">
<path d="M233.478 133.346C233.478 133.346 232.239 138.879 231.548 133.281C231.548 133.281 232.278 132.994 233.478 133.346Z" fill="#A65B3C"/>
</g>
<g opacity="0.4">
<path d="M255.782 127.306L255.365 126.184C255.169 125.649 254.739 125.218 254.191 125.009L252.195 124.266C252.208 124.279 254.217 125.322 255.782 127.306Z" fill="#A65B3C"/>
</g>
<g opacity="0.4">
<path d="M252.417 123.287C252.417 123.287 255.691 122.308 259.252 122.621L256.683 122.256C255.913 122.152 255.117 122.23 254.387 122.517L252.417 123.287Z" fill="#A65B3C"/>
</g>
<g opacity="0.4">
<path d="M231.378 97.1653C231.378 97.1653 231.6 96.6303 232.239 96.1084C232.239 96.1084 232.656 96.9956 232.878 97.6741C232.878 97.6741 232.408 96.813 231.378 97.1653Z" fill="#89A2C3"/>
</g>
<g opacity="0.4">
<path d="M234.326 97.3612C234.326 97.3612 234.9 96.3435 235.474 95.9912C235.474 95.9912 235.904 96.2391 236.061 97.0481L236.178 97.6613C236.178 97.6744 235.213 96.4609 234.326 97.3612Z" fill="#89A2C3"/>
</g>
<g opacity="0.4">
<path d="M229.957 98.6133L228.183 125.178C228.183 124.891 228.17 124.617 228.17 124.33C227.804 114.205 229.03 104.328 229.957 98.6133Z" fill="#89A2C3"/>
</g>
<g opacity="0.4">
<path d="M220.904 119.125L219.848 107.956V116.15L220.904 119.125Z" fill="#A65B3C"/>
</g>
<path d="M247.069 91.0586C246.952 91.8545 246.822 92.6634 246.691 93.4594L246.3 95.8601C246.248 96.0689 246.13 96.2515 245.961 96.369C245.882 96.4342 245.778 96.4864 245.687 96.5125L245.4 96.6038L244.252 96.9822C243.482 97.2301 242.713 97.478 241.943 97.7259C242.713 97.4519 243.469 97.191 244.239 96.93L245.387 96.5386C245.582 96.4734 245.778 96.4342 245.935 96.3037C246.091 96.1863 246.209 96.0167 246.248 95.821L246.665 93.4333C246.782 92.6634 246.926 91.8675 247.069 91.0586Z" fill="#A65B3C"/>
<path d="M245.1 99.7618L245.295 99.3703C245.361 99.2399 245.439 99.1094 245.478 98.9789C245.556 98.7049 245.491 98.4048 245.308 98.183C245.217 98.0786 245.1 97.9873 244.982 97.8959C244.865 97.8046 244.761 97.7133 244.643 97.6219C244.422 97.4393 244.2 97.2436 243.978 97.0479C244.213 97.2175 244.448 97.4001 244.669 97.5828C244.787 97.6741 244.891 97.7655 245.008 97.8568C245.113 97.9481 245.243 98.0264 245.348 98.1439C245.543 98.3787 245.608 98.7049 245.517 98.992C245.478 99.1355 245.387 99.2529 245.322 99.3834L245.1 99.7618Z" fill="#A65B3C"/>
<path d="M234.313 124.905L234.848 123.274C235.017 122.726 235.226 122.191 235.409 121.656L235.696 120.847L235.996 120.038C236.191 119.503 236.387 118.968 236.609 118.433L237.235 116.841L237.887 115.263C238.33 114.206 238.761 113.149 239.217 112.105C240.117 110.004 241.056 107.93 242.035 105.868C242.517 104.838 243.026 103.807 243.535 102.789C244.043 101.771 244.565 100.754 245.113 99.749C244.591 100.767 244.083 101.784 243.574 102.802C243.326 103.311 243.065 103.833 242.83 104.342L242.087 105.881C241.109 107.943 240.156 110.018 239.243 112.105C238.33 114.193 237.47 116.306 236.661 118.446C236.452 118.981 236.27 119.516 236.061 120.051L235.761 120.847L235.474 121.656C235.056 122.752 234.704 123.835 234.313 124.905Z" fill="#A65B3C"/>
<path d="M252.274 120.299C251.817 118.838 251.491 117.35 251.256 115.837C251.021 114.323 250.891 112.797 250.878 111.27C250.865 110.5 250.904 109.744 250.969 108.987C251.021 108.23 251.139 107.473 251.269 106.717C251.4 105.96 251.595 105.229 251.817 104.486C252.039 103.755 252.326 103.05 252.652 102.346C252.026 103.742 251.595 105.216 251.321 106.717C251.191 107.473 251.087 108.23 251.035 108.987C250.982 109.744 250.943 110.514 250.956 111.27C250.956 112.797 251.087 114.323 251.308 115.824C251.426 116.581 251.556 117.324 251.713 118.081C251.869 118.825 252.052 119.569 252.274 120.299Z" fill="#A65B3C"/>
<path d="M253.409 100.858C253.67 100.492 253.943 100.127 254.243 99.7879C254.53 99.4486 254.843 99.1094 255.157 98.7832C255.47 98.457 255.809 98.1569 256.148 97.8568C256.487 97.5698 256.865 97.2958 257.23 97.0479C257.048 97.1914 256.865 97.3088 256.696 97.4654C256.513 97.6089 256.343 97.7524 256.174 97.8959C255.835 98.196 255.509 98.4961 255.196 98.8223C254.883 99.1355 254.57 99.4747 254.27 99.8139C254.126 99.9836 253.97 100.153 253.826 100.323C253.683 100.505 253.539 100.675 253.409 100.858Z" fill="#A65B3C"/>
<path d="M233.452 99.5402C233.53 99.2009 233.635 98.8747 233.752 98.5485C233.87 98.2224 234.013 97.8962 234.17 97.5961C234.339 97.296 234.509 96.9828 234.73 96.7088C234.952 96.4348 235.187 96.1869 235.474 95.9912C235.2 96.213 234.965 96.4609 234.77 96.7349C234.561 97.0089 234.391 97.309 234.235 97.6222C234.078 97.9223 233.935 98.2485 233.804 98.5616C233.739 98.7182 233.674 98.8878 233.622 99.0443C233.556 99.214 233.504 99.3705 233.452 99.5402Z" fill="#1B1A2E"/>
<path d="M237.848 100.349L239.009 98.1571C239.4 97.4265 239.778 96.6958 240.156 95.9651C240.535 95.2345 240.913 94.5038 241.291 93.7601L242.387 91.542C242.217 91.9204 242.048 92.2988 241.865 92.6641C241.682 93.0425 241.513 93.4078 241.33 93.7731C240.965 94.5169 240.6 95.2475 240.222 95.9912C239.843 96.7219 239.452 97.4526 239.061 98.1832L238.474 99.2662L237.848 100.349Z" fill="#1B1A2E"/>
<path d="M233.452 99.5403C233.361 99.2532 233.27 98.9531 233.178 98.6661C233.087 98.379 232.996 98.092 232.891 97.8049C232.8 97.5179 232.696 97.2308 232.578 96.9438C232.474 96.6568 232.357 96.3828 232.226 96.0957C232.37 96.3567 232.5 96.6437 232.617 96.9177C232.735 97.2047 232.839 97.4918 232.943 97.7788C233.035 98.0659 233.126 98.3529 233.217 98.653C233.309 98.9531 233.387 99.2402 233.452 99.5403Z" fill="#1B1A2E"/>
<path d="M233.465 99.54L232.735 105.124C232.487 106.99 232.239 108.843 231.991 110.709L231.235 116.293L230.478 121.865L228.991 133.033C228.717 134.886 228.6 136.765 228.678 138.644L228.861 144.267L228.652 138.644C228.574 136.765 228.678 134.886 228.952 133.02L230.465 121.865L231.222 116.28L231.952 110.696C232.2 108.83 232.448 106.977 232.709 105.111L233.465 99.54Z" fill="#1B1A2E"/>
<path d="M232.604 98.6133L231.861 104.315C231.613 106.22 231.352 108.112 231.091 110.017L230.308 115.706C230.048 117.598 229.8 119.503 229.552 121.407L228.026 132.798C227.739 134.69 227.608 136.608 227.674 138.526L227.856 144.267L227.635 138.526C227.595 137.573 227.608 136.608 227.661 135.655C227.713 134.703 227.83 133.751 227.961 132.798L229.513 121.407C229.774 119.503 230.035 117.611 230.282 115.706L231.039 110.004C231.287 108.099 231.548 106.207 231.808 104.302L232.604 98.6133Z" fill="#1B1A2E"/>
<path d="M235.474 95.9912C235.656 96.1086 235.8 96.2783 235.891 96.474C235.982 96.6697 236.048 96.8784 236.087 97.0872C236.178 97.5047 236.243 97.9353 236.361 98.3398C236.478 98.7443 236.661 99.1357 236.908 99.488C237.156 99.8272 237.482 100.114 237.834 100.362C237.652 100.245 237.469 100.127 237.313 99.9838C237.156 99.8403 237 99.6837 236.869 99.5141C236.608 99.1748 236.426 98.7704 236.295 98.3528C236.178 97.9353 236.113 97.5178 236.034 97.0872C235.995 96.8784 235.943 96.6697 235.852 96.474C235.774 96.2913 235.643 96.1086 235.474 95.9912Z" fill="#1B1A2E"/>
<path d="M232.239 96.1084C231.991 96.3172 231.782 96.5781 231.6 96.8521C231.417 97.1261 231.274 97.4132 231.156 97.7263C231.052 98.0394 230.961 98.3526 230.909 98.6788L230.882 98.7962L230.869 98.9136L230.843 99.1615C230.83 99.3312 230.83 99.4877 230.817 99.6574C230.817 99.4877 230.804 99.3312 230.804 99.1615L230.817 98.9136L230.83 98.7962L230.843 98.6788L230.882 98.4309C230.896 98.3526 230.922 98.2743 230.935 98.183C230.948 98.1047 230.974 98.0264 231 97.9481C231.026 97.8698 231.052 97.7915 231.078 97.7133C231.196 97.4001 231.352 97.1 231.535 96.8391C231.756 96.552 231.978 96.3041 232.239 96.1084Z" fill="#1B1A2E"/>
<path d="M230.648 94.6729C230.596 95.0904 230.557 95.5079 230.544 95.9254C230.531 96.343 230.517 96.7605 230.531 97.178C230.544 97.5955 230.57 98.013 230.622 98.4175L230.661 98.7307L230.713 99.0438C230.739 99.2526 230.791 99.4483 230.831 99.657C230.726 99.2526 230.622 98.8481 230.57 98.4306C230.504 98.013 230.478 97.5955 230.465 97.178C230.452 96.7605 230.452 96.343 230.491 95.9254C230.517 95.5079 230.57 95.0904 230.648 94.6729Z" fill="#1B1A2E"/>
<path d="M252.417 123.287L251.948 122.308C251.869 122.138 251.778 121.982 251.739 121.799C251.687 121.616 251.687 121.434 251.713 121.251C251.739 121.068 251.817 120.886 251.922 120.742C252.026 120.586 252.143 120.455 252.248 120.299L252.9 119.424L254.204 117.689C254.648 117.115 255.078 116.541 255.522 115.967C255.091 116.554 254.674 117.141 254.243 117.728L252.952 119.477L252.3 120.351C252.196 120.494 252.078 120.638 251.974 120.781C251.869 120.925 251.804 121.095 251.778 121.277C251.752 121.447 251.752 121.629 251.791 121.812C251.83 121.982 251.922 122.151 252 122.308L252.417 123.287Z" fill="#A65B3C"/>
<path d="M246.183 125.948C246.678 125.726 247.161 125.504 247.657 125.296L249.143 124.656L249.887 124.343L250.252 124.187C250.37 124.134 250.5 124.082 250.63 124.043C250.891 123.965 251.165 123.952 251.439 124.004C251.713 124.043 251.948 124.174 252.196 124.278C251.948 124.187 251.7 124.069 251.426 124.03C251.165 123.991 250.891 124.017 250.643 124.082C250.513 124.121 250.396 124.174 250.265 124.226L249.9 124.382L249.157 124.695L247.67 125.322C247.187 125.544 246.691 125.739 246.183 125.948Z" fill="#A65B3C"/>
<path d="M240.065 125.674L240.561 125.348C240.73 125.23 240.9 125.152 241.095 125.087C241.474 124.956 241.891 124.956 242.269 125.048L244.578 125.557C246.117 125.896 247.656 126.248 249.182 126.6C247.643 126.287 246.104 125.948 244.565 125.609L242.256 125.1C241.878 125.009 241.474 125.009 241.108 125.126C240.73 125.243 240.417 125.478 240.065 125.674Z" fill="#A65B3C"/>
<path d="M233.687 124.826C234.222 124.891 234.757 124.944 235.291 125.009L236.883 125.218L238.474 125.439C239.009 125.518 239.53 125.596 240.065 125.674C239.53 125.609 238.996 125.557 238.461 125.492L236.87 125.283L235.278 125.061C234.744 124.983 234.222 124.904 233.687 124.826Z" fill="#A65B3C"/>
<path d="M260.661 122.843C260.269 122.765 259.878 122.713 259.487 122.674C259.095 122.635 258.704 122.608 258.3 122.608C257.504 122.582 256.722 122.608 255.926 122.687C255.143 122.752 254.361 122.882 253.578 123.039C253.187 123.117 252.808 123.209 252.417 123.313C252.326 123.339 252.235 123.378 252.169 123.457C252.104 123.522 252.065 123.626 252.065 123.718C252.052 123.913 252.104 124.109 252.195 124.292C252.104 124.109 252.039 123.913 252.052 123.718C252.052 123.613 252.091 123.522 252.156 123.444C252.222 123.365 252.313 123.313 252.417 123.287C252.795 123.183 253.187 123.078 253.565 123C253.956 122.909 254.348 122.843 254.739 122.778C255.13 122.713 255.522 122.661 255.926 122.635C256.722 122.569 257.517 122.53 258.3 122.569C259.095 122.582 259.891 122.661 260.661 122.843Z" fill="#A65B3C"/>
<path d="M252.208 124.278C252.561 124.461 252.9 124.657 253.226 124.879C253.552 125.1 253.865 125.335 254.178 125.583C254.478 125.831 254.778 126.105 255.052 126.392C255.326 126.679 255.574 126.992 255.795 127.305C255.665 127.149 255.548 126.992 255.417 126.849C255.352 126.77 255.287 126.705 255.222 126.627L255.013 126.418C254.739 126.144 254.452 125.87 254.139 125.622C253.839 125.374 253.526 125.139 253.2 124.905C253.043 124.787 252.874 124.683 252.717 124.578C252.535 124.487 252.378 124.383 252.208 124.278Z" fill="#A65B3C"/>
<path d="M240.691 125.805C240.861 125.818 241.031 125.857 241.2 125.922C241.357 125.987 241.513 126.092 241.644 126.209C241.774 126.327 241.878 126.483 241.931 126.64C241.97 126.718 241.983 126.809 242.009 126.888C242.022 126.979 242.022 127.057 242.035 127.149C241.996 126.979 241.97 126.809 241.891 126.666C241.852 126.588 241.813 126.522 241.761 126.444C241.709 126.379 241.657 126.314 241.591 126.261C241.474 126.144 241.331 126.053 241.174 125.974C241.031 125.896 240.861 125.844 240.691 125.805Z" fill="#A65B3C"/>
<path d="M232.891 136.23C233.843 136.308 234.795 136.386 235.748 136.478L237.182 136.608L238.604 136.752C239.556 136.843 240.508 136.961 241.461 136.987C242.413 137.013 243.378 136.974 244.33 136.882C244.8 136.83 245.282 136.778 245.752 136.7C246.222 136.621 246.691 136.53 247.161 136.426C248.1 136.23 249.013 135.943 249.926 135.682C250.852 135.421 251.765 135.173 252.691 134.912L255.456 134.155L252.704 134.951C251.791 135.212 250.865 135.486 249.939 135.734C249.013 135.982 248.1 136.269 247.161 136.465C246.222 136.673 245.282 136.817 244.317 136.895C243.365 136.987 242.4 137.013 241.448 136.987C240.495 136.974 239.543 136.856 238.591 136.778L237.156 136.647L235.735 136.504C234.795 136.439 233.843 136.347 232.891 136.23Z" fill="#A65B3C"/>
<path d="M220.904 119.124L220.722 117.363L220.552 115.602L220.2 112.066L219.887 108.543L219.717 106.768L219.574 105.007L219.756 106.768L219.926 108.53L220.265 112.066L220.591 115.588L220.748 117.363L220.904 119.124Z" fill="#A65B3C"/>
<path d="M225.535 101.367C225.535 101.249 225.535 101.145 225.548 101.028C225.548 100.91 225.574 100.793 225.613 100.688C225.691 100.467 225.835 100.271 226.03 100.14C226.122 100.075 226.226 100.023 226.33 99.9707C226.435 99.9185 226.526 99.8663 226.63 99.8141C226.826 99.7097 227.035 99.6054 227.243 99.501C227.048 99.6184 226.852 99.7358 226.656 99.8533C226.565 99.9185 226.461 99.9707 226.356 100.023C226.252 100.075 226.161 100.127 226.069 100.193C225.887 100.323 225.743 100.506 225.665 100.714C225.561 100.91 225.561 101.145 225.535 101.367Z" fill="#A65B3C"/>
<path d="M227.217 125.818C226.943 124.826 226.735 123.821 226.539 122.817L226.396 122.06L226.265 121.303C226.174 120.794 226.109 120.285 226.043 119.776C226.004 119.529 225.978 119.268 225.939 119.02L225.848 118.25L225.756 117.48L225.691 116.71L225.626 115.94C225.6 115.68 225.574 115.432 225.561 115.171L225.443 113.631L225.365 112.091L225.326 111.322L225.3 110.552L225.261 109.012V107.473V106.703C225.261 106.442 225.274 106.194 225.287 105.933L225.339 104.393C225.378 103.363 225.456 102.345 225.522 101.327L225.456 102.867L225.417 103.637L225.404 104.015L225.391 104.393L225.352 105.933L225.339 106.703V107.473V109.012L225.378 110.552L225.391 111.322L225.417 112.091L225.482 113.631C225.561 114.649 225.613 115.68 225.73 116.697L225.809 117.467L225.9 118.224L225.991 118.981C226.017 119.228 226.056 119.489 226.096 119.737L226.2 120.494L226.317 121.251L226.435 122.008L226.565 122.764C226.774 123.821 226.982 124.826 227.217 125.818Z" fill="#A65B3C"/>
<path d="M228.704 100.61C228.13 100.18 227.543 99.7491 226.969 99.3185L226.748 99.1619C226.669 99.1097 226.604 99.0314 226.565 98.9401C226.487 98.7705 226.487 98.5617 226.591 98.3921C226.643 98.3008 226.709 98.2486 226.774 98.1833L226.956 97.9876L227.335 97.5962L228.835 96.0435C229.343 95.5216 229.839 95.0128 230.348 94.5039C229.852 95.0258 229.356 95.5608 228.861 96.0827L227.361 97.6484L226.982 98.0398L226.8 98.2355C226.735 98.3008 226.669 98.366 226.63 98.4312C226.539 98.5748 226.539 98.7705 226.604 98.9271C226.669 99.0836 226.839 99.175 226.982 99.2924C227.569 99.723 228.13 100.167 228.704 100.61Z" fill="#A65B3C"/>
<path d="M235.865 173.181L235.252 171.707L234.652 170.232L233.452 167.284L232.278 164.335L231.691 162.847L231.117 161.373L231.717 162.834L232.317 164.309L233.517 167.258L234.691 170.219L235.278 171.694L235.865 173.181Z" fill="#89A2C3"/>
<path d="M229.252 156.845C228.835 156.663 228.535 156.297 228.326 155.893C228.117 155.488 227.987 155.058 227.883 154.627C227.687 153.753 227.622 152.853 227.596 151.952C227.583 151.052 227.622 150.152 227.687 149.265C227.752 148.364 227.857 147.477 228 146.59C227.935 147.033 227.883 147.477 227.844 147.921C227.791 148.364 227.752 148.808 227.726 149.265C227.661 150.152 227.635 151.052 227.648 151.952C227.661 152.853 227.726 153.74 227.909 154.614C228 155.045 228.131 155.488 228.339 155.88C228.548 156.284 228.848 156.65 229.252 156.845Z" fill="#89A2C3"/>
<path d="M230.23 155.019C230.191 154.327 230.165 153.649 230.139 152.957C230.126 152.266 230.113 151.587 230.113 150.896C230.113 150.204 230.126 149.525 230.139 148.834C230.152 148.142 230.191 147.464 230.23 146.772L230.191 148.834C230.178 149.525 230.178 150.204 230.178 150.896C230.178 151.587 230.178 152.266 230.178 152.957C230.191 153.636 230.204 154.327 230.23 155.019Z" fill="#89A2C3"/>
<path d="M224.674 163.669C225.391 163.76 226.096 163.904 226.787 164.073C227.478 164.243 228.169 164.465 228.848 164.7C229.526 164.935 230.191 165.222 230.83 165.548C231.483 165.861 232.083 166.239 232.683 166.644L232.226 166.357L231.991 166.213L231.756 166.083C231.6 165.991 231.443 165.9 231.287 165.822L230.804 165.587C230.152 165.274 229.5 164.987 228.822 164.752C228.143 164.504 227.465 164.295 226.774 164.113L226.252 163.982C226.083 163.943 225.9 163.904 225.73 163.865C225.391 163.786 225.039 163.721 224.674 163.669Z" fill="#89A2C3"/>
<path d="M226.591 227.498C226.435 227.72 226.252 227.903 226.056 228.085C225.861 228.255 225.652 228.424 225.43 228.568C224.987 228.855 224.491 229.064 223.982 229.207C223.852 229.246 223.722 229.259 223.591 229.299C223.526 229.312 223.461 229.325 223.396 229.338L223.2 229.364C223.069 229.377 222.939 229.403 222.809 229.403H222.417C222.352 229.403 222.287 229.403 222.222 229.403L222.026 229.39L221.635 229.351C221.374 229.312 221.113 229.259 220.852 229.207C221.113 229.246 221.374 229.286 221.635 229.312L222.026 229.338L222.222 229.351C222.287 229.351 222.352 229.351 222.417 229.351L222.809 229.338C222.939 229.338 223.069 229.312 223.2 229.299L223.396 229.273C223.461 229.259 223.526 229.246 223.591 229.233C223.722 229.207 223.852 229.181 223.969 229.142C224.478 229.012 224.961 228.79 225.404 228.516C225.848 228.255 226.265 227.916 226.591 227.498Z" fill="#89A2C3"/>
<path d="M217.774 218.978C218.048 218.587 218.322 218.195 218.57 217.791C218.83 217.386 219.078 216.982 219.313 216.564C219.796 215.742 220.239 214.894 220.657 214.033C220.878 213.603 221.061 213.172 221.257 212.728L221.53 212.063L221.674 211.737L221.804 211.397L222.052 210.732L222.274 210.054C222.313 209.936 222.352 209.832 222.391 209.714L222.496 209.375L222.704 208.684C222.457 209.61 222.196 210.523 221.844 211.424L221.713 211.763L221.583 212.089L221.309 212.754C221.113 213.185 220.93 213.629 220.709 214.059C220.291 214.92 219.835 215.768 219.339 216.577C218.87 217.412 218.348 218.208 217.774 218.978Z" fill="#89A2C3"/>
<path d="M246.978 220.191C247.578 219.748 248.165 219.265 248.726 218.769C249.287 218.273 249.835 217.765 250.369 217.23C250.643 216.969 250.891 216.695 251.152 216.421C251.4 216.147 251.661 215.873 251.908 215.586C252.026 215.442 252.156 215.299 252.274 215.155L252.626 214.711C252.743 214.568 252.861 214.424 252.978 214.268L253.317 213.824C252.887 214.437 252.43 215.038 251.935 215.612C251.7 215.899 251.439 216.173 251.191 216.46C250.93 216.734 250.682 217.008 250.408 217.269C249.874 217.804 249.326 218.313 248.752 218.808C248.178 219.291 247.591 219.761 246.978 220.191Z" fill="#89A2C3"/>
<path d="M246.509 223.988C246.091 223.897 245.687 223.714 245.335 223.479C244.983 223.245 244.657 222.944 244.396 222.592C244.33 222.514 244.278 222.41 244.213 222.318L244.122 222.188C244.096 222.136 244.07 222.096 244.044 222.044C243.991 221.953 243.952 221.848 243.9 221.757L243.796 221.457L243.744 221.3L243.704 221.144L243.626 220.831C243.587 220.622 243.574 220.4 243.548 220.191C243.587 220.4 243.613 220.622 243.665 220.831L243.744 221.144L243.783 221.3L243.835 221.444L243.952 221.744C243.991 221.835 244.044 221.94 244.096 222.031C244.122 222.083 244.148 222.122 244.174 222.175L244.265 222.305C244.33 222.396 244.37 222.488 244.448 222.566C244.696 222.918 245.022 223.205 245.361 223.453C245.713 223.688 246.104 223.884 246.509 223.988Z" fill="#89A2C3"/>
<path d="M246.404 205.226C246.078 204.534 245.752 203.843 245.439 203.151L244.487 201.077L243.548 198.989C243.235 198.297 242.922 197.593 242.622 196.901C242.948 197.593 243.274 198.284 243.587 198.976L244.539 201.051L245.478 203.138C245.791 203.83 246.104 204.534 246.404 205.226Z" fill="#89A2C3"/>
<path d="M241.37 142.624L243 142.402L244.63 142.18L247.904 141.736L251.178 141.319L252.809 141.097L254.452 140.901L252.822 141.136L251.178 141.358L247.917 141.802L244.644 142.219L243 142.428L241.37 142.624Z" fill="#A65B3C"/>
<path d="M254.452 140.901L254.622 142.154L254.713 142.78C254.739 142.989 254.778 143.198 254.791 143.407C254.804 143.615 254.765 143.837 254.713 144.033C254.661 144.242 254.569 144.437 254.465 144.62C254.361 144.803 254.217 144.959 254.048 145.103C253.891 145.246 253.709 145.364 253.513 145.442C253.422 145.481 253.317 145.507 253.213 145.546C253.109 145.572 253.004 145.585 252.9 145.599L252.274 145.677L251.022 145.846L248.504 146.186L245.987 146.512L244.735 146.668L244.109 146.747C244.004 146.76 243.9 146.773 243.796 146.773C243.691 146.773 243.587 146.773 243.482 146.76C243.274 146.734 243.065 146.668 242.869 146.577C242.674 146.486 242.504 146.368 242.348 146.212C242.191 146.068 242.061 145.899 241.956 145.716C241.852 145.533 241.774 145.338 241.722 145.129C241.669 144.92 241.656 144.711 241.63 144.503L241.552 143.876L241.396 142.624L241.565 143.876L241.656 144.503C241.682 144.711 241.709 144.92 241.761 145.129C241.813 145.338 241.891 145.533 241.996 145.716C242.1 145.899 242.23 146.055 242.387 146.212C242.53 146.355 242.713 146.473 242.896 146.564C243.078 146.655 243.287 146.721 243.496 146.747C243.6 146.76 243.704 146.76 243.809 146.76C243.913 146.747 244.017 146.747 244.122 146.734L244.748 146.655L246 146.486L248.517 146.147L251.035 145.82L252.287 145.664L252.913 145.585C253.017 145.572 253.122 145.559 253.226 145.533C253.33 145.507 253.435 145.481 253.526 145.442C253.722 145.364 253.904 145.259 254.061 145.116C254.217 144.972 254.361 144.816 254.465 144.646C254.569 144.463 254.661 144.281 254.713 144.072C254.765 143.863 254.791 143.654 254.791 143.446C254.778 143.237 254.752 143.028 254.726 142.819L254.648 142.193L254.452 140.901Z" fill="#A65B3C"/>
<path d="M249.587 110.043H241.917V110.982H249.587V110.043Z" fill="white"/>
<path d="M201.404 114.636H219.287C219.913 114.636 220.513 114.936 220.891 115.445L233.387 132.367C233.648 132.72 233.4 133.216 232.956 133.216H215.074C214.448 133.216 213.848 132.915 213.469 132.407L200.974 115.484C200.713 115.145 200.974 114.636 201.404 114.636Z" fill="#89A2C3"/>
<g opacity="0.4">
<path d="M233.4 132.367L227.739 124.709L226.226 122.647L220.904 115.445C220.526 114.936 219.939 114.636 219.3 114.636H201.417C201.156 114.636 200.961 114.805 200.896 115.027C200.987 114.949 201.104 114.91 201.235 114.91H219.117C219.743 114.91 220.343 115.21 220.722 115.719L226.278 123.247C226.656 125.4 228 125.583 228 125.583L233.217 132.641C233.322 132.785 233.348 132.955 233.309 133.098C233.517 132.929 233.582 132.615 233.4 132.367Z" fill="#89A2C3"/>
</g>
<g opacity="0.4">
<path d="M229.604 133.216H226.382C226.382 133.216 219.247 132.315 219.013 126.496L222.508 127.449L229.604 133.216Z" fill="#89A2C3"/>
</g>
<path d="M233.478 133.347L228.639 133.19C227.804 133.164 226.996 132.89 226.317 132.407L223.826 130.633L221.609 129.563C221.309 129.42 221.204 129.002 221.452 128.767C221.465 128.754 221.491 128.728 221.504 128.715L220.004 127.958C219.587 127.749 219.574 127.136 220.004 126.94C220.03 126.927 220.056 126.927 220.082 126.914L219.026 126.497C218.1 126.132 218.348 124.748 219.339 124.735C219.352 124.735 219.365 124.735 219.378 124.735L219.052 124.553C218.635 124.331 218.452 123.822 218.622 123.392C218.804 122.909 219.352 122.674 219.835 122.857L223.682 124.318L227.009 125.296L228.587 125.14C228.587 125.14 226.291 124.67 226.239 122.765C226.213 121.982 227.126 121.552 227.726 122.048L228.639 122.804L230.191 122.935C230.674 122.974 231.156 123.144 231.561 123.405L233.7 124.814C233.687 124.827 234.326 128.598 233.478 133.347Z" fill="#FFC89F"/>
<path d="M228.574 125.152C229.056 125.126 229.552 125.126 230.035 125.126C230.517 125.126 231.013 125.126 231.495 125.152C231.013 125.178 230.517 125.178 230.035 125.178C229.539 125.178 229.056 125.178 228.574 125.152Z" fill="#FF9A6C"/>
<path d="M219.365 124.748L221.23 125.544C221.857 125.805 222.47 126.079 223.096 126.327C223.722 126.588 224.348 126.81 224.987 127.031L226.891 127.723C226.252 127.514 225.613 127.305 224.974 127.084C224.335 126.862 223.696 126.64 223.083 126.379C221.817 125.87 220.591 125.322 219.365 124.748Z" fill="#FF9A6C"/>
<path d="M220.069 126.927C220.578 127.149 221.074 127.37 221.569 127.605C222.065 127.84 222.561 128.088 223.043 128.349C223.526 128.61 224.008 128.871 224.491 129.145C224.961 129.419 225.43 129.719 225.887 130.019C225.417 129.732 224.948 129.458 224.465 129.184C223.982 128.923 223.5 128.649 223.017 128.401C222.535 128.14 222.039 127.892 221.543 127.644C221.061 127.41 220.565 127.162 220.069 126.927Z" fill="#FF9A6C"/>
<path d="M221.504 128.715C221.935 128.898 222.365 129.08 222.783 129.289C223.2 129.498 223.617 129.72 224.022 129.941C224.426 130.176 224.83 130.411 225.222 130.659C225.613 130.907 225.991 131.181 226.37 131.455C226.174 131.324 225.978 131.194 225.783 131.076C225.587 130.946 225.391 130.829 225.196 130.698C224.804 130.45 224.4 130.215 223.996 129.994C223.591 129.759 223.187 129.537 222.77 129.328C222.339 129.132 221.922 128.924 221.504 128.715Z" fill="#FF9A6C"/>
<path d="M227.048 130.594C227.191 130.659 227.335 130.698 227.478 130.737C227.622 130.776 227.778 130.803 227.922 130.816C228.078 130.829 228.222 130.816 228.365 130.776C228.509 130.737 228.652 130.672 228.783 130.594C228.665 130.698 228.535 130.776 228.378 130.829C228.222 130.868 228.065 130.894 227.909 130.881C227.752 130.868 227.596 130.842 227.452 130.789C227.322 130.737 227.178 130.672 227.048 130.594Z" fill="#FF9A6C"/>
<path d="M226.93 131.872C227.021 131.976 227.126 132.081 227.23 132.159C227.335 132.25 227.452 132.329 227.569 132.381C227.7 132.433 227.83 132.459 227.961 132.459C228.104 132.446 228.221 132.381 228.339 132.316C228.235 132.407 228.104 132.485 227.961 132.511C227.817 132.537 227.661 132.498 227.53 132.446C227.4 132.381 227.282 132.303 227.178 132.198C227.087 132.107 226.995 132.003 226.93 131.872Z" fill="#FF9A6C"/>
<path d="M227.922 128.075C228.039 128.127 228.17 128.166 228.3 128.193C228.431 128.219 228.561 128.219 228.691 128.219C228.822 128.219 228.952 128.179 229.07 128.14C229.2 128.101 229.304 128.036 229.422 127.971C229.318 128.062 229.213 128.14 229.083 128.193C228.965 128.245 228.822 128.284 228.691 128.284C228.561 128.297 228.418 128.284 228.287 128.245C228.157 128.206 228.039 128.153 227.922 128.075Z" fill="#FF9A6C"/>
<path d="M208.318 114.088H212.557C212.739 114.088 212.909 114.179 213.013 114.323L213.861 115.471C213.939 115.588 213.861 115.745 213.718 115.745H209.478C209.296 115.745 209.126 115.654 209.022 115.51L208.174 114.362C208.096 114.244 208.174 114.088 208.318 114.088Z" fill="#F9A21B"/>
<path d="M262.8 245.687H37.3955V246.078H262.8V245.687Z" fill="#1B1A2E"/>
<path d="M213.731 76.9672C215.426 74.5273 218.765 73.9271 221.205 75.6103C223.044 76.889 223.839 79.094 223.396 81.1555L225.365 82.5777L222.561 83.0866C220.865 85.5265 217.526 86.1267 215.087 84.4435C212.648 82.7604 212.048 79.4071 213.731 76.9672Z" fill="white"/>
<path d="M225.365 82.5915C225.209 82.461 225.052 82.3436 224.883 82.2131C224.726 82.0957 224.557 81.9652 224.387 81.8478C224.218 81.7303 224.061 81.6129 223.892 81.4955C223.722 81.3781 223.552 81.2606 223.383 81.1562C223.539 81.2867 223.696 81.4042 223.865 81.5346C224.022 81.6521 224.192 81.7825 224.348 81.9C224.518 82.0174 224.674 82.1348 224.844 82.2523C225.026 82.3566 225.196 82.4741 225.365 82.5915Z" fill="#1B1A2E"/>
<path d="M222.561 83.1003C222.796 83.0612 223.031 83.0351 223.265 82.9959C223.5 82.9568 223.735 82.9176 223.97 82.8785C224.205 82.8394 224.439 82.7872 224.674 82.748C224.909 82.7089 225.144 82.6567 225.378 82.6045C225.144 82.6436 224.909 82.6697 224.674 82.7089C224.439 82.748 224.205 82.7872 223.97 82.8263C223.735 82.8654 223.5 82.9176 223.265 82.9568C223.018 82.9959 222.796 83.0481 222.561 83.1003Z" fill="#1B1A2E"/>
<path d="M223.396 81.156C223.461 80.8298 223.5 80.5036 223.513 80.1774C223.526 79.8512 223.5 79.512 223.448 79.1858C223.344 78.5334 223.122 77.8941 222.796 77.32C222.47 76.7459 222.026 76.237 221.517 75.8195C220.996 75.402 220.409 75.0758 219.783 74.8801C219.47 74.7757 219.144 74.7105 218.817 74.6583C218.491 74.6191 218.152 74.6061 217.826 74.6192C217.161 74.6583 216.509 74.8149 215.909 75.0889C215.309 75.3629 214.748 75.7412 214.291 76.224C214.057 76.4589 213.848 76.7198 213.665 76.9938C213.483 77.2678 213.313 77.5549 213.183 77.868C212.922 78.4812 212.765 79.1336 212.739 79.799C212.713 80.4645 212.804 81.1299 213.026 81.7562C213.235 82.3825 213.574 82.9696 213.991 83.4785C214.422 83.9873 214.931 84.4179 215.517 84.7311C216.091 85.0572 216.73 85.266 217.396 85.3573C218.048 85.4487 218.726 85.4095 219.365 85.266C220.004 85.1094 220.617 84.8354 221.165 84.4701C221.713 84.0917 222.183 83.622 222.561 83.074C222.183 83.609 221.7 84.0787 221.165 84.444C220.617 84.8093 220.004 85.0703 219.365 85.2269C218.726 85.3704 218.061 85.3965 217.409 85.3051C216.757 85.2138 216.13 85.0051 215.557 84.6789C215.27 84.5223 214.996 84.3266 214.748 84.1178C214.5 83.9091 214.265 83.6742 214.057 83.4263C213.639 82.9174 213.313 82.3433 213.104 81.7171C212.896 81.0908 212.804 80.4384 212.83 79.786C212.857 79.1336 213 78.4812 213.261 77.8811C213.391 77.581 213.548 77.2939 213.73 77.0199C213.913 76.7459 214.122 76.498 214.344 76.2631C214.8 75.7934 215.348 75.4151 215.948 75.1411C216.548 74.8671 217.187 74.7105 217.839 74.6713C218.491 74.6322 219.157 74.7105 219.783 74.9062C220.409 75.1019 220.996 75.4281 221.504 75.8326C222.013 76.2371 222.457 76.7459 222.783 77.32C223.109 77.881 223.344 78.5204 223.448 79.1597C223.5 79.4859 223.526 79.8121 223.513 80.1383C223.5 80.5036 223.461 80.8298 223.396 81.156Z" fill="#1B1A2E"/>
<path d="M217.592 81.4823L216.3 80.1906L216.692 79.7992L217.592 80.6864L219.613 78.6641L220.005 79.0555L217.592 81.4823Z" fill="#89A2C3"/>
</g>
<defs>
<clipPath id="clip0_9130_68500">
<rect width="300" height="274" fill="white"/>
</clipPath>
</defs>
</svg>
