<svg width="1000" height="570" viewBox="0 0 1000 570" fill="none" xmlns="http://www.w3.org/2000/svg">
<g clip-path="url(#clip0_9231_8987)">
<path opacity="0.15" d="M737.922 567C737.922 568.657 602.457 570 435.336 570C341.05 570 256.824 569.569 201.329 568.898C188.549 568.74 177.288 568.575 167.792 568.401C161.525 568.285 156.025 568.16 151.35 568.036C139.321 567.713 132.75 567.365 132.75 567C132.75 566.536 143.418 566.097 162.451 565.699C170.253 565.541 179.444 565.384 189.895 565.243C244.854 564.489 334.32 564 435.336 564C524.194 564 604.122 564.381 659.471 564.986C708.221 565.517 737.922 566.221 737.922 567Z" fill="#040C2B"/>
<path d="M882.161 304.6C772.34 310.3 987.947 140.5 813.08 47.8002C749.412 14.1002 708.672 60.4002 550.14 129.8C391.608 199.2 272.34 -42.3998 90.7811 194.7C-36.064 360.4 79.8581 497.7 161.24 565.3H760.433C850.179 526.2 910.797 516.3 938.252 448.4C991.392 317.5 959.41 300.6 882.161 304.6Z" fill="#525866" fill-opacity="0.06"/>
<path d="M94.4222 560.8C107.683 560.8 118.433 552.876 118.433 543.1C118.433 533.325 107.683 525.4 94.4222 525.4C81.1612 525.4 70.4111 533.325 70.4111 543.1C70.4111 552.876 81.1612 560.8 94.4222 560.8Z" fill="#E1F2FB"/>
<path d="M915.816 523.501C919.162 532.701 905.09 546.401 884.326 554.201C863.562 562.001 844.078 560.901 840.732 551.701C837.386 542.501 851.458 528.801 872.222 521.001C892.986 513.201 912.568 514.301 915.816 523.501Z" fill="#E1F2FB"/>
<path d="M894.086 287.63C905.2 278.853 909.425 265.48 903.523 257.762C897.62 250.043 883.825 250.901 872.711 259.678C861.596 268.455 857.371 281.828 863.274 289.546C869.176 297.265 882.971 296.407 894.086 287.63Z" fill="#E1F2FB"/>
<path d="M770.077 24.3001C764.566 32.3001 755.414 35.5001 749.707 31.4001C743.901 27.3001 743.704 17.5001 749.215 9.50013C754.725 1.50013 763.877 -1.69987 769.585 2.40013C775.39 6.50013 775.587 16.3001 770.077 24.3001Z" fill="#E1F2FB"/>
<path d="M107.274 139.222C122.164 122.674 128.479 103.912 121.38 97.3152C114.281 90.7188 96.4553 98.7861 81.5656 115.334C66.6759 131.882 60.3606 150.644 67.4598 157.241C74.5591 163.837 92.3847 155.77 107.274 139.222Z" fill="#E1F2FB"/>
<path opacity="0.39" d="M467.479 200.099C465.412 203.699 459.606 204.199 454.391 201.099C449.175 198.099 446.616 192.699 448.683 189.099C450.75 185.499 456.555 184.999 461.771 188.099C466.986 191.099 469.447 196.499 467.479 200.099Z" fill="#CEDFFD"/>
<path opacity="0.39" d="M114.89 382.301C112.529 386.501 105.739 387.001 99.7358 383.501C93.7331 380.001 90.7809 373.701 93.1426 369.601C95.5044 365.401 102.294 364.901 108.297 368.401C114.3 371.901 117.252 378.201 114.89 382.301Z" fill="#CEDFFD"/>
<path opacity="0.39" d="M824.396 392.699C821.739 397.399 814.064 397.999 807.274 393.999C800.484 389.999 797.138 382.999 799.893 378.299C802.55 373.599 810.226 372.999 817.016 376.999C823.707 380.899 827.053 387.999 824.396 392.699Z" fill="#CEDFFD"/>
<path opacity="0.39" d="M813.08 164.798C811.112 168.298 805.502 168.698 800.484 165.798C795.465 162.898 793.005 157.698 794.973 154.198C796.941 150.698 802.55 150.298 807.569 153.198C812.588 156.098 815.048 161.298 813.08 164.798Z" fill="#CEDFFD"/>
<path opacity="0.39" d="M701.98 342.2C699.717 346.2 694.599 347.6 690.663 345.3C686.727 343 685.349 337.8 687.613 333.8C689.876 329.8 694.993 328.4 698.929 330.7C702.866 333.1 704.243 338.2 701.98 342.2Z" fill="#CEDFFD"/>
<path opacity="0.39" d="M830.99 339.699C827.546 345.699 820.067 347.699 814.163 344.299C808.258 340.799 806.29 333.199 809.636 327.199C813.08 321.199 820.559 319.199 826.463 322.599C832.368 326.099 834.336 333.699 830.99 339.699Z" fill="#CEDFFD"/>
<path opacity="0.39" d="M636.244 155.898C633.686 160.398 628.077 161.898 623.648 159.298C619.22 156.698 617.744 150.998 620.303 146.498C622.861 141.998 628.47 140.498 632.899 143.098C637.228 145.698 638.803 151.398 636.244 155.898Z" fill="#CEDFFD"/>
<path opacity="0.39" d="M603.672 428.699C598.85 437.199 588.222 440.099 579.858 435.199C571.493 430.299 568.64 419.499 573.462 410.999C578.283 402.499 588.911 399.599 597.276 404.499C605.64 409.499 608.494 420.299 603.672 428.699Z" fill="#CEDFFD"/>
<path opacity="0.39" d="M824.31 490.199C832.67 485.364 835.591 474.558 830.833 466.062C826.075 457.566 815.441 454.598 807.08 459.433C798.72 464.268 795.799 475.075 800.557 483.571C805.315 492.066 815.95 495.034 824.31 490.199Z" fill="#CEDFFD"/>
<path opacity="0.39" d="M287.789 389.101C285.723 392.701 281.196 394.001 277.653 391.901C274.111 389.801 272.832 385.201 274.898 381.601C276.965 378.001 281.491 376.701 285.034 378.801C288.577 380.901 289.856 385.401 287.789 389.101Z" fill="#CEDFFD"/>
<path opacity="0.39" d="M301.057 212.256C310.651 211.55 317.866 203.074 317.171 193.324C316.476 183.574 308.135 176.242 298.541 176.948C288.946 177.654 281.731 186.131 282.426 195.881C283.121 205.631 291.462 212.962 301.057 212.256Z" fill="#CEDFFD"/>
<path opacity="0.39" d="M223.303 136.591C227.274 130.99 226.024 123.177 220.512 119.142C214.999 115.107 207.312 116.377 203.341 121.979C199.37 127.58 200.62 135.392 206.132 139.427C211.644 143.462 219.332 142.193 223.303 136.591Z" fill="#CEDFFD"/>
<path opacity="0.39" d="M63.7193 450.699C61.7512 454.199 56.9293 455.099 52.8947 452.799C48.9585 450.499 47.2856 445.699 49.2537 442.299C51.2218 438.799 56.0437 437.899 60.0783 440.199C64.0146 442.499 65.6875 447.299 63.7193 450.699Z" fill="#CEDFFD"/>
<path opacity="0.39" d="M154.942 345.699C152.973 349.199 148.152 350.099 144.117 347.799C140.181 345.499 138.508 340.699 140.476 337.299C142.444 333.799 147.266 332.899 151.3 335.199C155.237 337.499 156.91 342.199 154.942 345.699Z" fill="#CEDFFD"/>
<path opacity="0.39" d="M321.641 453.3C319.673 456.8 314.851 457.7 310.816 455.4C306.88 453.1 305.207 448.3 307.175 444.9C309.143 441.4 313.965 440.5 318 442.8C322.034 445.1 323.609 449.8 321.641 453.3Z" fill="#CEDFFD"/>
<path opacity="0.39" d="M378.618 256.8C376.65 260.3 371.828 261.2 367.793 258.9C363.857 256.6 362.184 251.8 364.152 248.4C366.12 244.9 370.942 244 374.977 246.3C379.011 248.6 380.586 253.3 378.618 256.8Z" fill="#CEDFFD"/>
<path opacity="0.39" d="M554.568 207.699C553.485 209.699 550.73 210.199 548.467 208.899C546.203 207.599 545.318 204.899 546.4 202.899C547.483 200.899 550.238 200.399 552.501 201.699C554.765 203.099 555.65 205.699 554.568 207.699Z" fill="#CEDFFD"/>
<path opacity="0.39" d="M365.333 131.5C363.365 135 358.543 135.9 354.508 133.6C350.572 131.3 348.899 126.5 350.867 123.1C352.836 119.6 357.657 118.7 361.692 121C365.727 123.3 367.301 128 365.333 131.5Z" fill="#CEDFFD"/>
<path opacity="0.39" d="M749.903 88.4997C747.935 91.9997 743.113 92.8997 739.079 90.5997C735.143 88.2997 733.47 83.4997 735.438 80.0997C737.406 76.5997 742.228 75.6997 746.262 77.9997C750.297 80.2997 751.872 84.9997 749.903 88.4997Z" fill="#CEDFFD"/>
<path opacity="0.39" d="M629.553 380.199C627.585 383.699 622.763 384.599 618.729 382.299C614.792 379.999 613.12 375.199 615.088 371.799C617.056 368.299 621.878 367.399 625.912 369.699C629.849 371.999 631.521 376.699 629.553 380.199Z" fill="#CEDFFD"/>
<path opacity="0.39" d="M847.522 435.8C845.554 439.3 840.732 440.2 836.697 437.9C832.761 435.6 831.088 430.8 833.056 427.4C835.025 423.9 839.846 423 843.881 425.3C847.916 427.6 849.49 432.3 847.522 435.8Z" fill="#CEDFFD"/>
<g opacity="0.39">
<path d="M478.599 409.902L477.713 398.202C477.713 397.602 478.107 397.002 478.796 397.002C479.386 397.002 479.977 397.402 479.977 398.102L480.862 409.802C480.862 410.402 480.469 411.002 479.78 411.002C479.189 411.002 478.697 410.502 478.599 409.902Z" fill="#49505C"/>
<path d="M485.094 404.702L473.58 405.602C472.99 405.602 472.399 405.202 472.399 404.502C472.399 403.902 472.793 403.302 473.482 403.302L484.995 402.402C485.586 402.402 486.176 402.802 486.176 403.502C486.176 404.102 485.684 404.602 485.094 404.702Z" fill="#49505C"/>
<path d="M209.262 378.903L198.536 374.703C197.945 374.503 197.65 373.803 197.847 373.203C198.044 372.603 198.733 372.303 199.323 372.503L210.049 376.703C210.64 376.903 210.935 377.603 210.738 378.203C210.443 378.903 209.852 379.103 209.262 378.903Z" fill="#49505C"/>
<path d="M207.491 370.702L203.357 381.602C203.161 382.202 202.472 382.502 201.881 382.302C201.291 382.102 200.996 381.402 201.193 380.802L205.326 369.902C205.522 369.302 206.211 369.002 206.802 369.202C207.392 369.402 207.687 370.102 207.491 370.702Z" fill="#49505C"/>
<path d="M441.5 272.502L432.446 279.702C431.954 280.102 431.265 280.002 430.872 279.502C430.478 279.002 430.577 278.302 431.069 277.902L440.122 270.702C440.614 270.302 441.303 270.402 441.696 270.902C442.09 271.402 441.992 272.102 441.5 272.502Z" fill="#49505C"/>
<path d="M433.627 269.902L440.712 279.102C441.106 279.602 441.007 280.302 440.515 280.702C440.023 281.102 439.335 281.002 438.941 280.502L431.856 271.302C431.462 270.802 431.56 270.102 432.052 269.702C432.545 269.302 433.233 269.402 433.627 269.902Z" fill="#49505C"/>
<path d="M529.081 228.103L517.666 229.203C517.075 229.303 516.485 228.803 516.485 228.203C516.386 227.603 516.878 227.003 517.469 227.003L528.884 225.903C529.474 225.803 530.065 226.303 530.065 226.903C530.163 227.503 529.671 228.103 529.081 228.103Z" fill="#49505C"/>
<path d="M523.866 221.603L524.948 233.203C525.046 233.803 524.554 234.403 523.964 234.403C523.373 234.503 522.783 234.003 522.783 233.403L521.701 221.803C521.602 221.203 522.094 220.603 522.685 220.603C523.275 220.503 523.767 221.003 523.866 221.603Z" fill="#49505C"/>
<path d="M713.591 415.601L702.176 416.701C701.585 416.801 700.995 416.301 700.995 415.701C700.897 415.101 701.389 414.501 701.979 414.501L713.394 413.401C713.985 413.301 714.575 413.801 714.575 414.401C714.673 415.001 714.181 415.501 713.591 415.601Z" fill="#49505C"/>
<path d="M708.277 409.101L709.36 420.701C709.458 421.301 708.966 421.901 708.376 421.901C707.785 422.001 707.195 421.501 707.195 420.901L706.112 409.301C706.014 408.701 706.506 408.101 707.096 408.101C707.687 408.001 708.277 408.401 708.277 409.101Z" fill="#49505C"/>
<path d="M703.554 86.6015L694.501 93.8015C694.009 94.2015 693.32 94.1015 692.926 93.6015C692.533 93.1015 692.631 92.4015 693.123 92.0015L702.177 84.8015C702.669 84.4015 703.357 84.5015 703.751 85.0015C704.145 85.5015 704.046 86.2015 703.554 86.6015Z" fill="#49505C"/>
<path d="M695.682 84.0015L702.767 93.2015C703.161 93.7015 703.062 94.4015 702.57 94.8015C702.078 95.2015 701.389 95.1015 700.996 94.6015L693.91 85.4015C693.517 84.9015 693.615 84.2015 694.107 83.8015C694.599 83.4015 695.288 83.5015 695.682 84.0015Z" fill="#49505C"/>
<path d="M170.687 189.701L161.633 196.901C161.141 197.301 160.452 197.201 160.059 196.701C159.665 196.201 159.764 195.501 160.256 195.101L169.309 187.901C169.801 187.501 170.49 187.601 170.883 188.101C171.277 188.601 171.179 189.301 170.687 189.701Z" fill="#49505C"/>
<path d="M162.814 187.002L169.899 196.202C170.293 196.702 170.194 197.402 169.702 197.802C169.21 198.202 168.522 198.102 168.128 197.602L161.043 188.401C160.649 187.901 160.747 187.202 161.239 186.802C161.732 186.402 162.42 186.502 162.814 187.002Z" fill="#49505C"/>
</g>
<path d="M144.944 477.226V434.301H39.7972C26.5354 434.301 16.5772 430.989 9.94634 424.379C3.31545 417.77 0 408.769 0 397.376C0 394.45 0.485479 391.495 1.46827 388.494C2.43922 385.494 3.90749 382.345 5.86124 379.033C7.81498 375.721 9.83978 372.528 11.9356 369.453C14.0314 366.378 16.6128 362.606 19.6914 358.15L130.7 194.53C137.958 183.762 143.926 175.949 148.603 171.107C153.28 166.265 158.905 163.844 165.464 163.844C186.683 163.844 197.305 177.226 197.305 204.006V382.628H206.315C217.067 382.628 225.687 384.246 232.188 387.47C238.677 390.708 241.933 397.778 241.933 408.694C241.933 417.621 239.281 424.127 233.976 428.196C228.671 432.281 220.702 434.316 210.093 434.316H197.316V477.241C197.316 489.093 194.936 497.901 190.2 503.664C185.452 509.427 179.093 512.323 171.136 512.323C163.309 512.323 156.998 509.353 152.179 503.441C147.348 497.485 144.944 488.752 144.944 477.226ZM54.8706 382.598H144.932V248.52L54.8706 382.598Z" fill="#89A2C3"/>
<path d="M178.855 343.428C175.291 343.428 172.402 339.804 172.402 335.333V196.31C172.402 191.839 175.291 188.215 178.855 188.215C182.419 188.215 185.308 191.839 185.308 196.31V335.333C185.308 339.804 182.419 343.428 178.855 343.428Z" fill="#FDFBFD"/>
<path d="M178.856 392.739C175.292 392.739 172.402 389.115 172.402 384.644V359.097C172.402 354.626 175.292 351.002 178.856 351.002C182.42 351.002 185.309 354.626 185.309 359.097V384.644C185.309 389.115 182.42 392.739 178.856 392.739Z" fill="#FDFBFD"/>
<path d="M903.012 479.007V436.082H797.865C784.603 436.082 774.645 432.77 768.014 426.16C761.383 419.551 758.067 410.55 758.067 399.158C758.067 396.232 758.553 393.276 759.536 390.276C760.507 387.275 761.975 384.127 763.929 380.814C765.882 377.502 767.907 374.309 770.003 371.234C772.099 368.16 774.68 364.387 777.759 359.931L888.767 196.311C896.025 185.543 901.993 177.73 906.67 172.888C911.348 168.046 916.972 165.625 923.532 165.625C944.751 165.625 955.372 179.007 955.372 205.787V384.409H964.383C975.134 384.409 983.755 386.028 990.255 389.251C996.744 392.489 1000 399.559 1000 410.476C1000 419.402 997.348 425.908 992.043 429.978C986.738 434.062 978.77 436.097 968.16 436.097H955.384V479.022C955.384 490.875 953.004 499.682 948.267 505.445C943.519 511.208 937.161 514.105 929.204 514.105C921.377 514.105 915.066 511.134 910.246 505.223C905.427 499.267 903.012 490.533 903.012 479.007ZM812.95 384.379H903.012V250.302L812.95 384.379Z" fill="#89A2C3"/>
<path d="M940.061 343.428C936.497 343.428 933.608 339.804 933.608 335.333V196.31C933.608 191.839 936.497 188.215 940.061 188.215C943.625 188.215 946.514 191.839 946.514 196.31V335.333C946.514 339.804 943.625 343.428 940.061 343.428Z" fill="#FDFBFD"/>
<path d="M940.061 392.739C936.497 392.739 933.608 389.115 933.608 384.644V359.097C933.608 354.626 936.497 351.002 940.061 351.002C943.625 351.002 946.514 354.626 946.514 359.097V384.644C946.514 389.115 943.625 392.739 940.061 392.739Z" fill="#FDFBFD"/>
<path d="M679.459 367.678C677.89 377.312 675.872 385.945 673.63 393.703C661.298 436.242 640.895 453.133 634.056 462.392C625.648 473.777 561.635 524.575 441.794 505.932C393.7 498.425 362.647 473.652 342.692 446.502C319.934 415.598 311.75 381.942 309.06 367.678C308.387 364.05 310.854 360.672 314.105 360.672H674.302C677.665 360.797 680.02 364.175 679.459 367.678Z" fill="#CA7D36" stroke="#381D2A" stroke-miterlimit="10" stroke-linecap="round" stroke-linejoin="round"/>
<path d="M673.629 393.703C661.298 436.243 640.894 453.134 634.056 462.392C625.648 473.778 561.635 524.575 441.793 505.933C393.7 498.426 362.646 473.653 342.691 446.502C344.261 447.628 345.83 448.88 347.4 450.006C405.135 491.544 479.125 503.681 545.268 482.536C577.778 472.151 608.271 454.135 635.513 431.614C649.19 420.353 662.194 407.841 673.629 393.703Z" fill="url(#paint0_linear_9231_8987)"/>
<path d="M549.146 545.962C522.446 569.883 479.477 571.318 452.404 548.235C449.796 545.962 447.437 543.57 445.326 541.058C425.456 517.018 427.815 479.581 453.149 453.508C481.216 424.563 525.799 424.683 551.506 452.79C560.82 462.837 566.532 474.678 568.892 486.758C572.866 508.167 566.16 530.653 549.146 545.962Z" fill="#384459" stroke="#381D2A" stroke-miterlimit="10" stroke-linecap="round" stroke-linejoin="round"/>
<path d="M549.146 545.962C522.446 569.883 479.477 571.318 452.404 548.235C449.796 545.962 447.437 543.57 445.326 541.058C446.568 541.776 447.809 542.494 449.051 543.211C455.509 546.68 462.464 549.311 469.666 550.866C492.144 555.77 516.485 550.986 536.355 539.623C544.427 534.959 552.003 529.218 557.218 521.682C562.434 514.267 565.042 505.416 567.029 496.685C567.774 493.336 568.395 489.987 569.016 486.758C572.866 508.167 566.16 530.653 549.146 545.962Z" fill="#7389AE"/>
<path d="M529.153 526.705C513.505 540.699 488.42 541.536 472.524 528.021C470.412 526.227 468.55 524.313 467.059 522.16C456.876 508.047 458.739 487.236 472.896 472.524C487.302 457.694 509.283 455.899 524.558 466.903C526.669 468.458 528.656 470.132 530.395 472.166C545.67 488.552 544.801 512.712 529.153 526.705Z" fill="#7389AE" stroke="#381D2A" stroke-miterlimit="10" stroke-linecap="round" stroke-linejoin="round"/>
<path d="M510.648 490.706C515.616 496.089 515.243 503.863 510.152 508.528C505.06 513.073 496.864 513.312 491.772 509.006C486.556 504.581 486.556 496.447 491.896 490.946C497.236 485.324 505.805 485.324 510.648 490.706Z" fill="#7389AE" stroke="#F9EEEA" stroke-miterlimit="10"/>
<path d="M524.682 466.903C507.793 463.913 489.165 469.056 477.74 481.375C470.661 489.03 466.811 499.077 466.438 509.243C466.314 511.276 467.308 517.017 467.059 522.16C456.876 508.047 458.739 487.236 472.896 472.524C487.426 457.694 509.407 455.899 524.682 466.903Z" fill="#7389AE"/>
<path d="M715.445 385.446C714.549 387.323 712.419 388.198 710.513 388.574C688.316 393.078 666.791 369.306 645.043 375.812C639.662 377.438 634.841 380.817 629.46 382.943C619.37 386.947 607.711 385.821 598.406 380.066C595.155 378.064 592.129 375.436 588.429 374.811C581.478 373.685 575.537 379.941 569.595 384.07C560.066 390.701 547.847 392.452 537.196 388.574C528.004 385.321 519.596 378.064 509.955 378.69C503.789 379.065 498.183 382.693 492.69 385.946C478.789 394.454 461.525 401.961 447.848 393.078C443.7 390.451 440.337 386.447 436.077 384.07C424.866 377.689 411.413 384.07 399.978 389.95C388.543 395.831 374.418 400.96 363.992 392.953C359.844 389.7 356.929 384.695 352.445 382.068C347.513 379.065 341.459 379.315 335.966 380.566C315.786 384.695 297.177 398.333 276.661 397.207C275.428 397.207 274.195 396.957 273.298 396.081C270.159 393.078 276.325 383.944 282.827 376.437C287.199 371.433 291.684 367.054 293.589 365.677C304.8 357.42 324.082 360.923 336.862 360.673C395.158 359.922 453.453 359.171 511.748 358.296C545.156 357.795 578.564 357.42 611.971 357.795C637.195 358.045 662.643 358.796 687.419 363.801C693.361 365.052 699.526 366.678 704.795 369.806C708.383 371.933 711.634 374.686 713.988 378.564C715.446 380.441 716.454 383.194 715.445 385.446Z" fill="#A6D636" stroke="#381D2A" stroke-miterlimit="10" stroke-linecap="round" stroke-linejoin="round"/>
<path d="M705.02 369.683C652.666 368.557 597.061 367.181 585.066 366.305C565.447 364.929 355.696 373.312 283.164 376.314C287.536 371.31 292.02 366.931 293.926 365.554C305.136 357.297 324.419 360.8 337.199 360.55C395.494 359.799 453.789 359.048 512.085 358.172C545.492 357.672 578.9 357.297 612.308 357.672C637.532 357.922 662.98 358.673 687.755 363.678C693.473 364.929 699.751 366.68 705.02 369.683Z" fill="url(#paint1_linear_9231_8987)"/>
<path d="M286.863 390.203C295.607 380.069 306.257 371.936 318.028 366.807" stroke="#381D2A" stroke-miterlimit="10" stroke-linecap="round" stroke-linejoin="round"/>
<path d="M382.491 364.93C382.491 373.187 382.378 381.57 382.378 389.828" stroke="#381D2A" stroke-miterlimit="10" stroke-linecap="round" stroke-linejoin="round"/>
<path d="M464.215 362.801C464.44 372.185 464.776 381.443 465 390.827" stroke="#381D2A" stroke-miterlimit="10" stroke-linecap="round" stroke-linejoin="round"/>
<path d="M548.182 359.801C550.648 367.683 551.77 376.191 551.321 384.574" stroke="#381D2A" stroke-miterlimit="10" stroke-linecap="round" stroke-linejoin="round"/>
<path d="M613.653 360.674C614.774 367.305 616.007 373.811 617.128 380.442" stroke="#381D2A" stroke-miterlimit="10" stroke-linecap="round" stroke-linejoin="round"/>
<path d="M673.854 363.053C683.607 367.932 692.352 375.189 699.526 384.197" stroke="#381D2A" stroke-miterlimit="10" stroke-linecap="round" stroke-linejoin="round"/>
<path d="M329.576 306.122L326.774 310.376L293.59 284.977L290.675 282.85L288.209 280.973L292.917 273.842L300.429 280.473L303.68 283.351L329.576 306.122Z" fill="#6B2B06" stroke="#381D2A" stroke-miterlimit="10" stroke-linecap="round" stroke-linejoin="round"/>
<path d="M303.679 283.35L293.59 284.977L290.675 282.85L300.428 280.473L303.679 283.35Z" fill="url(#paint2_linear_9231_8987)"/>
<path d="M325.652 261.205V274.342L245.832 293.485L244.039 287.229L242.357 281.474L325.652 261.205Z" fill="#ECA25C" stroke="#381D2A" stroke-miterlimit="10" stroke-linecap="round" stroke-linejoin="round"/>
<path d="M325.652 261.205V274.342L245.832 293.485L244.039 287.229C253.007 285.978 263.433 284.227 273.747 282.1C300.54 276.845 324.867 261.706 325.652 261.205Z" fill="url(#paint3_linear_9231_8987)"/>
<path d="M658.944 306.122L661.747 310.376L694.93 284.977L697.845 282.85L700.312 280.973L695.603 273.842L688.092 280.473L684.841 283.351L658.944 306.122Z" fill="#6B2B06" stroke="#381D2A" stroke-miterlimit="10" stroke-linecap="round" stroke-linejoin="round"/>
<path d="M684.84 283.35L694.93 284.977L697.845 282.85L688.091 280.473L684.84 283.35Z" fill="url(#paint4_linear_9231_8987)"/>
<path d="M662.868 261.205V274.342L742.687 293.485L744.481 287.229L746.163 281.474L662.868 261.205Z" fill="#ECA25C" stroke="#381D2A" stroke-miterlimit="10" stroke-linecap="round" stroke-linejoin="round"/>
<path d="M662.868 261.205V274.342L742.687 293.485L744.481 287.229C735.513 285.978 725.087 284.227 714.773 282.1C687.98 276.845 663.652 261.706 662.868 261.205Z" fill="url(#paint5_linear_9231_8987)"/>
<path d="M662.98 261.205H325.652V366.053H662.98V261.205Z" fill="#6B2B06" stroke="#381D2A" stroke-miterlimit="10" stroke-linecap="round" stroke-linejoin="round"/>
<path d="M332.603 270.84V356.545" stroke="#381D2A" stroke-miterlimit="10" stroke-linecap="round" stroke-linejoin="round"/>
<path d="M344.709 270.84V356.545" stroke="#381D2A" stroke-miterlimit="10" stroke-linecap="round" stroke-linejoin="round"/>
<path d="M356.705 270.84V356.545" stroke="#381D2A" stroke-miterlimit="10" stroke-linecap="round" stroke-linejoin="round"/>
<path d="M368.812 270.84V356.545" stroke="#381D2A" stroke-miterlimit="10" stroke-linecap="round" stroke-linejoin="round"/>
<path d="M620.603 270.84V356.545" stroke="#381D2A" stroke-miterlimit="10" stroke-linecap="round" stroke-linejoin="round"/>
<path d="M632.711 270.84V356.545" stroke="#381D2A" stroke-miterlimit="10" stroke-linecap="round" stroke-linejoin="round"/>
<path d="M644.817 270.84V356.545" stroke="#381D2A" stroke-miterlimit="10" stroke-linecap="round" stroke-linejoin="round"/>
<path d="M656.812 270.84V356.545" stroke="#381D2A" stroke-miterlimit="10" stroke-linecap="round" stroke-linejoin="round"/>
<path d="M613.316 261.205H381.816V355.168H613.316V261.205Z" fill="#381D2A"/>
<mask id="mask0_9231_8987" style="mask-type:luminance" maskUnits="userSpaceOnUse" x="381" y="261" width="233" height="95">
<path d="M613.316 261.205H381.816V355.168H613.316V261.205Z" fill="white"/>
</mask>
<g mask="url(#mask0_9231_8987)">
<path d="M381.816 266.336H438.766V355.169H381.816" stroke="url(#paint6_linear_9231_8987)" stroke-miterlimit="10"/>
</g>
<mask id="mask1_9231_8987" style="mask-type:luminance" maskUnits="userSpaceOnUse" x="381" y="261" width="233" height="95">
<path d="M613.316 261.205H381.816V355.168H613.316V261.205Z" fill="white"/>
</mask>
<g mask="url(#mask1_9231_8987)">
<path d="M433.162 307.998H433.61C434.955 307.998 436.076 309.249 436.076 310.751V330.519C436.076 332.02 434.955 333.272 433.61 333.272H433.162C432.825 333.272 432.601 333.021 432.601 332.646V308.749C432.601 308.373 432.825 307.998 433.162 307.998Z" stroke="url(#paint7_linear_9231_8987)" stroke-miterlimit="10"/>
</g>
<mask id="mask2_9231_8987" style="mask-type:luminance" maskUnits="userSpaceOnUse" x="381" y="261" width="233" height="95">
<path d="M613.316 261.205H381.816V355.168H613.316V261.205Z" fill="white"/>
</mask>
<g mask="url(#mask2_9231_8987)">
<path d="M381.816 272.59H430.022V297.113H381.816" stroke="url(#paint8_linear_9231_8987)" stroke-miterlimit="10"/>
</g>
<mask id="mask3_9231_8987" style="mask-type:luminance" maskUnits="userSpaceOnUse" x="381" y="261" width="233" height="95">
<path d="M613.316 261.205H381.816V355.168H613.316V261.205Z" fill="white"/>
</mask>
<g mask="url(#mask3_9231_8987)">
<path d="M381.816 303.367H430.022V327.89H381.816" stroke="url(#paint9_linear_9231_8987)" stroke-miterlimit="10"/>
</g>
<mask id="mask4_9231_8987" style="mask-type:luminance" maskUnits="userSpaceOnUse" x="381" y="261" width="233" height="95">
<path d="M613.316 261.205H381.816V355.168H613.316V261.205Z" fill="white"/>
</mask>
<g mask="url(#mask4_9231_8987)">
<path d="M381.816 334.148H430.022V358.671H381.816" stroke="url(#paint10_linear_9231_8987)" stroke-miterlimit="10"/>
</g>
<mask id="mask5_9231_8987" style="mask-type:luminance" maskUnits="userSpaceOnUse" x="381" y="261" width="233" height="95">
<path d="M613.316 261.205H381.816V355.168H613.316V261.205Z" fill="white"/>
</mask>
<g mask="url(#mask5_9231_8987)">
<path d="M384.396 327.766C384.956 325.139 386.526 322.887 388.543 321.51C390.561 320.134 393.028 319.509 395.382 320.009C397.064 320.384 398.745 321.26 400.203 322.386C401.884 323.637 403.566 325.514 403.678 327.766" stroke="url(#paint11_linear_9231_8987)" stroke-miterlimit="10"/>
</g>
<mask id="mask6_9231_8987" style="mask-type:luminance" maskUnits="userSpaceOnUse" x="381" y="261" width="233" height="95">
<path d="M613.316 261.205H381.816V355.168H613.316V261.205Z" fill="white"/>
</mask>
<g mask="url(#mask6_9231_8987)">
<path d="M406.705 327.891C407.938 325.139 409.507 322.386 412.086 321.26C413.207 320.76 414.44 320.509 415.561 320.509C417.915 320.384 420.382 320.634 422.512 321.886C424.642 323.137 426.323 325.389 426.66 328.016" stroke="url(#paint12_linear_9231_8987)" stroke-miterlimit="10"/>
</g>
<mask id="mask7_9231_8987" style="mask-type:luminance" maskUnits="userSpaceOnUse" x="381" y="261" width="233" height="95">
<path d="M613.316 261.205H381.816V355.168H613.316V261.205Z" fill="white"/>
</mask>
<g mask="url(#mask7_9231_8987)">
<path d="M382.377 354.666C384.171 350.912 387.871 348.535 391.682 348.535C395.494 348.535 399.081 351.163 400.763 354.916" stroke="url(#paint13_linear_9231_8987)" stroke-miterlimit="10"/>
</g>
<mask id="mask8_9231_8987" style="mask-type:luminance" maskUnits="userSpaceOnUse" x="381" y="261" width="233" height="95">
<path d="M613.316 261.205H381.816V355.168H613.316V261.205Z" fill="white"/>
</mask>
<g mask="url(#mask8_9231_8987)">
<path d="M405.471 354.918C406.816 351.54 409.619 348.912 412.87 347.911C416.121 346.91 419.596 347.411 422.735 348.912C424.192 349.663 425.538 350.664 426.435 352.165C426.995 353.166 427.219 354.292 427.78 355.293" stroke="url(#paint14_linear_9231_8987)" stroke-miterlimit="10"/>
</g>
<mask id="mask9_9231_8987" style="mask-type:luminance" maskUnits="userSpaceOnUse" x="381" y="261" width="233" height="95">
<path d="M613.316 261.205H381.816V355.168H613.316V261.205Z" fill="white"/>
</mask>
<g mask="url(#mask9_9231_8987)">
<path d="M382.938 297.489C383.723 294.736 384.844 291.858 387.086 290.482C388.095 289.857 389.328 289.606 390.561 289.481C392.355 289.231 394.149 289.106 395.83 289.982C398.297 291.233 399.754 294.111 400.427 296.988" stroke="url(#paint15_linear_9231_8987)" stroke-miterlimit="10"/>
</g>
<mask id="mask10_9231_8987" style="mask-type:luminance" maskUnits="userSpaceOnUse" x="381" y="261" width="233" height="95">
<path d="M613.316 261.205H381.816V355.168H613.316V261.205Z" fill="white"/>
</mask>
<g mask="url(#mask10_9231_8987)">
<path d="M406.144 297.239C407.153 293.485 410.404 291.108 413.767 289.982C416.457 289.106 419.372 288.856 421.951 290.107C424.529 291.358 426.659 294.111 426.547 297.239" stroke="url(#paint16_linear_9231_8987)" stroke-miterlimit="10"/>
</g>
<mask id="mask11_9231_8987" style="mask-type:luminance" maskUnits="userSpaceOnUse" x="381" y="261" width="233" height="95">
<path d="M613.316 261.205H381.816V355.168H613.316V261.205Z" fill="white"/>
</mask>
<g mask="url(#mask11_9231_8987)">
<path d="M389.553 322.888C389.889 322.637 390.225 322.262 390.674 322.012" stroke="url(#paint17_linear_9231_8987)" stroke-miterlimit="10"/>
</g>
<mask id="mask12_9231_8987" style="mask-type:luminance" maskUnits="userSpaceOnUse" x="381" y="261" width="233" height="95">
<path d="M613.316 261.205H381.816V355.168H613.316V261.205Z" fill="white"/>
</mask>
<g mask="url(#mask12_9231_8987)">
<path d="M392.242 323.888C392.354 323.263 392.579 322.637 392.803 322.137" stroke="url(#paint18_linear_9231_8987)" stroke-miterlimit="10"/>
</g>
<mask id="mask13_9231_8987" style="mask-type:luminance" maskUnits="userSpaceOnUse" x="381" y="261" width="233" height="95">
<path d="M613.316 261.205H381.816V355.168H613.316V261.205Z" fill="white"/>
</mask>
<g mask="url(#mask13_9231_8987)">
<path d="M394.372 322.762C394.484 323.137 394.596 323.512 394.708 323.763" stroke="url(#paint19_linear_9231_8987)" stroke-miterlimit="10"/>
</g>
<mask id="mask14_9231_8987" style="mask-type:luminance" maskUnits="userSpaceOnUse" x="381" y="261" width="233" height="95">
<path d="M613.316 261.205H381.816V355.168H613.316V261.205Z" fill="white"/>
</mask>
<g mask="url(#mask14_9231_8987)">
<path d="M396.391 322.387C396.614 322.511 396.837 322.761 397.061 322.885" stroke="url(#paint20_linear_9231_8987)" stroke-miterlimit="10"/>
</g>
<mask id="mask15_9231_8987" style="mask-type:luminance" maskUnits="userSpaceOnUse" x="381" y="261" width="233" height="95">
<path d="M613.316 261.205H381.816V355.168H613.316V261.205Z" fill="white"/>
</mask>
<g mask="url(#mask15_9231_8987)">
<path d="M412.31 323.638C412.758 323.387 413.094 323.012 413.543 322.762" stroke="url(#paint21_linear_9231_8987)" stroke-miterlimit="10"/>
</g>
<mask id="mask16_9231_8987" style="mask-type:luminance" maskUnits="userSpaceOnUse" x="381" y="261" width="233" height="95">
<path d="M613.316 261.205H381.816V355.168H613.316V261.205Z" fill="white"/>
</mask>
<g mask="url(#mask16_9231_8987)">
<path d="M415.224 323.016C415.111 323.391 414.999 323.766 414.887 324.267" stroke="url(#paint22_linear_9231_8987)" stroke-miterlimit="10"/>
</g>
<mask id="mask17_9231_8987" style="mask-type:luminance" maskUnits="userSpaceOnUse" x="381" y="261" width="233" height="95">
<path d="M613.316 261.205H381.816V355.168H613.316V261.205Z" fill="white"/>
</mask>
<g mask="url(#mask17_9231_8987)">
<path d="M417.13 323.389C417.242 323.764 417.466 324.139 417.578 324.39" stroke="url(#paint23_linear_9231_8987)" stroke-miterlimit="10"/>
</g>
<mask id="mask18_9231_8987" style="mask-type:luminance" maskUnits="userSpaceOnUse" x="381" y="261" width="233" height="95">
<path d="M613.316 261.205H381.816V355.168H613.316V261.205Z" fill="white"/>
</mask>
<g mask="url(#mask18_9231_8987)">
<path d="M419.372 323.016C419.595 323.14 419.818 323.39 420.042 323.514" stroke="url(#paint24_linear_9231_8987)" stroke-miterlimit="10"/>
</g>
<mask id="mask19_9231_8987" style="mask-type:luminance" maskUnits="userSpaceOnUse" x="381" y="261" width="233" height="95">
<path d="M613.316 261.205H381.816V355.168H613.316V261.205Z" fill="white"/>
</mask>
<g mask="url(#mask19_9231_8987)">
<path d="M412.645 350.411C413.093 350.161 413.43 349.785 413.878 349.535" stroke="url(#paint25_linear_9231_8987)" stroke-miterlimit="10"/>
</g>
<mask id="mask20_9231_8987" style="mask-type:luminance" maskUnits="userSpaceOnUse" x="381" y="261" width="233" height="95">
<path d="M613.316 261.205H381.816V355.168H613.316V261.205Z" fill="white"/>
</mask>
<g mask="url(#mask20_9231_8987)">
<path d="M415.449 349.664C415.449 350.039 415.336 350.415 415.336 350.915" stroke="url(#paint26_linear_9231_8987)" stroke-miterlimit="10"/>
</g>
<mask id="mask21_9231_8987" style="mask-type:luminance" maskUnits="userSpaceOnUse" x="381" y="261" width="233" height="95">
<path d="M613.316 261.205H381.816V355.168H613.316V261.205Z" fill="white"/>
</mask>
<g mask="url(#mask21_9231_8987)">
<path d="M417.579 349.664C417.691 350.039 417.915 350.415 418.027 350.915" stroke="url(#paint27_linear_9231_8987)" stroke-miterlimit="10"/>
</g>
<mask id="mask22_9231_8987" style="mask-type:luminance" maskUnits="userSpaceOnUse" x="381" y="261" width="233" height="95">
<path d="M613.316 261.205H381.816V355.168H613.316V261.205Z" fill="white"/>
</mask>
<g mask="url(#mask22_9231_8987)">
<path d="M419.483 349.664C419.819 349.914 420.155 350.288 420.378 350.538" stroke="url(#paint28_linear_9231_8987)" stroke-miterlimit="10"/>
</g>
<mask id="mask23_9231_8987" style="mask-type:luminance" maskUnits="userSpaceOnUse" x="381" y="261" width="233" height="95">
<path d="M613.316 261.205H381.816V355.168H613.316V261.205Z" fill="white"/>
</mask>
<g mask="url(#mask23_9231_8987)">
<path d="M388.318 351.415C388.766 351.165 389.215 350.914 389.663 350.664" stroke="url(#paint29_linear_9231_8987)" stroke-miterlimit="10"/>
</g>
<mask id="mask24_9231_8987" style="mask-type:luminance" maskUnits="userSpaceOnUse" x="381" y="261" width="233" height="95">
<path d="M613.316 261.205H381.816V355.168H613.316V261.205Z" fill="white"/>
</mask>
<g mask="url(#mask24_9231_8987)">
<path d="M390.785 351.039C390.673 351.414 390.449 351.79 390.336 352.04" stroke="url(#paint30_linear_9231_8987)" stroke-miterlimit="10"/>
</g>
<mask id="mask25_9231_8987" style="mask-type:luminance" maskUnits="userSpaceOnUse" x="381" y="261" width="233" height="95">
<path d="M613.316 261.205H381.816V355.168H613.316V261.205Z" fill="white"/>
</mask>
<g mask="url(#mask25_9231_8987)">
<path d="M392.018 351.039C392.129 351.289 392.353 351.663 392.465 351.913" stroke="url(#paint31_linear_9231_8987)" stroke-miterlimit="10"/>
</g>
<mask id="mask26_9231_8987" style="mask-type:luminance" maskUnits="userSpaceOnUse" x="381" y="261" width="233" height="95">
<path d="M613.316 261.205H381.816V355.168H613.316V261.205Z" fill="white"/>
</mask>
<g mask="url(#mask26_9231_8987)">
<path d="M393.812 350.664C394.036 350.914 394.371 351.163 394.595 351.413" stroke="url(#paint32_linear_9231_8987)" stroke-miterlimit="10"/>
</g>
<mask id="mask27_9231_8987" style="mask-type:luminance" maskUnits="userSpaceOnUse" x="381" y="261" width="233" height="95">
<path d="M613.316 261.205H381.816V355.168H613.316V261.205Z" fill="white"/>
</mask>
<g mask="url(#mask27_9231_8987)">
<path d="M386.973 293.233C387.196 292.859 387.532 292.484 387.868 292.359" stroke="url(#paint33_linear_9231_8987)" stroke-miterlimit="10"/>
</g>
<mask id="mask28_9231_8987" style="mask-type:luminance" maskUnits="userSpaceOnUse" x="381" y="261" width="233" height="95">
<path d="M613.316 261.205H381.816V355.168H613.316V261.205Z" fill="white"/>
</mask>
<g mask="url(#mask28_9231_8987)">
<path d="M389.44 292.107C389.44 292.608 389.44 292.983 389.44 293.484" stroke="url(#paint34_linear_9231_8987)" stroke-miterlimit="10"/>
</g>
<mask id="mask29_9231_8987" style="mask-type:luminance" maskUnits="userSpaceOnUse" x="381" y="261" width="233" height="95">
<path d="M613.316 261.205H381.816V355.168H613.316V261.205Z" fill="white"/>
</mask>
<g mask="url(#mask29_9231_8987)">
<path d="M391.569 292.107C391.681 292.483 391.794 292.858 391.906 293.359" stroke="url(#paint35_linear_9231_8987)" stroke-miterlimit="10"/>
</g>
<mask id="mask30_9231_8987" style="mask-type:luminance" maskUnits="userSpaceOnUse" x="381" y="261" width="233" height="95">
<path d="M613.316 261.205H381.816V355.168H613.316V261.205Z" fill="white"/>
</mask>
<g mask="url(#mask30_9231_8987)">
<path d="M393.587 292.359C393.475 292.609 393.587 293.109 393.811 293.233" stroke="url(#paint36_linear_9231_8987)" stroke-miterlimit="10"/>
</g>
<mask id="mask31_9231_8987" style="mask-type:luminance" maskUnits="userSpaceOnUse" x="381" y="261" width="233" height="95">
<path d="M613.316 261.205H381.816V355.168H613.316V261.205Z" fill="white"/>
</mask>
<g mask="url(#mask31_9231_8987)">
<path d="M395.269 291.982C395.493 292.232 395.828 292.607 396.052 292.856" stroke="url(#paint37_linear_9231_8987)" stroke-miterlimit="10"/>
</g>
<mask id="mask32_9231_8987" style="mask-type:luminance" maskUnits="userSpaceOnUse" x="381" y="261" width="233" height="95">
<path d="M613.316 261.205H381.816V355.168H613.316V261.205Z" fill="white"/>
</mask>
<g mask="url(#mask32_9231_8987)">
<path d="M413.095 293.235C413.431 292.985 413.767 292.61 414.104 292.359" stroke="url(#paint38_linear_9231_8987)" stroke-miterlimit="10"/>
</g>
<mask id="mask33_9231_8987" style="mask-type:luminance" maskUnits="userSpaceOnUse" x="381" y="261" width="233" height="95">
<path d="M613.316 261.205H381.816V355.168H613.316V261.205Z" fill="white"/>
</mask>
<g mask="url(#mask33_9231_8987)">
<path d="M415.895 292.359C415.783 292.86 415.671 293.235 415.559 293.736" stroke="url(#paint39_linear_9231_8987)" stroke-miterlimit="10"/>
</g>
<mask id="mask34_9231_8987" style="mask-type:luminance" maskUnits="userSpaceOnUse" x="381" y="261" width="233" height="95">
<path d="M613.316 261.205H381.816V355.168H613.316V261.205Z" fill="white"/>
</mask>
<g mask="url(#mask34_9231_8987)">
<path d="M417.466 292.484C417.354 292.86 417.354 293.235 417.578 293.485" stroke="url(#paint40_linear_9231_8987)" stroke-miterlimit="10"/>
</g>
<mask id="mask35_9231_8987" style="mask-type:luminance" maskUnits="userSpaceOnUse" x="381" y="261" width="233" height="95">
<path d="M613.316 261.205H381.816V355.168H613.316V261.205Z" fill="white"/>
</mask>
<g mask="url(#mask35_9231_8987)">
<path d="M419.483 292.359C419.483 292.735 419.708 293.11 419.932 293.36" stroke="url(#paint41_linear_9231_8987)" stroke-miterlimit="10"/>
</g>
<mask id="mask36_9231_8987" style="mask-type:luminance" maskUnits="userSpaceOnUse" x="381" y="261" width="233" height="95">
<path d="M613.316 261.205H381.816V355.168H613.316V261.205Z" fill="white"/>
</mask>
<g mask="url(#mask36_9231_8987)">
<path d="M421.502 292.107C421.839 292.483 422.175 292.858 422.399 293.359" stroke="url(#paint42_linear_9231_8987)" stroke-miterlimit="10"/>
</g>
<mask id="mask37_9231_8987" style="mask-type:luminance" maskUnits="userSpaceOnUse" x="381" y="261" width="233" height="95">
<path d="M613.316 261.205H381.816V355.168H613.316V261.205Z" fill="white"/>
</mask>
<g mask="url(#mask37_9231_8987)">
<path d="M606.701 329.518H524.303V324.389H606.701" stroke="url(#paint43_linear_9231_8987)" stroke-miterlimit="10"/>
<path d="M606.702 356.545H527.667V329.52H606.702" stroke="url(#paint44_linear_9231_8987)" stroke-miterlimit="10"/>
<path d="M543.585 320.635C538.316 320.51 533.159 320.51 527.89 320.76C527.666 320.76 527.441 321.01 527.441 321.26C527.554 322.136 527.666 323.012 527.778 323.888C527.778 324.138 528.002 324.388 528.338 324.388C533.271 324.263 538.204 324.263 543.248 324.514C543.473 324.514 543.697 324.263 543.809 324.013C543.921 323.012 544.033 322.136 544.145 321.135C544.033 320.885 543.809 320.635 543.585 320.635Z" stroke="url(#paint45_linear_9231_8987)" stroke-miterlimit="10"/>
<path d="M551.097 324.388C556.366 324.514 561.523 324.514 566.792 324.263C567.016 324.263 567.24 324.013 567.24 323.763C567.128 322.887 567.016 322.011 566.904 321.135C566.904 320.885 566.68 320.635 566.344 320.635C561.411 320.76 556.478 320.76 551.433 320.51C551.209 320.51 550.985 320.76 550.873 321.01C550.761 322.011 550.649 322.887 550.537 323.888C550.649 324.138 550.761 324.388 551.097 324.388Z" stroke="url(#paint46_linear_9231_8987)" stroke-miterlimit="10"/>
<path d="M573.854 324.388C579.123 324.514 584.28 324.514 589.549 324.263C589.774 324.263 589.998 324.013 589.998 323.763C589.886 322.887 589.774 322.011 589.661 321.135C589.661 320.885 589.437 320.635 589.101 320.635C584.168 320.76 579.236 320.76 574.191 320.51C573.967 320.51 573.742 320.76 573.63 321.01C573.518 322.011 573.406 322.887 573.294 323.888C573.406 324.138 573.63 324.388 573.854 324.388Z" stroke="url(#paint47_linear_9231_8987)" stroke-miterlimit="10"/>
<path d="M612.865 320.635C607.596 320.51 602.44 320.51 597.171 320.76C596.946 320.76 596.722 321.01 596.722 321.26C596.834 322.136 596.946 323.012 597.059 323.888C597.059 324.138 597.283 324.388 597.619 324.388C602.552 324.263 607.484 324.263 612.529 324.514C612.753 324.514 612.978 324.263 613.09 324.013C613.202 323.012 613.314 322.136 613.426 321.135C613.314 320.885 613.202 320.635 612.865 320.635Z" stroke="url(#paint48_linear_9231_8987)" stroke-miterlimit="10"/>
<path d="M544.034 261.205L526.77 286.479V291.984H606.701" stroke="url(#paint49_linear_9231_8987)" stroke-miterlimit="10"/>
</g>
<path d="M674.414 261.206H314.105C310.854 261.206 308.387 257.953 309.06 254.324C309.508 251.446 310.069 248.569 310.629 245.816C321.84 190.139 346.84 169.996 354.463 159.611C362.871 148.225 426.884 97.4278 546.725 116.07C583.945 121.826 610.962 138.091 630.469 157.609C664.997 192.141 676.208 237.183 679.347 254.199C680.132 257.827 677.665 261.206 674.414 261.206Z" fill="url(#paint50_linear_9231_8987)" stroke="#381D2A" stroke-miterlimit="10" stroke-linecap="round" stroke-linejoin="round"/>
<path d="M674.414 261.206H314.105C310.854 261.206 308.387 257.953 309.06 254.325C309.508 251.447 310.069 248.569 310.629 245.817C319.934 245.567 329.8 247.568 337.535 248.194C363.88 250.571 390.225 252.948 416.57 253.074C448.744 253.324 480.919 250.321 513.093 248.945C539.887 247.819 566.68 247.819 593.474 248.82C603.563 249.195 613.877 249.695 623.63 246.567C633.383 243.44 642.576 235.933 645.379 225.047C647.621 216.414 645.603 207.031 643.249 198.398C639.549 184.51 635.289 170.872 630.469 157.484C664.997 192.017 676.208 237.059 679.347 254.074C680.132 257.828 677.665 261.206 674.414 261.206Z" fill="url(#paint51_linear_9231_8987)"/>
<path d="M435.515 133.213C434.842 135.09 433.945 137.842 432.6 139.969C431.143 142.597 429.125 144.348 426.546 143.347C425.874 142.972 425.313 142.472 424.977 141.846C424.304 140.72 424.192 139.093 424.641 137.717C426.098 133.588 429.91 132.462 433.385 131.586L434.17 131.336C435.067 131.086 435.851 132.212 435.515 133.213Z" fill="#F9EEEA" stroke="#381D2A" stroke-miterlimit="10" stroke-linecap="round" stroke-linejoin="round"/>
<path d="M461.188 131.334C461.188 132.461 461.188 134.087 461.076 135.588C460.739 139.717 459.842 144.347 456.031 144.347C454.685 144.221 453.564 143.346 452.892 141.969C452.555 141.344 452.443 140.593 452.443 139.842C452.443 135.338 455.694 132.836 458.609 130.709L459.282 130.208C460.067 129.458 461.188 130.208 461.188 131.334Z" fill="#F9EEEA" stroke="#381D2A" stroke-miterlimit="10" stroke-linecap="round" stroke-linejoin="round"/>
<path d="M438.653 152.731C438.653 154.232 438.653 156.359 438.317 158.486C437.869 162.24 436.748 165.743 433.384 165.743C431.703 165.618 430.47 164.242 430.021 162.615C429.909 162.24 429.909 161.739 429.909 161.364C429.909 156.86 433.16 154.357 436.075 152.231L436.748 151.73C437.645 150.979 438.766 151.605 438.653 152.731Z" fill="#F9EEEA" stroke="#381D2A" stroke-miterlimit="10" stroke-linecap="round" stroke-linejoin="round"/>
<path d="M480.806 170.998C478.901 171.748 476.771 170.497 475.986 168.37C475.537 167.119 475.425 165.743 475.538 164.617C475.762 161.989 477.107 159.487 478.452 157.235L478.901 156.359C479.461 155.483 480.694 155.608 481.031 156.609C481.591 158.236 482.488 160.488 482.937 162.74C483.721 166.243 483.721 169.622 480.806 170.998Z" fill="#F9EEEA" stroke="#381D2A" stroke-miterlimit="10" stroke-linecap="round" stroke-linejoin="round"/>
<path d="M508.384 169.121C506.814 170.497 504.348 170.247 503.003 168.495C501.994 167.244 501.545 165.868 501.321 164.491C500.985 162.114 501.545 159.487 502.106 157.11L502.33 156.109C502.554 155.108 503.788 154.732 504.46 155.608C505.693 157.235 507.711 159.737 508.945 162.239C509.953 164.742 510.178 167.244 508.384 169.121Z" fill="#F9EEEA" stroke="#381D2A" stroke-miterlimit="10" stroke-linecap="round" stroke-linejoin="round"/>
<path d="M531.031 170.121C529.461 171.497 526.995 171.122 525.649 169.495C525.649 169.495 525.537 169.37 525.537 169.245C523.071 165.992 523.856 161.738 524.753 157.985L524.977 156.984C525.201 155.983 526.434 155.607 527.107 156.483C528.564 158.36 530.918 161.238 531.927 164.115C532.712 166.367 532.712 168.494 531.031 170.121Z" fill="#F9EEEA" stroke="#381D2A" stroke-miterlimit="10" stroke-linecap="round" stroke-linejoin="round"/>
<path d="M480.807 131.961C480.694 133.087 480.582 134.463 480.358 135.965C479.685 140.093 478.34 144.723 474.529 144.347C472.511 143.972 471.165 141.845 471.39 139.468C471.502 138.717 471.614 137.966 471.838 137.341C472.959 134.338 475.65 132.586 478.228 131.085L479.013 130.585C479.91 130.084 480.919 130.96 480.807 131.961Z" fill="#F9EEEA" stroke="#381D2A" stroke-miterlimit="10" stroke-linecap="round" stroke-linejoin="round"/>
<path d="M556.814 167.243C555.469 168.994 553.115 169.245 551.433 167.994C550.424 167.243 549.752 166.367 549.303 165.366C548.182 162.989 548.182 159.986 548.182 157.108V156.107C548.182 154.981 549.303 154.481 550.088 155.107C551.994 156.608 555.133 159.11 556.59 161.738C557.711 163.364 558.047 165.366 556.814 167.243Z" fill="#F9EEEA" stroke="#381D2A" stroke-miterlimit="10" stroke-linecap="round" stroke-linejoin="round"/>
<path d="M410.516 147.477C410.068 148.477 409.62 149.854 409.059 151.23C407.377 154.984 404.911 158.987 401.324 157.361C399.642 156.485 398.969 154.358 399.306 152.481C399.306 152.231 399.418 151.981 399.53 151.731C401.099 147.602 404.911 146.601 408.386 145.85L409.283 145.6C410.18 145.35 410.965 146.476 410.516 147.477Z" fill="#F9EEEA" stroke="#381D2A" stroke-miterlimit="10" stroke-linecap="round" stroke-linejoin="round"/>
<path d="M492.803 146.474C490.897 147.225 488.767 146.099 487.982 143.847C487.422 142.345 487.31 140.844 487.534 139.343C487.87 136.965 489.216 134.713 490.337 132.712L490.785 131.836C491.346 130.96 492.579 131.085 492.915 132.086C493.588 134.088 494.709 136.965 495.157 139.593C495.606 142.596 495.269 145.223 492.803 146.474Z" fill="#F9EEEA" stroke="#381D2A" stroke-miterlimit="10" stroke-linecap="round" stroke-linejoin="round"/>
<path d="M460.852 163.241C460.74 166.494 459.955 169.497 457.04 170.122C455.246 170.248 453.565 168.996 453.004 167.12C452.892 166.869 452.892 166.619 452.892 166.369C452.332 161.99 455.134 158.987 457.713 156.234L458.385 155.609C459.17 154.858 460.291 155.359 460.403 156.485C460.515 158.111 460.852 160.739 460.852 163.241Z" fill="#F9EEEA" stroke="#381D2A" stroke-miterlimit="10" stroke-linecap="round" stroke-linejoin="round"/>
<path d="M515.11 145.348C513.541 146.85 511.187 146.599 509.729 144.973C509.393 144.598 509.057 144.097 508.72 143.597C507.039 140.594 507.711 136.965 508.272 133.587L508.384 132.586C508.608 131.585 509.841 131.21 510.514 131.961C511.971 133.712 514.214 136.34 515.447 138.967C516.568 141.219 516.792 143.472 515.11 145.348Z" fill="#F9EEEA" stroke="#381D2A" stroke-miterlimit="10" stroke-linecap="round" stroke-linejoin="round"/>
<path d="M533.609 143.599C531.927 144.975 529.573 144.35 528.34 142.598C528.004 142.223 527.779 141.722 527.555 141.222C526.098 138.094 526.995 134.466 528.004 131.087L528.228 130.212C528.564 129.211 529.797 128.96 530.358 129.836C531.479 131.463 533.273 133.965 534.282 136.467C535.403 138.97 535.627 141.722 533.609 143.599Z" fill="#F9EEEA" stroke="#381D2A" stroke-miterlimit="10" stroke-linecap="round" stroke-linejoin="round"/>
<path d="M584.281 160.737C582.936 162.489 580.582 162.739 578.9 161.363C578.115 160.737 577.555 159.986 577.106 159.111C575.761 156.608 575.761 153.355 575.873 150.478V149.477C575.985 148.351 577.106 147.85 577.891 148.476C579.236 149.602 581.142 151.228 582.712 152.98C584.618 155.232 585.963 157.985 584.281 160.737Z" fill="#F9EEEA" stroke="#381D2A" stroke-miterlimit="10" stroke-linecap="round" stroke-linejoin="round"/>
<path d="M558.497 140.842C557.152 142.593 554.798 142.718 553.116 141.342C552.668 140.967 552.331 140.591 551.995 140.216C549.865 137.589 549.977 133.96 550.201 130.457V129.456C550.313 128.33 551.434 127.704 552.331 128.33C554.125 129.831 557.04 132.209 558.497 134.961C559.506 136.838 559.842 138.84 558.497 140.842Z" fill="#F9EEEA" stroke="#381D2A" stroke-miterlimit="10" stroke-linecap="round" stroke-linejoin="round"/>
<path d="M409.059 151.227C407.377 154.98 404.911 158.984 401.324 157.357C399.642 156.481 398.969 154.354 399.306 152.478C399.418 153.103 399.642 153.604 399.978 154.104C400.987 155.355 402.893 155.105 404.351 154.48C406.144 153.729 407.714 152.603 409.059 151.227Z" fill="#F9EEEA"/>
<path d="M432.601 139.967C431.143 142.594 429.125 144.346 426.547 143.345C425.874 142.97 425.314 142.469 424.978 141.844C425.426 142.094 425.874 142.094 426.435 142.094C428.565 142.094 430.695 141.218 432.601 139.967Z" fill="#F9EEEA"/>
<path d="M438.431 158.484C437.982 162.238 436.861 165.741 433.498 165.741C431.816 165.616 430.583 164.24 430.135 162.613C430.695 162.989 431.256 163.239 431.816 163.239C434.507 163.364 436.637 160.862 438.319 158.86C438.319 158.609 438.319 158.609 438.431 158.484Z" fill="#F9EEEA"/>
<path d="M460.965 135.588C460.629 139.717 459.732 144.346 455.92 144.346C454.575 144.221 453.454 143.345 452.781 141.969C455.696 142.72 458.611 139.467 460.965 135.588Z" fill="#F9EEEA"/>
<path d="M460.851 163.238C460.739 166.491 459.955 169.494 457.04 170.12C455.246 170.245 453.564 168.994 453.004 167.117C453.452 167.868 454.237 168.118 455.582 167.492C457.6 166.491 459.282 164.99 460.851 163.238Z" fill="#F9EEEA"/>
<path d="M480.358 136.09C479.685 140.219 478.34 144.848 474.529 144.473C472.511 144.097 471.165 141.97 471.39 139.593C471.502 138.842 471.614 138.092 471.838 137.466C472.286 138.968 472.959 140.094 473.856 140.344C475.65 140.844 477.443 139.468 478.677 137.967C479.237 137.341 479.798 136.715 480.358 136.09Z" fill="#F9EEEA"/>
<path d="M480.806 170.998C478.901 171.749 476.771 170.497 475.986 168.37C475.537 167.119 475.425 165.743 475.538 164.617C477.555 167.62 480.134 170.748 481.703 166.494C482.152 165.242 482.6 163.991 483.049 162.865C483.721 166.243 483.721 169.622 480.806 170.998Z" fill="#F9EEEA"/>
<path d="M492.803 146.475C490.897 147.226 488.767 146.1 487.982 143.848C487.422 142.347 487.31 140.845 487.534 139.344C487.646 140.22 487.87 140.97 488.207 141.471C488.879 142.347 490.112 142.597 491.121 142.347C492.13 142.096 493.139 141.596 493.924 140.845C494.373 140.47 494.821 140.094 495.157 139.719C495.606 142.597 495.269 145.224 492.803 146.475Z" fill="#F9EEEA"/>
<path d="M508.385 169.12C506.815 170.496 504.349 170.246 503.004 168.494C501.995 167.243 501.546 165.867 501.322 164.49C501.659 165.116 501.995 165.616 502.331 165.867C502.892 166.367 503.452 166.868 504.125 166.993C505.246 167.118 506.255 166.242 507.04 165.366C507.824 164.49 508.385 163.364 508.833 162.238C509.954 164.741 510.179 167.243 508.385 169.12Z" fill="#F9EEEA"/>
<path d="M515.111 145.348C513.542 146.849 511.188 146.599 509.73 144.972C509.394 144.597 509.058 144.097 508.721 143.596C509.17 143.971 509.618 144.222 510.179 144.222C511.636 144.347 512.981 143.096 513.878 141.719C514.551 140.844 514.999 139.843 515.56 138.967C516.569 141.219 516.793 143.471 515.111 145.348Z" fill="#F9EEEA"/>
<path d="M533.608 143.596C531.926 144.973 529.572 144.347 528.339 142.596C528.003 142.22 527.778 141.72 527.554 141.219C529.124 141.344 530.693 140.343 531.926 139.217C532.823 138.342 533.608 137.466 534.281 136.465C535.402 138.967 535.626 141.72 533.608 143.596Z" fill="#F9EEEA"/>
<path d="M531.03 170.121C529.46 171.497 526.994 171.122 525.649 169.495C525.649 169.495 525.537 169.37 525.537 169.245C525.649 169.245 525.873 169.245 525.985 169.245C527.555 169.245 529.012 168.119 530.133 166.868C530.806 165.992 531.478 165.116 531.927 164.115C532.711 166.367 532.711 168.494 531.03 170.121Z" fill="#F9EEEA"/>
<path d="M558.496 140.843C557.151 142.595 554.797 142.72 553.115 141.344C552.667 140.968 552.33 140.593 551.994 140.218C553.339 140.093 554.685 139.217 555.694 138.216C556.703 137.215 557.599 136.214 558.384 134.963C559.505 136.84 559.842 138.842 558.496 140.843Z" fill="#F9EEEA"/>
<path d="M556.816 167.243C555.471 168.995 553.116 169.245 551.435 167.994C550.426 167.243 549.753 166.367 549.305 165.367C549.753 165.492 550.314 165.492 550.762 165.492C552.668 165.241 554.462 164.115 555.919 162.614C556.143 162.364 556.367 162.114 556.592 161.863C557.713 163.365 558.049 165.367 556.816 167.243Z" fill="#F9EEEA"/>
<path d="M584.281 160.74C582.936 162.491 580.582 162.742 578.9 161.365C578.115 160.74 577.555 159.989 577.106 159.113C578.115 158.613 579.012 157.862 579.909 156.736C580.47 156.11 581.703 154.609 582.712 152.982C584.618 155.235 585.963 157.987 584.281 160.74Z" fill="#F9EEEA"/>
<path d="M718.135 353.543V366.93L505.47 366.055L326.997 366.93L270.383 372.185V353.543H718.135Z" fill="#ECA25C" stroke="#381D2A" stroke-miterlimit="10" stroke-linecap="round" stroke-linejoin="round"/>
<path d="M718.135 355.92V366.93L505.47 366.054L327.109 367.055L270.383 372.185V363.677C275.315 365.554 281.369 366.805 288.544 366.054C309.62 363.927 416.121 361.8 444.596 361.175C473.071 360.424 648.966 360.424 668.809 361.926C681.028 362.676 699.077 365.304 718.135 355.92Z" fill="url(#paint52_linear_9231_8987)"/>
<path d="M382.602 191.264C457.04 189.888 531.479 191.264 605.917 195.143C605.917 219.791 606.029 244.439 606.029 268.962C531.591 267.711 457.04 268.962 382.714 272.84C382.602 245.69 382.602 218.54 382.602 191.264Z" fill="#ECA25C" stroke="#381D2A" stroke-miterlimit="10" stroke-linecap="round" stroke-linejoin="round"/>
<path d="M389.553 199.273C459.283 197.896 529.126 198.897 598.744 202.15C598.744 221.919 598.856 241.687 598.856 261.456C529.126 260.204 459.283 261.08 389.553 264.333C389.665 242.688 389.665 221.043 389.553 199.273Z" fill="#7389AE" stroke="#381D2A" stroke-miterlimit="10" stroke-linecap="round" stroke-linejoin="round"/>
<path d="M400.988 212.157C417.243 211.781 433.387 211.656 449.642 211.531" stroke="#F9EEEA" stroke-miterlimit="10"/>
<path d="M400.988 221.415C417.131 221.04 433.387 220.789 449.642 220.539" stroke="#F9EEEA" stroke-miterlimit="10"/>
<path d="M400.988 230.675C417.131 230.174 433.387 229.799 449.53 229.674" stroke="#F9EEEA" stroke-miterlimit="10"/>
<path d="M401.1 239.935C417.243 239.434 433.498 238.934 449.642 238.684" stroke="#F9EEEA" stroke-miterlimit="10"/>
<path d="M401.1 249.068C417.243 248.442 433.498 247.942 449.642 247.691" stroke="#F9EEEA" stroke-miterlimit="10"/>
<path d="M465.785 211.406C482.04 211.406 498.183 211.531 514.439 211.782" stroke="#F9EEEA" stroke-miterlimit="10"/>
<path d="M465.785 220.415C482.04 220.29 498.183 220.415 514.439 220.54" stroke="#F9EEEA" stroke-miterlimit="10"/>
<path d="M465.785 229.426C482.04 229.301 498.183 229.301 514.439 229.426" stroke="#F9EEEA" stroke-miterlimit="10"/>
<path d="M465.785 238.434C482.04 238.184 498.183 238.184 514.439 238.184" stroke="#F9EEEA" stroke-miterlimit="10"/>
<path d="M465.785 247.442C482.04 247.192 498.183 247.067 514.439 246.941" stroke="#F9EEEA" stroke-miterlimit="10"/>
<path d="M530.582 212.035C546.725 212.411 562.98 212.786 579.124 213.411" stroke="#F9EEEA" stroke-miterlimit="10"/>
<path d="M530.582 220.791C546.725 221.041 562.98 221.417 579.124 221.917" stroke="#F9EEEA" stroke-miterlimit="10"/>
<path d="M530.582 229.549C546.837 229.674 562.98 230.049 579.124 230.425" stroke="#F9EEEA" stroke-miterlimit="10"/>
<path d="M530.582 238.184C546.837 238.309 562.98 238.559 579.236 238.934" stroke="#F9EEEA" stroke-miterlimit="10"/>
<path d="M530.582 246.941C546.837 246.941 562.98 247.192 579.236 247.442" stroke="#F9EEEA" stroke-miterlimit="10"/>
<path d="M312.648 323.016L310.182 326.394C310.182 326.394 304.913 320.764 291.124 326.394L289.891 322.641L293.59 321.264C293.59 321.264 303.231 317.636 309.285 320.263C310.63 320.639 311.751 321.64 312.648 323.016Z" fill="#FFD146" stroke="#381D2A" stroke-miterlimit="10" stroke-linecap="round" stroke-linejoin="round"/>
<path d="M312.647 323.015L310.181 326.393C310.181 326.393 304.912 320.762 291.123 326.393L290.226 323.515C294.935 324.015 299.979 322.764 304.576 322.014C305.921 321.763 307.378 321.513 308.612 320.637C308.836 320.512 309.06 320.262 309.284 320.012C310.629 320.637 311.75 321.638 312.647 323.015Z" fill="url(#paint53_linear_9231_8987)"/>
<path d="M307.267 329.52L304.801 332.898C304.801 332.898 299.532 327.268 285.742 332.898L284.509 329.145L288.209 327.768C288.209 327.768 297.85 324.14 303.904 326.767C305.361 327.268 306.482 328.144 307.267 329.52Z" fill="#FFD146" stroke="#381D2A" stroke-miterlimit="10" stroke-linecap="round" stroke-linejoin="round"/>
<path d="M307.267 329.518L304.801 332.897C304.801 332.897 299.532 327.266 285.743 332.897L284.846 330.019C289.554 330.519 294.599 329.268 299.195 328.518C300.541 328.267 301.998 328.017 303.231 327.141C303.455 327.016 303.68 326.766 303.904 326.516C305.361 327.266 306.482 328.142 307.267 329.518Z" fill="url(#paint54_linear_9231_8987)"/>
<path d="M280.697 324.264L281.145 328.768L298.522 332.271L301.885 331.02L303.118 330.52C303.118 330.52 294.71 325.765 283.163 324.514C282.378 324.389 281.594 324.389 280.697 324.264Z" fill="#FFD146" stroke="#381D2A" stroke-miterlimit="10" stroke-linecap="round" stroke-linejoin="round"/>
<path d="M283.276 324.512C282.491 324.887 281.707 325.262 280.922 325.763L281.146 327.64C281.931 327.264 282.603 326.764 283.388 326.388C285.294 325.638 287.536 326.013 289.442 326.388C293.029 327.139 296.617 328.39 300.092 330.017C300.765 330.267 301.325 330.642 301.998 330.893L303.231 330.392C303.231 330.517 294.823 325.763 283.276 324.512Z" fill="url(#paint55_linear_9231_8987)"/>
<path d="M331.369 320.512L330.92 325.016L313.544 328.519L310.18 327.268L308.947 326.768C308.947 326.768 317.355 322.013 328.902 320.762C329.687 320.637 330.472 320.512 331.369 320.512Z" fill="#FFD146" stroke="#381D2A" stroke-miterlimit="10" stroke-linecap="round" stroke-linejoin="round"/>
<path d="M328.79 320.637C329.575 321.012 330.36 321.387 331.145 321.888L330.92 323.765C330.136 323.389 329.463 322.889 328.678 322.513C326.772 321.763 324.53 322.138 322.625 322.513C319.037 323.264 315.45 324.515 311.974 326.142C311.302 326.392 310.741 326.767 310.069 327.018L308.835 326.517C308.948 326.767 317.243 321.888 328.79 320.637Z" fill="url(#paint56_linear_9231_8987)"/>
<path d="M309.509 325.266L309.957 329.77L327.334 333.273L330.697 332.022L331.93 331.521C331.93 331.521 323.522 326.767 311.975 325.516C311.19 325.391 310.406 325.391 309.509 325.266Z" fill="#FFD146" stroke="#381D2A" stroke-miterlimit="10" stroke-linecap="round" stroke-linejoin="round"/>
<path d="M312.088 325.518C311.303 325.893 310.519 326.268 309.734 326.769L309.958 328.645C310.743 328.27 311.415 327.77 312.2 327.394C314.106 326.644 316.348 327.019 318.254 327.394C321.841 328.145 325.429 329.396 328.904 331.023C329.577 331.273 330.137 331.648 330.81 331.899L332.043 331.398C331.931 331.523 323.635 326.769 312.088 325.518Z" fill="url(#paint57_linear_9231_8987)"/>
<path d="M316.123 330.27L318.477 333.898L335.181 327.642L337.535 324.765L338.432 323.639C338.432 323.639 329.015 323.889 318.365 329.019C317.692 329.394 316.907 329.769 316.123 330.27Z" fill="#FFD146" stroke="#381D2A" stroke-miterlimit="10" stroke-linecap="round" stroke-linejoin="round"/>
<path d="M318.477 329.021C317.916 329.771 317.356 330.647 316.907 331.398L317.916 333.024C318.365 332.274 318.813 331.523 319.374 330.772C320.719 329.146 322.849 328.27 324.755 327.519C328.342 326.268 331.929 325.392 335.629 324.892C336.302 324.767 336.974 324.767 337.647 324.642L338.544 323.516C338.544 323.641 329.127 323.891 318.477 329.021Z" fill="url(#paint58_linear_9231_8987)"/>
<path d="M317.132 326.639C317.132 326.639 300.989 331.519 298.074 336.148L297.177 333.02L296.617 330.893C296.617 330.893 302.222 327.015 310.742 325.138C314.554 324.262 316.235 323.887 316.796 323.762L316.908 324.512L317.132 326.639Z" fill="#FFD146" stroke="#381D2A" stroke-miterlimit="10" stroke-linecap="round" stroke-linejoin="round"/>
<path d="M317.133 326.639C317.133 326.639 300.989 331.518 298.075 336.148L297.178 333.02C300.653 331.143 304.465 329.767 308.164 328.641C310.406 327.89 312.648 327.389 314.778 326.138C315.451 325.638 316.236 325.137 316.796 324.512L317.133 326.639Z" fill="url(#paint59_linear_9231_8987)"/>
<path d="M326.774 331.024L323.523 333.276C323.523 333.276 320.272 326.019 305.586 326.269V322.266H309.398C309.398 322.266 319.599 322.391 324.42 327.02C325.541 328.146 326.326 329.397 326.774 331.024Z" fill="#FFD146" stroke="#381D2A" stroke-miterlimit="10" stroke-linecap="round" stroke-linejoin="round"/>
<path d="M326.774 331.023L323.523 333.275C323.523 333.275 320.272 326.018 305.586 326.268V323.266C309.846 325.518 315.003 326.143 319.599 327.144C320.945 327.52 322.402 327.77 323.747 327.394C323.971 327.269 324.308 327.269 324.532 327.019C325.541 328.145 326.326 329.396 326.774 331.023Z" fill="url(#paint60_linear_9231_8987)"/>
<path d="M308.836 329.394L305.585 331.772C305.585 331.772 301.998 324.64 287.312 325.641L287.2 321.637L291.011 321.387C291.011 321.387 301.213 321.012 306.258 325.391C307.491 326.642 308.388 327.893 308.836 329.394Z" fill="#FFD146" stroke="#381D2A" stroke-miterlimit="10" stroke-linecap="round" stroke-linejoin="round"/>
<path d="M308.836 329.393L305.585 331.77C305.585 331.77 301.998 324.639 287.312 325.64L287.2 322.637C291.572 324.639 296.729 325.014 301.325 325.89C302.67 326.14 304.128 326.39 305.473 325.89C305.697 325.765 306.034 325.64 306.258 325.514C307.491 326.64 308.388 327.892 308.836 329.393Z" fill="url(#paint61_linear_9231_8987)"/>
<path d="M330.361 329.895L329.8 334.524L327.782 349.914C327.558 351.916 325.988 353.417 324.083 353.417H293.59C291.908 353.417 290.451 352.166 290.002 350.289L289.89 350.039L285.294 329.895C285.182 329.52 285.406 329.27 285.742 329.27H329.8C330.248 329.27 330.473 329.52 330.361 329.895Z" fill="#F93E8B" stroke="#381D2A" stroke-miterlimit="10" stroke-linecap="round" stroke-linejoin="round"/>
<path d="M286.528 335.025L328.904 336.651L329.464 333.773H285.855L286.528 335.025Z" fill="url(#paint62_linear_9231_8987)"/>
<path d="M329.8 334.526L327.783 349.916C327.558 351.917 325.989 353.419 324.083 353.419H293.59C291.909 353.419 290.451 352.168 290.003 350.291L289.891 350.041H290.003C296.393 353.294 305.473 351.417 312.424 351.417C315.563 351.417 318.926 351.292 321.729 349.54C326.662 346.537 328.231 339.781 329.352 333.65C329.576 334.026 329.688 334.276 329.8 334.526Z" fill="url(#paint63_linear_9231_8987)"/>
<path d="M287.983 329.27V333.774H285.965C284.956 333.774 284.172 333.023 284.06 332.022C284.06 331.897 284.06 331.772 284.06 331.647V329.395H287.983V329.27Z" fill="#F9EEEA" stroke="#381D2A" stroke-miterlimit="10" stroke-linecap="round" stroke-linejoin="round"/>
<path d="M292.019 329.27H287.983V333.774H292.019V329.27Z" fill="#F93E8B" stroke="#381D2A" stroke-miterlimit="10" stroke-linecap="round" stroke-linejoin="round"/>
<path d="M295.944 329.27H291.908V333.774H295.944V329.27Z" fill="#F9EEEA" stroke="#381D2A" stroke-miterlimit="10" stroke-linecap="round" stroke-linejoin="round"/>
<path d="M299.979 329.27H295.943V333.774H299.979V329.27Z" fill="#F93E8B" stroke="#381D2A" stroke-miterlimit="10" stroke-linecap="round" stroke-linejoin="round"/>
<path d="M304.016 329.27H299.98V333.774H304.016V329.27Z" fill="#F9EEEA" stroke="#381D2A" stroke-miterlimit="10" stroke-linecap="round" stroke-linejoin="round"/>
<path d="M308.051 329.27H304.016V333.774H308.051V329.27Z" fill="#F93E8B" stroke="#381D2A" stroke-miterlimit="10" stroke-linecap="round" stroke-linejoin="round"/>
<path d="M312.088 329.27H308.052V333.774H312.088V329.27Z" fill="#F9EEEA" stroke="#381D2A" stroke-miterlimit="10" stroke-linecap="round" stroke-linejoin="round"/>
<path d="M316.123 329.27H312.087V333.774H316.123V329.27Z" fill="#F93E8B" stroke="#381D2A" stroke-miterlimit="10" stroke-linecap="round" stroke-linejoin="round"/>
<path d="M320.158 329.27H316.123V333.774H320.158V329.27Z" fill="#F9EEEA" stroke="#381D2A" stroke-miterlimit="10" stroke-linecap="round" stroke-linejoin="round"/>
<path d="M324.195 329.27H320.159V333.774H324.195V329.27Z" fill="#F93E8B" stroke="#381D2A" stroke-miterlimit="10" stroke-linecap="round" stroke-linejoin="round"/>
<path d="M328.23 329.27H324.194V333.774H328.23V329.27Z" fill="#F9EEEA" stroke="#381D2A" stroke-miterlimit="10" stroke-linecap="round" stroke-linejoin="round"/>
<path d="M332.267 329.27V331.522C332.267 332.773 331.37 333.774 330.361 333.774H328.343V329.27H332.267Z" fill="#F93E8B" stroke="#381D2A" stroke-miterlimit="10" stroke-linecap="round" stroke-linejoin="round"/>
<path d="M332.267 329.27V331.522C332.267 332.773 331.37 333.774 330.361 333.774H285.855C284.846 333.774 284.061 333.023 283.949 332.022C285.07 332.523 286.527 332.523 287.985 332.523C288.769 332.523 289.442 332.397 290.115 332.397C290.787 332.397 291.46 332.397 292.02 332.397C293.366 332.397 294.711 332.397 296.056 332.397C297.401 332.397 298.747 332.397 300.092 332.397C301.437 332.397 302.783 332.397 304.128 332.397C305.473 332.397 306.818 332.397 308.164 332.397C309.509 332.397 310.854 332.397 312.2 332.397C313.545 332.397 314.89 332.397 316.235 332.272C317.581 332.272 318.926 332.272 320.271 332.147C321.616 332.147 322.962 332.022 324.307 332.022C325.428 332.022 326.437 331.897 327.558 331.897C327.782 331.897 328.119 331.897 328.343 331.897C329.24 331.897 330.137 331.647 330.809 331.146C331.37 330.771 331.818 330.02 332.154 329.395H332.267V329.27Z" fill="url(#paint64_linear_9231_8987)"/>
<path d="M674.191 349.41C674.303 351.788 672.509 353.79 670.155 353.79C666.007 353.79 661.747 353.664 657.599 353.414C655.357 353.289 653.675 351.537 653.563 349.41C653.563 349.285 653.563 349.035 653.563 348.91C654.348 337.524 655.132 326.014 655.917 314.503C655.917 314.253 655.917 314.002 655.917 313.752C661.298 313.877 666.567 313.752 671.836 313.502C671.836 313.752 671.836 314.002 671.836 314.253C672.285 320.634 672.621 326.889 673.069 333.27C673.406 338.776 673.742 344.03 674.191 349.41Z" fill="url(#paint65_linear_9231_8987)" stroke="#381D2A" stroke-miterlimit="10" stroke-linecap="round" stroke-linejoin="round"/>
<path d="M671.835 311.627C671.835 312.503 671.835 313.379 671.835 314.38C666.454 314.63 661.073 314.63 655.58 314.63C655.58 313.754 655.58 312.878 655.58 312.003C655.58 310.501 656.813 309.375 658.159 309.375C661.858 309.375 665.445 309.375 669.145 309.25C670.378 309.25 671.499 310.126 671.723 311.377C671.835 311.377 671.835 311.502 671.835 311.627Z" fill="#F9EEEA" stroke="#381D2A" stroke-miterlimit="10" stroke-linecap="round" stroke-linejoin="round"/>
<path d="M657.487 310.5C657.487 311.376 657.487 312.377 657.487 313.253" stroke="#381D2A" stroke-miterlimit="10" stroke-linecap="round" stroke-linejoin="round"/>
<path d="M659.617 310.502C659.617 311.378 659.617 312.379 659.617 313.255" stroke="#381D2A" stroke-miterlimit="10" stroke-linecap="round" stroke-linejoin="round"/>
<path d="M661.635 310.373C661.635 311.249 661.635 312.25 661.635 313.126" stroke="#381D2A" stroke-miterlimit="10" stroke-linecap="round" stroke-linejoin="round"/>
<path d="M663.765 310.373C663.765 311.249 663.765 312.25 663.765 313.126" stroke="#381D2A" stroke-miterlimit="10" stroke-linecap="round" stroke-linejoin="round"/>
<path d="M665.895 310.373C665.895 311.249 665.895 312.25 665.895 313.126" stroke="#381D2A" stroke-miterlimit="10" stroke-linecap="round" stroke-linejoin="round"/>
<path d="M667.913 310.25C667.913 311.251 667.913 312.127 667.913 313.128" stroke="#381D2A" stroke-miterlimit="10" stroke-linecap="round" stroke-linejoin="round"/>
<path d="M670.043 310.25C670.043 311.251 670.043 312.127 670.043 313.128" stroke="#381D2A" stroke-miterlimit="10" stroke-linecap="round" stroke-linejoin="round"/>
<path d="M666.119 309.124C664.55 309.124 662.98 309.249 661.411 309.249C661.523 308.749 661.523 308.373 661.635 307.873C662.083 304.495 662.532 301.116 662.98 297.738C663.316 297.863 663.541 297.989 663.877 298.114C663.989 298.114 664.101 298.239 664.213 298.239C664.774 301.867 665.446 305.496 666.119 309.124Z" fill="#F9EEEA" stroke="#381D2A" stroke-miterlimit="10" stroke-linecap="round" stroke-linejoin="round"/>
<path d="M674.191 349.411C674.303 351.789 672.509 353.791 670.155 353.791C666.007 353.791 661.747 353.665 657.599 353.415C655.357 353.29 653.675 351.538 653.563 349.411C655.02 350.162 657.15 350.162 658.72 350.287C660.738 350.412 662.644 350.287 664.662 350.037C666.679 349.787 668.809 349.286 670.267 347.91C672.061 346.158 672.397 343.531 672.621 341.029C672.845 338.526 673.069 335.899 673.294 333.396C673.406 338.777 673.742 344.031 674.191 349.411Z" fill="url(#paint66_linear_9231_8987)"/>
<path d="M671.835 311.627C671.835 312.503 671.835 313.379 671.835 314.38C666.454 314.63 661.073 314.63 655.58 314.63C655.58 314.004 655.58 313.379 655.58 312.878C656.701 313.003 657.934 313.003 659.055 313.003C662.194 313.003 665.333 312.878 668.472 312.628C669.593 312.503 670.827 312.253 671.611 311.377C671.836 311.377 671.835 311.502 671.835 311.627Z" fill="url(#paint67_linear_9231_8987)"/>
<path d="M666.119 309.124C664.55 309.124 662.98 309.249 661.411 309.249C661.523 308.748 661.523 308.373 661.635 307.872C662.42 307.872 663.204 307.747 663.989 307.622C664.101 307.622 664.325 307.622 664.325 307.497C664.438 307.372 664.437 307.247 664.437 306.997C664.213 303.994 664.101 301.116 663.877 298.113C663.989 298.113 664.101 298.238 664.213 298.238C664.774 301.867 665.446 305.495 666.119 309.124Z" fill="url(#paint68_linear_9231_8987)"/>
<path d="M662.532 324.264C660.85 329.394 659.168 334.524 657.375 339.528C657.263 339.778 657.487 339.904 657.599 340.029C661.635 340.654 665.671 341.28 669.706 341.78C669.931 341.78 670.155 341.53 670.043 341.28C667.689 335.524 665.334 329.894 662.98 324.139C662.98 324.014 662.532 324.014 662.532 324.264Z" fill="#F9EEEA"/>
<path d="M707.821 349.663C707.821 352.04 706.14 353.917 704.01 353.791C700.31 353.541 696.498 353.291 692.799 353.166C690.781 353.041 689.212 351.414 688.987 349.287C688.987 349.162 688.987 348.912 688.987 348.787C689.324 337.401 689.66 326.016 689.996 314.63C689.996 314.38 689.996 314.129 689.996 313.879C695.602 313.629 701.207 313.504 706.812 313.504C706.812 313.754 706.812 314.004 706.812 314.255C707.036 320.636 707.261 327.142 707.373 333.523C707.485 338.777 707.709 344.158 707.821 349.663Z" fill="#A6D636" stroke="#381D2A" stroke-miterlimit="10" stroke-linecap="round" stroke-linejoin="round"/>
<path d="M706.924 311.499C706.924 312.374 706.924 313.25 706.924 314.251C701.319 314.251 695.601 314.376 689.996 314.627C689.996 313.751 689.996 312.875 689.996 311.999C689.996 310.498 691.117 309.247 692.687 309.121C696.61 308.871 700.534 308.871 704.346 308.746C705.691 308.746 706.812 309.747 707.036 310.998C706.924 311.123 706.924 311.248 706.924 311.499Z" fill="#F9EEEA" stroke="#381D2A" stroke-miterlimit="10" stroke-linecap="round" stroke-linejoin="round"/>
<path d="M691.678 310.373C691.678 311.249 691.678 312.25 691.678 313.126" stroke="#381D2A" stroke-miterlimit="10" stroke-linecap="round" stroke-linejoin="round"/>
<path d="M693.919 310.25C693.919 311.126 693.919 312.127 693.919 313.003" stroke="#381D2A" stroke-miterlimit="10" stroke-linecap="round" stroke-linejoin="round"/>
<path d="M696.164 310.125C696.164 311.001 696.164 312.002 696.164 312.878" stroke="#381D2A" stroke-miterlimit="10" stroke-linecap="round" stroke-linejoin="round"/>
<path d="M698.404 310.125C698.404 311.001 698.404 312.002 698.404 312.878" stroke="#381D2A" stroke-miterlimit="10" stroke-linecap="round" stroke-linejoin="round"/>
<path d="M700.536 310.002C700.536 311.003 700.536 311.879 700.536 312.88" stroke="#381D2A" stroke-miterlimit="10" stroke-linecap="round" stroke-linejoin="round"/>
<path d="M702.776 310.002C702.776 311.003 702.776 311.879 702.776 312.88" stroke="#381D2A" stroke-miterlimit="10" stroke-linecap="round" stroke-linejoin="round"/>
<path d="M705.02 310.002C705.02 311.003 705.02 311.879 705.02 312.88" stroke="#381D2A" stroke-miterlimit="10" stroke-linecap="round" stroke-linejoin="round"/>
<path d="M700.87 308.749C699.188 308.749 697.507 308.874 695.825 308.874C695.937 308.374 695.937 307.998 696.049 307.498C696.498 304.12 697.058 300.741 697.507 297.363C697.843 297.488 698.179 297.614 698.516 297.739C698.628 297.739 698.74 297.864 698.852 297.864C699.525 301.492 700.197 305.121 700.87 308.749Z" fill="#F9EEEA" stroke="#381D2A" stroke-miterlimit="10" stroke-linecap="round" stroke-linejoin="round"/>
<path d="M707.821 349.664C707.821 352.041 706.14 353.917 704.01 353.792C700.31 353.542 696.498 353.292 692.799 353.167C690.781 353.042 689.212 351.415 688.987 349.288C690.333 349.914 692.35 350.039 693.696 350.039C695.489 350.164 697.283 350.039 699.077 349.789C700.871 349.538 702.776 349.288 704.122 347.912C705.803 346.285 706.14 343.658 706.476 341.156C706.812 338.653 707.149 336.026 707.373 333.523C707.485 338.778 707.709 344.158 707.821 349.664Z" fill="url(#paint69_linear_9231_8987)"/>
<path d="M706.924 311.502C706.924 312.378 706.924 313.254 706.924 314.255C701.319 314.255 695.601 314.38 689.996 314.63C689.996 314.005 689.996 313.379 689.996 312.879C691.229 313.004 692.462 312.879 693.696 312.753C696.947 312.628 700.31 312.503 703.561 312.253C704.794 312.128 706.027 312.003 706.924 311.127C706.924 311.127 706.924 311.252 706.924 311.502Z" fill="url(#paint70_linear_9231_8987)"/>
<path d="M700.87 308.749C699.188 308.749 697.507 308.874 695.825 308.874C695.937 308.373 695.937 307.998 696.049 307.497C696.834 307.497 697.731 307.372 698.628 307.247C698.74 307.247 698.964 307.247 699.076 306.997C699.188 306.872 699.188 306.747 699.188 306.497C698.964 303.494 698.852 300.616 698.628 297.613C698.74 297.613 698.852 297.738 698.964 297.738C699.525 301.492 700.197 305.12 700.87 308.749Z" fill="url(#paint71_linear_9231_8987)"/>
<path d="M704.57 339.404C700.534 339.153 696.61 339.028 692.574 339.028C692.798 333.773 693.023 328.518 693.247 323.138C696.834 322.513 700.422 321.887 704.009 321.387C704.233 327.392 704.345 333.398 704.57 339.404Z" fill="#F9EEEA"/>
<path d="M653.227 348.41C653.451 350.662 651.545 352.789 648.967 353.039C644.594 353.414 640.11 353.79 635.738 354.04C633.384 354.165 631.59 352.538 631.478 350.411C631.478 350.286 631.478 350.036 631.478 349.911C632.487 338.025 633.496 326.139 634.393 314.253C634.393 314.002 634.393 313.752 634.505 313.502C639.774 313.877 644.931 314.002 650.2 314.002C650.2 314.253 650.2 314.503 650.312 314.753C650.76 320.884 651.321 327.015 651.881 333.145C652.33 338.275 652.778 343.405 653.227 348.41Z" fill="#F93E8B" stroke="#381D2A" stroke-miterlimit="10" stroke-linecap="round" stroke-linejoin="round"/>
<path d="M649.528 333.146C649.64 338.526 646.501 343.03 642.353 343.28C638.205 343.531 635.066 339.026 635.178 333.396C635.29 327.766 638.541 323.387 642.353 323.387C646.165 323.512 649.416 327.766 649.528 333.146Z" fill="#F9EEEA"/>
<path d="M650.313 312.125C650.313 313.001 650.313 313.877 650.425 314.752C645.156 314.752 639.775 314.627 634.506 314.252C634.506 313.376 634.506 312.375 634.618 311.499C634.618 309.998 635.851 308.747 637.196 308.872C640.784 309.122 644.259 309.247 647.847 309.372C649.08 309.372 650.089 310.373 650.425 311.624C650.313 311.75 650.313 311.875 650.313 312.125Z" fill="#F9EEEA" stroke="#381D2A" stroke-miterlimit="10" stroke-linecap="round" stroke-linejoin="round"/>
<path d="M636.299 310.125C636.299 311.126 636.299 312.002 636.187 313.003" stroke="#381D2A" stroke-miterlimit="10" stroke-linecap="round" stroke-linejoin="round"/>
<path d="M638.318 310.25C638.318 311.251 638.318 312.127 638.318 313.128" stroke="#381D2A" stroke-miterlimit="10" stroke-linecap="round" stroke-linejoin="round"/>
<path d="M640.336 310.25C640.336 311.251 640.336 312.127 640.336 313.128" stroke="#381D2A" stroke-miterlimit="10" stroke-linecap="round" stroke-linejoin="round"/>
<path d="M642.465 310.375C642.465 311.251 642.465 312.252 642.465 313.128" stroke="#381D2A" stroke-miterlimit="10" stroke-linecap="round" stroke-linejoin="round"/>
<path d="M644.484 310.5C644.484 311.376 644.484 312.377 644.484 313.253" stroke="#381D2A" stroke-miterlimit="10" stroke-linecap="round" stroke-linejoin="round"/>
<path d="M646.502 310.5C646.502 311.376 646.502 312.377 646.502 313.253" stroke="#381D2A" stroke-miterlimit="10" stroke-linecap="round" stroke-linejoin="round"/>
<path d="M648.52 310.625C648.52 311.501 648.52 312.502 648.632 313.378" stroke="#381D2A" stroke-miterlimit="10" stroke-linecap="round" stroke-linejoin="round"/>
<path d="M644.707 309.249C643.137 309.249 641.68 309.124 640.11 308.999C640.222 308.499 640.222 308.123 640.335 307.623C640.783 304.245 641.231 300.866 641.68 297.488C641.904 297.613 642.24 297.864 642.465 297.989C642.577 297.989 642.689 298.114 642.801 298.114C643.361 301.992 644.034 305.621 644.707 309.249Z" fill="#F9EEEA" stroke="#381D2A" stroke-miterlimit="10" stroke-linecap="round" stroke-linejoin="round"/>
<path d="M653.227 348.409C653.451 350.661 651.545 352.788 648.967 353.038C644.594 353.414 640.11 353.789 635.738 354.039C633.384 354.164 631.59 352.538 631.478 350.411C633.048 351.036 635.29 350.911 636.859 350.786C638.877 350.661 641.007 350.411 643.025 349.91C645.155 349.41 647.285 348.784 648.855 347.283C650.648 345.406 650.985 342.779 651.209 340.401C651.433 337.899 651.657 335.397 651.881 333.02C652.33 338.274 652.778 343.404 653.227 348.409Z" fill="url(#paint72_linear_9231_8987)"/>
<path d="M650.313 312.125C650.313 313.001 650.313 313.877 650.425 314.753C645.156 314.753 639.775 314.628 634.506 314.252C634.506 313.627 634.506 313.001 634.506 312.376C635.627 312.626 636.86 312.626 637.981 312.626C641.008 312.876 644.147 312.876 647.174 312.626C648.295 312.501 649.416 312.376 650.201 311.625C650.313 311.75 650.313 311.875 650.313 312.125Z" fill="url(#paint73_linear_9231_8987)"/>
<path d="M644.707 309.249C643.137 309.249 641.68 309.124 640.11 308.998C640.222 308.498 640.222 308.123 640.335 307.622C641.119 307.622 641.904 307.622 642.577 307.497C642.689 307.497 642.913 307.497 642.913 307.372C643.025 307.247 643.025 307.122 643.025 306.997C642.801 303.994 642.689 300.991 642.465 298.113C642.577 298.113 642.689 298.238 642.801 298.238C643.361 301.992 644.034 305.62 644.707 309.249Z" fill="url(#paint74_linear_9231_8987)"/>
</g>
<defs>
<linearGradient id="paint0_linear_9231_8987" x1="342.691" y1="393.703" x2="410.87" y2="597.784" gradientUnits="userSpaceOnUse">
<stop stop-color="#FFBB1C"/>
<stop offset="1" stop-color="#E28611"/>
</linearGradient>
<linearGradient id="paint1_linear_9231_8987" x1="283.164" y1="357.52" x2="284.714" y2="394.116" gradientUnits="userSpaceOnUse">
<stop stop-color="#FFBB1C"/>
<stop offset="1" stop-color="#E28611"/>
</linearGradient>
<linearGradient id="paint2_linear_9231_8987" x1="290.675" y1="280.473" x2="293.285" y2="288.399" gradientUnits="userSpaceOnUse">
<stop stop-color="#FFBB1C"/>
<stop offset="1" stop-color="#E28611"/>
</linearGradient>
<linearGradient id="paint3_linear_9231_8987" x1="244.039" y1="261.205" x2="264.781" y2="316.372" gradientUnits="userSpaceOnUse">
<stop stop-color="#FFBB1C"/>
<stop offset="1" stop-color="#E28611"/>
</linearGradient>
<linearGradient id="paint4_linear_9231_8987" x1="684.84" y1="280.473" x2="687.45" y2="288.399" gradientUnits="userSpaceOnUse">
<stop stop-color="#FFBB1C"/>
<stop offset="1" stop-color="#E28611"/>
</linearGradient>
<linearGradient id="paint5_linear_9231_8987" x1="662.868" y1="261.205" x2="683.61" y2="316.372" gradientUnits="userSpaceOnUse">
<stop stop-color="#FFBB1C"/>
<stop offset="1" stop-color="#E28611"/>
</linearGradient>
<linearGradient id="paint6_linear_9231_8987" x1="381.816" y1="266.336" x2="462.142" y2="320.507" gradientUnits="userSpaceOnUse">
<stop stop-color="#FFBB1C"/>
<stop offset="1" stop-color="#E28611"/>
</linearGradient>
<linearGradient id="paint7_linear_9231_8987" x1="432.601" y1="307.998" x2="439.586" y2="309.008" gradientUnits="userSpaceOnUse">
<stop stop-color="#FFBB1C"/>
<stop offset="1" stop-color="#E28611"/>
</linearGradient>
<linearGradient id="paint8_linear_9231_8987" x1="381.816" y1="272.59" x2="400.565" y2="311.358" gradientUnits="userSpaceOnUse">
<stop stop-color="#FFBB1C"/>
<stop offset="1" stop-color="#E28611"/>
</linearGradient>
<linearGradient id="paint9_linear_9231_8987" x1="381.816" y1="303.367" x2="400.565" y2="342.136" gradientUnits="userSpaceOnUse">
<stop stop-color="#FFBB1C"/>
<stop offset="1" stop-color="#E28611"/>
</linearGradient>
<linearGradient id="paint10_linear_9231_8987" x1="381.816" y1="334.148" x2="400.565" y2="372.917" gradientUnits="userSpaceOnUse">
<stop stop-color="#FFBB1C"/>
<stop offset="1" stop-color="#E28611"/>
</linearGradient>
<linearGradient id="paint11_linear_9231_8987" x1="384.396" y1="319.838" x2="389.639" y2="333.254" gradientUnits="userSpaceOnUse">
<stop stop-color="#FFBB1C"/>
<stop offset="1" stop-color="#E28611"/>
</linearGradient>
<linearGradient id="paint12_linear_9231_8987" x1="406.705" y1="320.48" x2="411.379" y2="333.502" gradientUnits="userSpaceOnUse">
<stop stop-color="#FFBB1C"/>
<stop offset="1" stop-color="#E28611"/>
</linearGradient>
<linearGradient id="paint13_linear_9231_8987" x1="382.377" y1="348.535" x2="386.081" y2="359.76" gradientUnits="userSpaceOnUse">
<stop stop-color="#FFBB1C"/>
<stop offset="1" stop-color="#E28611"/>
</linearGradient>
<linearGradient id="paint14_linear_9231_8987" x1="405.471" y1="347.391" x2="410.133" y2="361.236" gradientUnits="userSpaceOnUse">
<stop stop-color="#FFBB1C"/>
<stop offset="1" stop-color="#E28611"/>
</linearGradient>
<linearGradient id="paint15_linear_9231_8987" x1="382.938" y1="289.297" x2="388.876" y2="302.632" gradientUnits="userSpaceOnUse">
<stop stop-color="#FFBB1C"/>
<stop offset="1" stop-color="#E28611"/>
</linearGradient>
<linearGradient id="paint16_linear_9231_8987" x1="406.144" y1="289.246" x2="411.241" y2="302.939" gradientUnits="userSpaceOnUse">
<stop stop-color="#FFBB1C"/>
<stop offset="1" stop-color="#E28611"/>
</linearGradient>
<linearGradient id="paint17_linear_9231_8987" x1="389.553" y1="322.012" x2="390.37" y2="323.113" gradientUnits="userSpaceOnUse">
<stop stop-color="#FFBB1C"/>
<stop offset="1" stop-color="#E28611"/>
</linearGradient>
<linearGradient id="paint18_linear_9231_8987" x1="392.242" y1="322.137" x2="393.275" y2="322.484" gradientUnits="userSpaceOnUse">
<stop stop-color="#FFBB1C"/>
<stop offset="1" stop-color="#E28611"/>
</linearGradient>
<linearGradient id="paint19_linear_9231_8987" x1="394.372" y1="322.762" x2="394.986" y2="322.979" gradientUnits="userSpaceOnUse">
<stop stop-color="#FFBB1C"/>
<stop offset="1" stop-color="#E28611"/>
</linearGradient>
<linearGradient id="paint20_linear_9231_8987" x1="396.391" y1="322.387" x2="396.849" y2="323.035" gradientUnits="userSpaceOnUse">
<stop stop-color="#FFBB1C"/>
<stop offset="1" stop-color="#E28611"/>
</linearGradient>
<linearGradient id="paint21_linear_9231_8987" x1="412.31" y1="322.762" x2="413.102" y2="323.935" gradientUnits="userSpaceOnUse">
<stop stop-color="#FFBB1C"/>
<stop offset="1" stop-color="#E28611"/>
</linearGradient>
<linearGradient id="paint22_linear_9231_8987" x1="414.887" y1="323.016" x2="415.526" y2="323.196" gradientUnits="userSpaceOnUse">
<stop stop-color="#FFBB1C"/>
<stop offset="1" stop-color="#E28611"/>
</linearGradient>
<linearGradient id="paint23_linear_9231_8987" x1="417.13" y1="323.389" x2="417.883" y2="323.744" gradientUnits="userSpaceOnUse">
<stop stop-color="#FFBB1C"/>
<stop offset="1" stop-color="#E28611"/>
</linearGradient>
<linearGradient id="paint24_linear_9231_8987" x1="419.372" y1="323.016" x2="419.83" y2="323.664" gradientUnits="userSpaceOnUse">
<stop stop-color="#FFBB1C"/>
<stop offset="1" stop-color="#E28611"/>
</linearGradient>
<linearGradient id="paint25_linear_9231_8987" x1="412.645" y1="349.535" x2="413.437" y2="350.709" gradientUnits="userSpaceOnUse">
<stop stop-color="#FFBB1C"/>
<stop offset="1" stop-color="#E28611"/>
</linearGradient>
<linearGradient id="paint26_linear_9231_8987" x1="415.336" y1="349.664" x2="415.564" y2="349.686" gradientUnits="userSpaceOnUse">
<stop stop-color="#FFBB1C"/>
<stop offset="1" stop-color="#E28611"/>
</linearGradient>
<linearGradient id="paint27_linear_9231_8987" x1="417.579" y1="349.664" x2="418.384" y2="349.968" gradientUnits="userSpaceOnUse">
<stop stop-color="#FFBB1C"/>
<stop offset="1" stop-color="#E28611"/>
</linearGradient>
<linearGradient id="paint28_linear_9231_8987" x1="419.483" y1="349.664" x2="420.333" y2="350.58" gradientUnits="userSpaceOnUse">
<stop stop-color="#FFBB1C"/>
<stop offset="1" stop-color="#E28611"/>
</linearGradient>
<linearGradient id="paint29_linear_9231_8987" x1="388.318" y1="350.664" x2="388.924" y2="351.807" gradientUnits="userSpaceOnUse">
<stop stop-color="#FFBB1C"/>
<stop offset="1" stop-color="#E28611"/>
</linearGradient>
<linearGradient id="paint30_linear_9231_8987" x1="390.336" y1="351.039" x2="391.089" y2="351.394" gradientUnits="userSpaceOnUse">
<stop stop-color="#FFBB1C"/>
<stop offset="1" stop-color="#E28611"/>
</linearGradient>
<linearGradient id="paint31_linear_9231_8987" x1="392.018" y1="351.039" x2="392.729" y2="351.422" gradientUnits="userSpaceOnUse">
<stop stop-color="#FFBB1C"/>
<stop offset="1" stop-color="#E28611"/>
</linearGradient>
<linearGradient id="paint32_linear_9231_8987" x1="393.812" y1="350.664" x2="394.539" y2="351.464" gradientUnits="userSpaceOnUse">
<stop stop-color="#FFBB1C"/>
<stop offset="1" stop-color="#E28611"/>
</linearGradient>
<linearGradient id="paint33_linear_9231_8987" x1="386.973" y1="292.359" x2="387.823" y2="293.275" gradientUnits="userSpaceOnUse">
<stop stop-color="#FFBB1C"/>
<stop offset="1" stop-color="#E28611"/>
</linearGradient>
<linearGradient id="paint34_linear_9231_8987" x1="389.44" y1="292.107" x2="390.735" y2="293.097" gradientUnits="userSpaceOnUse">
<stop stop-color="#FFBB1C"/>
<stop offset="1" stop-color="#E28611"/>
</linearGradient>
<linearGradient id="paint35_linear_9231_8987" x1="391.569" y1="292.107" x2="392.208" y2="292.288" gradientUnits="userSpaceOnUse">
<stop stop-color="#FFBB1C"/>
<stop offset="1" stop-color="#E28611"/>
</linearGradient>
<linearGradient id="paint36_linear_9231_8987" x1="393.543" y1="292.359" x2="394.041" y2="292.52" gradientUnits="userSpaceOnUse">
<stop stop-color="#FFBB1C"/>
<stop offset="1" stop-color="#E28611"/>
</linearGradient>
<linearGradient id="paint37_linear_9231_8987" x1="395.269" y1="291.982" x2="396.12" y2="292.784" gradientUnits="userSpaceOnUse">
<stop stop-color="#FFBB1C"/>
<stop offset="1" stop-color="#E28611"/>
</linearGradient>
<linearGradient id="paint38_linear_9231_8987" x1="413.095" y1="292.359" x2="413.933" y2="293.376" gradientUnits="userSpaceOnUse">
<stop stop-color="#FFBB1C"/>
<stop offset="1" stop-color="#E28611"/>
</linearGradient>
<linearGradient id="paint39_linear_9231_8987" x1="415.559" y1="292.359" x2="416.206" y2="292.526" gradientUnits="userSpaceOnUse">
<stop stop-color="#FFBB1C"/>
<stop offset="1" stop-color="#E28611"/>
</linearGradient>
<linearGradient id="paint40_linear_9231_8987" x1="417.393" y1="292.484" x2="417.76" y2="292.556" gradientUnits="userSpaceOnUse">
<stop stop-color="#FFBB1C"/>
<stop offset="1" stop-color="#E28611"/>
</linearGradient>
<linearGradient id="paint41_linear_9231_8987" x1="419.483" y1="292.359" x2="420.236" y2="292.714" gradientUnits="userSpaceOnUse">
<stop stop-color="#FFBB1C"/>
<stop offset="1" stop-color="#E28611"/>
</linearGradient>
<linearGradient id="paint42_linear_9231_8987" x1="421.502" y1="292.107" x2="422.676" y2="292.992" gradientUnits="userSpaceOnUse">
<stop stop-color="#FFBB1C"/>
<stop offset="1" stop-color="#E28611"/>
</linearGradient>
<linearGradient id="paint43_linear_9231_8987" x1="524.303" y1="324.389" x2="524.893" y2="334.36" gradientUnits="userSpaceOnUse">
<stop stop-color="#FFBB1C"/>
<stop offset="1" stop-color="#E28611"/>
</linearGradient>
<linearGradient id="paint44_linear_9231_8987" x1="527.667" y1="329.52" x2="543.165" y2="377.198" gradientUnits="userSpaceOnUse">
<stop stop-color="#FFBB1C"/>
<stop offset="1" stop-color="#E28611"/>
</linearGradient>
<linearGradient id="paint45_linear_9231_8987" x1="527.441" y1="320.553" x2="529.099" y2="327.905" gradientUnits="userSpaceOnUse">
<stop stop-color="#FFBB1C"/>
<stop offset="1" stop-color="#E28611"/>
</linearGradient>
<linearGradient id="paint46_linear_9231_8987" x1="550.537" y1="320.51" x2="552.194" y2="327.862" gradientUnits="userSpaceOnUse">
<stop stop-color="#FFBB1C"/>
<stop offset="1" stop-color="#E28611"/>
</linearGradient>
<linearGradient id="paint47_linear_9231_8987" x1="573.294" y1="320.51" x2="574.951" y2="327.862" gradientUnits="userSpaceOnUse">
<stop stop-color="#FFBB1C"/>
<stop offset="1" stop-color="#E28611"/>
</linearGradient>
<linearGradient id="paint48_linear_9231_8987" x1="596.722" y1="320.553" x2="598.38" y2="327.905" gradientUnits="userSpaceOnUse">
<stop stop-color="#FFBB1C"/>
<stop offset="1" stop-color="#E28611"/>
</linearGradient>
<linearGradient id="paint49_linear_9231_8987" x1="526.77" y1="261.205" x2="546.15" y2="314.149" gradientUnits="userSpaceOnUse">
<stop stop-color="#FFBB1C"/>
<stop offset="1" stop-color="#E28611"/>
</linearGradient>
<linearGradient id="paint50_linear_9231_8987" x1="308.949" y1="112" x2="406.118" y2="365.849" gradientUnits="userSpaceOnUse">
<stop stop-color="#FFBB1C"/>
<stop offset="1" stop-color="#E28611"/>
</linearGradient>
<linearGradient id="paint51_linear_9231_8987" x1="308.949" y1="157.484" x2="359.226" y2="346.428" gradientUnits="userSpaceOnUse">
<stop stop-color="#FFBB1C"/>
<stop offset="1" stop-color="#E28611"/>
</linearGradient>
<linearGradient id="paint52_linear_9231_8987" x1="270.383" y1="355.92" x2="271.477" y2="387.609" gradientUnits="userSpaceOnUse">
<stop stop-color="#FFBB1C"/>
<stop offset="1" stop-color="#E28611"/>
</linearGradient>
<linearGradient id="paint53_linear_9231_8987" x1="290.226" y1="320.012" x2="293.364" y2="331.61" gradientUnits="userSpaceOnUse">
<stop stop-color="#FFBB1C"/>
<stop offset="1" stop-color="#E28611"/>
</linearGradient>
<linearGradient id="paint54_linear_9231_8987" x1="284.846" y1="326.516" x2="287.983" y2="338.114" gradientUnits="userSpaceOnUse">
<stop stop-color="#FFBB1C"/>
<stop offset="1" stop-color="#E28611"/>
</linearGradient>
<linearGradient id="paint55_linear_9231_8987" x1="280.922" y1="324.512" x2="284.073" y2="336.102" gradientUnits="userSpaceOnUse">
<stop stop-color="#FFBB1C"/>
<stop offset="1" stop-color="#E28611"/>
</linearGradient>
<linearGradient id="paint56_linear_9231_8987" x1="308.835" y1="320.637" x2="311.987" y2="332.227" gradientUnits="userSpaceOnUse">
<stop stop-color="#FFBB1C"/>
<stop offset="1" stop-color="#E28611"/>
</linearGradient>
<linearGradient id="paint57_linear_9231_8987" x1="309.734" y1="325.518" x2="312.885" y2="337.108" gradientUnits="userSpaceOnUse">
<stop stop-color="#FFBB1C"/>
<stop offset="1" stop-color="#E28611"/>
</linearGradient>
<linearGradient id="paint58_linear_9231_8987" x1="316.907" y1="323.516" x2="323.505" y2="339.307" gradientUnits="userSpaceOnUse">
<stop stop-color="#FFBB1C"/>
<stop offset="1" stop-color="#E28611"/>
</linearGradient>
<linearGradient id="paint59_linear_9231_8987" x1="297.178" y1="324.512" x2="306.802" y2="341.874" gradientUnits="userSpaceOnUse">
<stop stop-color="#FFBB1C"/>
<stop offset="1" stop-color="#E28611"/>
</linearGradient>
<linearGradient id="paint60_linear_9231_8987" x1="305.586" y1="323.266" x2="312.882" y2="339.513" gradientUnits="userSpaceOnUse">
<stop stop-color="#FFBB1C"/>
<stop offset="1" stop-color="#E28611"/>
</linearGradient>
<linearGradient id="paint61_linear_9231_8987" x1="287.2" y1="322.637" x2="293.358" y2="337.982" gradientUnits="userSpaceOnUse">
<stop stop-color="#FFBB1C"/>
<stop offset="1" stop-color="#E28611"/>
</linearGradient>
<linearGradient id="paint62_linear_9231_8987" x1="285.855" y1="333.773" x2="286.206" y2="339.365" gradientUnits="userSpaceOnUse">
<stop stop-color="#FFBB1C"/>
<stop offset="1" stop-color="#E28611"/>
</linearGradient>
<linearGradient id="paint63_linear_9231_8987" x1="289.891" y1="333.65" x2="304.753" y2="365.213" gradientUnits="userSpaceOnUse">
<stop stop-color="#FFBB1C"/>
<stop offset="1" stop-color="#E28611"/>
</linearGradient>
<linearGradient id="paint64_linear_9231_8987" x1="283.949" y1="329.27" x2="284.721" y2="337.987" gradientUnits="userSpaceOnUse">
<stop stop-color="#FFBB1C"/>
<stop offset="1" stop-color="#E28611"/>
</linearGradient>
<linearGradient id="paint65_linear_9231_8987" x1="653.563" y1="313.502" x2="686.376" y2="331.179" gradientUnits="userSpaceOnUse">
<stop stop-color="#FFBB1C"/>
<stop offset="1" stop-color="#E28611"/>
</linearGradient>
<linearGradient id="paint66_linear_9231_8987" x1="653.563" y1="333.396" x2="673.415" y2="354.524" gradientUnits="userSpaceOnUse">
<stop stop-color="#FFBB1C"/>
<stop offset="1" stop-color="#E28611"/>
</linearGradient>
<linearGradient id="paint67_linear_9231_8987" x1="655.58" y1="311.377" x2="656.745" y2="317.501" gradientUnits="userSpaceOnUse">
<stop stop-color="#FFBB1C"/>
<stop offset="1" stop-color="#E28611"/>
</linearGradient>
<linearGradient id="paint68_linear_9231_8987" x1="661.411" y1="298.113" x2="669.476" y2="301.701" gradientUnits="userSpaceOnUse">
<stop stop-color="#FFBB1C"/>
<stop offset="1" stop-color="#E28611"/>
</linearGradient>
<linearGradient id="paint69_linear_9231_8987" x1="688.987" y1="333.523" x2="708.756" y2="352.841" gradientUnits="userSpaceOnUse">
<stop stop-color="#FFBB1C"/>
<stop offset="1" stop-color="#E28611"/>
</linearGradient>
<linearGradient id="paint70_linear_9231_8987" x1="689.996" y1="311.127" x2="691.29" y2="317.706" gradientUnits="userSpaceOnUse">
<stop stop-color="#FFBB1C"/>
<stop offset="1" stop-color="#E28611"/>
</linearGradient>
<linearGradient id="paint71_linear_9231_8987" x1="695.825" y1="297.613" x2="704.296" y2="301.605" gradientUnits="userSpaceOnUse">
<stop stop-color="#FFBB1C"/>
<stop offset="1" stop-color="#E28611"/>
</linearGradient>
<linearGradient id="paint72_linear_9231_8987" x1="631.478" y1="333.02" x2="651.911" y2="355.27" gradientUnits="userSpaceOnUse">
<stop stop-color="#FFBB1C"/>
<stop offset="1" stop-color="#E28611"/>
</linearGradient>
<linearGradient id="paint73_linear_9231_8987" x1="634.506" y1="311.625" x2="635.607" y2="317.521" gradientUnits="userSpaceOnUse">
<stop stop-color="#FFBB1C"/>
<stop offset="1" stop-color="#E28611"/>
</linearGradient>
<linearGradient id="paint74_linear_9231_8987" x1="640.11" y1="298.113" x2="648.046" y2="301.559" gradientUnits="userSpaceOnUse">
<stop stop-color="#FFBB1C"/>
<stop offset="1" stop-color="#E28611"/>
</linearGradient>
<clipPath id="clip0_9231_8987">
<rect width="1000" height="570" fill="white"/>
</clipPath>
</defs>
</svg>
