<svg width="181" height="181" viewBox="0 0 181 181" fill="none" xmlns="http://www.w3.org/2000/svg">
<foreignObject x="12.5307" y="12.5307" width="154.8" height="154.8"><div xmlns="http://www.w3.org/1999/xhtml" style="backdrop-filter:blur(1.2px);clip-path:url(#bgblur_0_9130_62625_clip_path);height:100%;width:100%"></div></foreignObject><circle opacity="0.06" data-figma-bg-blur-radius="2.4" cx="89.9307" cy="89.9307" r="75" fill="url(#paint0_linear_9130_62625)"/>
<g opacity="0.06" filter="url(#filter1_f_9130_62625)">
<circle cx="90.1394" cy="90.1399" r="62.6741" fill="url(#paint1_linear_9130_62625)"/>
</g>
<g opacity="0.1" filter="url(#filter2_df_9130_62625)">
<circle cx="90.1393" cy="90.1393" r="50.1393" fill="url(#paint2_linear_9130_62625)"/>
</g>
<circle opacity="0.15" cx="143.622" cy="37.9114" r="2.08914" fill="url(#paint3_linear_9130_62625)"/>
<circle opacity="0.25" cx="37.9114" cy="36.2405" r="2.08914" fill="url(#paint4_linear_9130_62625)"/>
<circle opacity="0.25" cx="131.922" cy="150.725" r="2.08914" fill="url(#paint5_linear_9130_62625)"/>
<circle opacity="0.05" cx="31.6448" cy="123.566" r="2.08914" fill="url(#paint6_linear_9130_62625)"/>
<path d="M89.6691 62.5566C84.2137 62.5566 78.8807 64.1744 74.3447 67.2052C69.8087 70.2361 66.2733 74.544 64.1856 79.5842C62.0979 84.6243 61.5517 90.1704 62.616 95.521C63.6803 100.872 66.3073 105.786 70.1649 109.644C74.0224 113.502 78.9373 116.129 84.2879 117.193C89.6385 118.257 95.1845 117.711 100.225 115.623C105.265 113.536 109.573 110 112.604 105.464C115.634 100.928 117.252 95.5952 117.252 90.1398C117.244 82.8266 114.336 75.8153 109.165 70.6441C103.994 65.4729 96.9822 62.5644 89.6691 62.5566ZM101.779 85.2756L86.9267 100.128C86.7296 100.325 86.4956 100.482 86.238 100.589C85.9805 100.695 85.7044 100.75 85.4255 100.75C85.1467 100.75 84.8706 100.695 84.613 100.589C84.3554 100.482 84.1214 100.325 83.9244 100.128L77.559 93.7627C77.1609 93.3646 76.9372 92.8246 76.9372 92.2616C76.9372 91.6985 77.1609 91.1585 77.559 90.7604C77.9572 90.3623 78.4971 90.1386 79.0602 90.1386C79.6232 90.1386 80.1632 90.3623 80.5613 90.7604L85.4255 95.6272L98.7768 82.2733C98.974 82.0761 99.208 81.9198 99.4656 81.8131C99.7231 81.7064 99.9992 81.6515 100.278 81.6515C100.557 81.6515 100.833 81.7064 101.09 81.8131C101.348 81.9198 101.582 82.0761 101.779 82.2733C101.976 82.4704 102.133 82.7044 102.239 82.962C102.346 83.2196 102.401 83.4956 102.401 83.7744C102.401 84.0532 102.346 84.3293 102.239 84.5869C102.133 84.8444 101.976 85.0785 101.779 85.2756Z" fill="url(#paint7_linear_9130_62625)"/>
<defs>
<clipPath id="bgblur_0_9130_62625_clip_path" transform="translate(-12.5307 -12.5307)"><circle cx="89.9307" cy="89.9307" r="75"/>
</clipPath><filter id="filter1_f_9130_62625" x="25.8653" y="25.8658" width="128.548" height="128.549" filterUnits="userSpaceOnUse" color-interpolation-filters="sRGB">
<feFlood flood-opacity="0" result="BackgroundImageFix"/>
<feBlend mode="normal" in="SourceGraphic" in2="BackgroundImageFix" result="shape"/>
<feGaussianBlur stdDeviation="0.8" result="effect1_foregroundBlur_9130_62625"/>
</filter>
<filter id="filter2_df_9130_62625" x="0" y="0" width="180.279" height="180.278" filterUnits="userSpaceOnUse" color-interpolation-filters="sRGB">
<feFlood flood-opacity="0" result="BackgroundImageFix"/>
<feColorMatrix in="SourceAlpha" type="matrix" values="0 0 0 0 0 0 0 0 0 0 0 0 0 0 0 0 0 0 127 0" result="hardAlpha"/>
<feOffset/>
<feGaussianBlur stdDeviation="20"/>
<feComposite in2="hardAlpha" operator="out"/>
<feColorMatrix type="matrix" values="0 0 0 0 0 0 0 0 0 0 0 0 0 0 0 0 0 0 0.25 0"/>
<feBlend mode="normal" in2="BackgroundImageFix" result="effect1_dropShadow_9130_62625"/>
<feBlend mode="normal" in="SourceGraphic" in2="effect1_dropShadow_9130_62625" result="shape"/>
<feGaussianBlur stdDeviation="0.4" result="effect2_foregroundBlur_9130_62625"/>
</filter>
<linearGradient id="paint0_linear_9130_62625" x1="14.9307" y1="14.9307" x2="161.04" y2="168.629" gradientUnits="userSpaceOnUse">
<stop stop-color="#FFBB1C"/>
<stop offset="1" stop-color="#E28611"/>
</linearGradient>
<linearGradient id="paint1_linear_9130_62625" x1="27.4653" y1="27.4658" x2="149.562" y2="155.905" gradientUnits="userSpaceOnUse">
<stop stop-color="#FFBB1C"/>
<stop offset="1" stop-color="#E28611"/>
</linearGradient>
<linearGradient id="paint2_linear_9130_62625" x1="40" y1="40" x2="137.678" y2="142.751" gradientUnits="userSpaceOnUse">
<stop stop-color="#FFBB1C"/>
<stop offset="1" stop-color="#E28611"/>
</linearGradient>
<linearGradient id="paint3_linear_9130_62625" x1="141.533" y1="35.8223" x2="145.603" y2="40.1036" gradientUnits="userSpaceOnUse">
<stop stop-color="#FFBB1C"/>
<stop offset="1" stop-color="#E28611"/>
</linearGradient>
<linearGradient id="paint4_linear_9130_62625" x1="35.8223" y1="34.1514" x2="39.8922" y2="38.4327" gradientUnits="userSpaceOnUse">
<stop stop-color="#FFBB1C"/>
<stop offset="1" stop-color="#E28611"/>
</linearGradient>
<linearGradient id="paint5_linear_9130_62625" x1="129.833" y1="148.636" x2="133.903" y2="152.917" gradientUnits="userSpaceOnUse">
<stop stop-color="#FFBB1C"/>
<stop offset="1" stop-color="#E28611"/>
</linearGradient>
<linearGradient id="paint6_linear_9130_62625" x1="29.5557" y1="121.477" x2="33.6256" y2="125.758" gradientUnits="userSpaceOnUse">
<stop stop-color="#FFBB1C"/>
<stop offset="1" stop-color="#E28611"/>
</linearGradient>
<linearGradient id="paint7_linear_9130_62625" x1="62.0859" y1="62.5566" x2="115.821" y2="119.083" gradientUnits="userSpaceOnUse">
<stop stop-color="#FFBB1C"/>
<stop offset="1" stop-color="#E28611"/>
</linearGradient>
</defs>
</svg>
