<svg width="160" height="160" viewBox="0 0 160 160" fill="none" xmlns="http://www.w3.org/2000/svg">
<path d="M78.9533 159.88C122.558 159.88 157.907 124.09 157.907 79.9402C157.907 35.7905 122.558 0 78.9533 0C35.3486 0 0 35.7905 0 79.9402C0 124.09 35.3486 159.88 78.9533 159.88Z" fill="#69D5DD"/>
<path d="M78.9533 159.88C122.558 159.88 157.907 124.09 157.907 79.9402C157.907 35.7905 122.558 0 78.9533 0C35.3486 0 0 35.7905 0 79.9402C0 124.09 35.3486 159.88 78.9533 159.88Z" fill="white" fill-opacity="0.7"/>
<path d="M11.3335 123.812C15.2678 123.812 18.4571 120.583 18.4571 116.6C18.4571 112.616 15.2678 109.387 11.3335 109.387C7.39929 109.387 4.20996 112.616 4.20996 116.6C4.20996 120.583 7.39929 123.812 11.3335 123.812Z" fill="#3AC2C2"/>
<path d="M8.61107 155.83C11.0417 155.83 13.0122 153.835 13.0122 151.374C13.0122 148.913 11.0417 146.917 8.61107 146.917C6.1804 146.917 4.20996 148.913 4.20996 151.374C4.20996 153.835 6.1804 155.83 8.61107 155.83Z" fill="#69D5DD"/>
<path d="M8.61107 155.83C11.0417 155.83 13.0122 153.835 13.0122 151.374C13.0122 148.913 11.0417 146.917 8.61107 146.917C6.1804 146.917 4.20996 148.913 4.20996 151.374C4.20996 153.835 6.1804 155.83 8.61107 155.83Z" fill="white" fill-opacity="0.7"/>
<path d="M138.523 45.5386C144.888 45.5386 150.047 40.3144 150.047 33.8699C150.047 27.4254 144.888 22.2012 138.523 22.2012C132.158 22.2012 126.998 27.4254 126.998 33.8699C126.998 40.3144 132.158 45.5386 138.523 45.5386Z" fill="#3AC2C2"/>
<path d="M153.141 7.94877C154.752 7.94877 156.058 6.62605 156.058 4.9944C156.058 3.36275 154.752 2.04004 153.141 2.04004C151.529 2.04004 150.223 3.36275 150.223 4.9944C150.223 6.62605 151.529 7.94877 153.141 7.94877Z" fill="#69D5DD"/>
<path d="M153.141 7.94877C154.752 7.94877 156.058 6.62605 156.058 4.9944C156.058 3.36275 154.752 2.04004 153.141 2.04004C151.529 2.04004 150.223 3.36275 150.223 4.9944C150.223 6.62605 151.529 7.94877 153.141 7.94877Z" fill="white" fill-opacity="0.7"/>
<path d="M50.9414 83.3529L76.6453 124.473C76.6453 124.473 117.257 37.8089 115.201 40.1511C113.145 42.2331 76.6453 98.4475 76.6453 98.4475L50.9414 83.3529Z" fill="url(#paint0_linear_9031_62066)"/>
<path d="M50.9418 83.353L38.0898 78.9287L63.2796 119.007L76.6456 124.473L50.9418 83.353Z" fill="#FFCE47"/>
<path d="M115.201 39.8911L102.35 35.7271L65.3359 91.6811L76.6456 98.4477L115.201 39.8911Z" fill="#FFDE8A"/>
<defs>
<linearGradient id="paint0_linear_9031_62066" x1="50.9414" y1="40.1045" x2="131.267" y2="104.538" gradientUnits="userSpaceOnUse">
<stop stop-color="#FFBB1C"/>
<stop offset="1" stop-color="#E28611"/>
</linearGradient>
</defs>
</svg>
